G04 #@! TF.GenerationSoftware,KiCad,Pcbnew,(5.1.6-0-10_14)*
G04 #@! TF.CreationDate,2020-09-25T04:26:35-07:00*
G04 #@! TF.ProjectId,FT2232H_USB-C_to_2x10_1.27_F_RA,46543232-3332-4485-9f55-53422d435f74,rev?*
G04 #@! TF.SameCoordinates,Original*
G04 #@! TF.FileFunction,Soldermask,Top*
G04 #@! TF.FilePolarity,Negative*
%FSLAX46Y46*%
G04 Gerber Fmt 4.6, Leading zero omitted, Abs format (unit mm)*
G04 Created by KiCad (PCBNEW (5.1.6-0-10_14)) date 2020-09-25 04:26:35*
%MOMM*%
%LPD*%
G01*
G04 APERTURE LIST*
%ADD10C,0.100000*%
G04 APERTURE END LIST*
D10*
G36*
X176188561Y-123597057D02*
G01*
X176246520Y-123608586D01*
X176410310Y-123676430D01*
X176557717Y-123774924D01*
X176683076Y-123900283D01*
X176781570Y-124047690D01*
X176849414Y-124211480D01*
X176884000Y-124385358D01*
X176884000Y-124562642D01*
X176849414Y-124736520D01*
X176781570Y-124900310D01*
X176683076Y-125047717D01*
X176557717Y-125173076D01*
X176410310Y-125271570D01*
X176246520Y-125339414D01*
X176188561Y-125350943D01*
X176072644Y-125374000D01*
X175895356Y-125374000D01*
X175779439Y-125350943D01*
X175721480Y-125339414D01*
X175557690Y-125271570D01*
X175410283Y-125173076D01*
X175284924Y-125047717D01*
X175186430Y-124900310D01*
X175118586Y-124736520D01*
X175084000Y-124562642D01*
X175084000Y-124385358D01*
X175118586Y-124211480D01*
X175186430Y-124047690D01*
X175284924Y-123900283D01*
X175410283Y-123774924D01*
X175557690Y-123676430D01*
X175721480Y-123608586D01*
X175779439Y-123597057D01*
X175895356Y-123574000D01*
X176072644Y-123574000D01*
X176188561Y-123597057D01*
G37*
G36*
X174344000Y-125374000D02*
G01*
X172544000Y-125374000D01*
X172544000Y-123574000D01*
X174344000Y-123574000D01*
X174344000Y-125374000D01*
G37*
G36*
X176188561Y-121057057D02*
G01*
X176246520Y-121068586D01*
X176410310Y-121136430D01*
X176557717Y-121234924D01*
X176683076Y-121360283D01*
X176781570Y-121507690D01*
X176849414Y-121671480D01*
X176884000Y-121845358D01*
X176884000Y-122022642D01*
X176849414Y-122196520D01*
X176781570Y-122360310D01*
X176683076Y-122507717D01*
X176557717Y-122633076D01*
X176410310Y-122731570D01*
X176246520Y-122799414D01*
X176188561Y-122810943D01*
X176072644Y-122834000D01*
X175895356Y-122834000D01*
X175779439Y-122810943D01*
X175721480Y-122799414D01*
X175557690Y-122731570D01*
X175410283Y-122633076D01*
X175284924Y-122507717D01*
X175186430Y-122360310D01*
X175118586Y-122196520D01*
X175084000Y-122022642D01*
X175084000Y-121845358D01*
X175118586Y-121671480D01*
X175186430Y-121507690D01*
X175284924Y-121360283D01*
X175410283Y-121234924D01*
X175557690Y-121136430D01*
X175721480Y-121068586D01*
X175779439Y-121057057D01*
X175895356Y-121034000D01*
X176072644Y-121034000D01*
X176188561Y-121057057D01*
G37*
G36*
X173648561Y-121057057D02*
G01*
X173706520Y-121068586D01*
X173870310Y-121136430D01*
X174017717Y-121234924D01*
X174143076Y-121360283D01*
X174241570Y-121507690D01*
X174309414Y-121671480D01*
X174344000Y-121845358D01*
X174344000Y-122022642D01*
X174309414Y-122196520D01*
X174241570Y-122360310D01*
X174143076Y-122507717D01*
X174017717Y-122633076D01*
X173870310Y-122731570D01*
X173706520Y-122799414D01*
X173648561Y-122810943D01*
X173532644Y-122834000D01*
X173355356Y-122834000D01*
X173239439Y-122810943D01*
X173181480Y-122799414D01*
X173017690Y-122731570D01*
X172870283Y-122633076D01*
X172744924Y-122507717D01*
X172646430Y-122360310D01*
X172578586Y-122196520D01*
X172544000Y-122022642D01*
X172544000Y-121845358D01*
X172578586Y-121671480D01*
X172646430Y-121507690D01*
X172744924Y-121360283D01*
X172870283Y-121234924D01*
X173017690Y-121136430D01*
X173181480Y-121068586D01*
X173239439Y-121057057D01*
X173355356Y-121034000D01*
X173532644Y-121034000D01*
X173648561Y-121057057D01*
G37*
G36*
X173648561Y-118517057D02*
G01*
X173706520Y-118528586D01*
X173870310Y-118596430D01*
X174017717Y-118694924D01*
X174143076Y-118820283D01*
X174241570Y-118967690D01*
X174309414Y-119131480D01*
X174344000Y-119305358D01*
X174344000Y-119482642D01*
X174309414Y-119656520D01*
X174241570Y-119820310D01*
X174143076Y-119967717D01*
X174017717Y-120093076D01*
X173870310Y-120191570D01*
X173706520Y-120259414D01*
X173648561Y-120270943D01*
X173532644Y-120294000D01*
X173355356Y-120294000D01*
X173239439Y-120270943D01*
X173181480Y-120259414D01*
X173017690Y-120191570D01*
X172870283Y-120093076D01*
X172744924Y-119967717D01*
X172646430Y-119820310D01*
X172578586Y-119656520D01*
X172544000Y-119482642D01*
X172544000Y-119305358D01*
X172578586Y-119131480D01*
X172646430Y-118967690D01*
X172744924Y-118820283D01*
X172870283Y-118694924D01*
X173017690Y-118596430D01*
X173181480Y-118528586D01*
X173239439Y-118517057D01*
X173355356Y-118494000D01*
X173532644Y-118494000D01*
X173648561Y-118517057D01*
G37*
G36*
X176188561Y-118517057D02*
G01*
X176246520Y-118528586D01*
X176410310Y-118596430D01*
X176557717Y-118694924D01*
X176683076Y-118820283D01*
X176781570Y-118967690D01*
X176849414Y-119131480D01*
X176884000Y-119305358D01*
X176884000Y-119482642D01*
X176849414Y-119656520D01*
X176781570Y-119820310D01*
X176683076Y-119967717D01*
X176557717Y-120093076D01*
X176410310Y-120191570D01*
X176246520Y-120259414D01*
X176188561Y-120270943D01*
X176072644Y-120294000D01*
X175895356Y-120294000D01*
X175779439Y-120270943D01*
X175721480Y-120259414D01*
X175557690Y-120191570D01*
X175410283Y-120093076D01*
X175284924Y-119967717D01*
X175186430Y-119820310D01*
X175118586Y-119656520D01*
X175084000Y-119482642D01*
X175084000Y-119305358D01*
X175118586Y-119131480D01*
X175186430Y-118967690D01*
X175284924Y-118820283D01*
X175410283Y-118694924D01*
X175557690Y-118596430D01*
X175721480Y-118528586D01*
X175779439Y-118517057D01*
X175895356Y-118494000D01*
X176072644Y-118494000D01*
X176188561Y-118517057D01*
G37*
G36*
X160597988Y-111902895D02*
G01*
X161189451Y-112147887D01*
X161311167Y-112229215D01*
X161721754Y-112503560D01*
X162174440Y-112956246D01*
X162395190Y-113286623D01*
X162530113Y-113488549D01*
X162775105Y-114080012D01*
X162900000Y-114707901D01*
X162900000Y-115348099D01*
X162775105Y-115975988D01*
X162530113Y-116567451D01*
X162512510Y-116593796D01*
X162174440Y-117099754D01*
X161721754Y-117552440D01*
X161471859Y-117719414D01*
X161189451Y-117908113D01*
X160597988Y-118153105D01*
X159970099Y-118278000D01*
X159329901Y-118278000D01*
X158702012Y-118153105D01*
X158110549Y-117908113D01*
X157828141Y-117719414D01*
X157578246Y-117552440D01*
X157125560Y-117099754D01*
X156787490Y-116593796D01*
X156769887Y-116567451D01*
X156524895Y-115975988D01*
X156400000Y-115348099D01*
X156400000Y-114707901D01*
X156524895Y-114080012D01*
X156769887Y-113488549D01*
X156904810Y-113286623D01*
X157125560Y-112956246D01*
X157578246Y-112503560D01*
X157988833Y-112229215D01*
X158110549Y-112147887D01*
X158702012Y-111902895D01*
X159329901Y-111778000D01*
X159970099Y-111778000D01*
X160597988Y-111902895D01*
G37*
G36*
X176183185Y-115975988D02*
G01*
X176246520Y-115988586D01*
X176410310Y-116056430D01*
X176557717Y-116154924D01*
X176683076Y-116280283D01*
X176781570Y-116427690D01*
X176849414Y-116591480D01*
X176884000Y-116765358D01*
X176884000Y-116942642D01*
X176849414Y-117116520D01*
X176781570Y-117280310D01*
X176683076Y-117427717D01*
X176557717Y-117553076D01*
X176410310Y-117651570D01*
X176246520Y-117719414D01*
X176188561Y-117730943D01*
X176072644Y-117754000D01*
X175895356Y-117754000D01*
X175779439Y-117730943D01*
X175721480Y-117719414D01*
X175557690Y-117651570D01*
X175410283Y-117553076D01*
X175284924Y-117427717D01*
X175186430Y-117280310D01*
X175118586Y-117116520D01*
X175084000Y-116942642D01*
X175084000Y-116765358D01*
X175118586Y-116591480D01*
X175186430Y-116427690D01*
X175284924Y-116280283D01*
X175410283Y-116154924D01*
X175557690Y-116056430D01*
X175721480Y-115988586D01*
X175784815Y-115975988D01*
X175895356Y-115954000D01*
X176072644Y-115954000D01*
X176183185Y-115975988D01*
G37*
G36*
X173643185Y-115975988D02*
G01*
X173706520Y-115988586D01*
X173870310Y-116056430D01*
X174017717Y-116154924D01*
X174143076Y-116280283D01*
X174241570Y-116427690D01*
X174309414Y-116591480D01*
X174344000Y-116765358D01*
X174344000Y-116942642D01*
X174309414Y-117116520D01*
X174241570Y-117280310D01*
X174143076Y-117427717D01*
X174017717Y-117553076D01*
X173870310Y-117651570D01*
X173706520Y-117719414D01*
X173648561Y-117730943D01*
X173532644Y-117754000D01*
X173355356Y-117754000D01*
X173239439Y-117730943D01*
X173181480Y-117719414D01*
X173017690Y-117651570D01*
X172870283Y-117553076D01*
X172744924Y-117427717D01*
X172646430Y-117280310D01*
X172578586Y-117116520D01*
X172544000Y-116942642D01*
X172544000Y-116765358D01*
X172578586Y-116591480D01*
X172646430Y-116427690D01*
X172744924Y-116280283D01*
X172870283Y-116154924D01*
X173017690Y-116056430D01*
X173181480Y-115988586D01*
X173244815Y-115975988D01*
X173355356Y-115954000D01*
X173532644Y-115954000D01*
X173643185Y-115975988D01*
G37*
G36*
X173648561Y-113437057D02*
G01*
X173706520Y-113448586D01*
X173870310Y-113516430D01*
X174017717Y-113614924D01*
X174143076Y-113740283D01*
X174241570Y-113887690D01*
X174309414Y-114051480D01*
X174344000Y-114225358D01*
X174344000Y-114402642D01*
X174309414Y-114576520D01*
X174241570Y-114740310D01*
X174143076Y-114887717D01*
X174017717Y-115013076D01*
X173870310Y-115111570D01*
X173706520Y-115179414D01*
X173648561Y-115190943D01*
X173532644Y-115214000D01*
X173355356Y-115214000D01*
X173239439Y-115190943D01*
X173181480Y-115179414D01*
X173017690Y-115111570D01*
X172870283Y-115013076D01*
X172744924Y-114887717D01*
X172646430Y-114740310D01*
X172578586Y-114576520D01*
X172544000Y-114402642D01*
X172544000Y-114225358D01*
X172578586Y-114051480D01*
X172646430Y-113887690D01*
X172744924Y-113740283D01*
X172870283Y-113614924D01*
X173017690Y-113516430D01*
X173181480Y-113448586D01*
X173239439Y-113437057D01*
X173355356Y-113414000D01*
X173532644Y-113414000D01*
X173648561Y-113437057D01*
G37*
G36*
X176188561Y-113437057D02*
G01*
X176246520Y-113448586D01*
X176410310Y-113516430D01*
X176557717Y-113614924D01*
X176683076Y-113740283D01*
X176781570Y-113887690D01*
X176849414Y-114051480D01*
X176884000Y-114225358D01*
X176884000Y-114402642D01*
X176849414Y-114576520D01*
X176781570Y-114740310D01*
X176683076Y-114887717D01*
X176557717Y-115013076D01*
X176410310Y-115111570D01*
X176246520Y-115179414D01*
X176188561Y-115190943D01*
X176072644Y-115214000D01*
X175895356Y-115214000D01*
X175779439Y-115190943D01*
X175721480Y-115179414D01*
X175557690Y-115111570D01*
X175410283Y-115013076D01*
X175284924Y-114887717D01*
X175186430Y-114740310D01*
X175118586Y-114576520D01*
X175084000Y-114402642D01*
X175084000Y-114225358D01*
X175118586Y-114051480D01*
X175186430Y-113887690D01*
X175284924Y-113740283D01*
X175410283Y-113614924D01*
X175557690Y-113516430D01*
X175721480Y-113448586D01*
X175779439Y-113437057D01*
X175895356Y-113414000D01*
X176072644Y-113414000D01*
X176188561Y-113437057D01*
G37*
G36*
X176188561Y-110897057D02*
G01*
X176246520Y-110908586D01*
X176410310Y-110976430D01*
X176557717Y-111074924D01*
X176683076Y-111200283D01*
X176683077Y-111200285D01*
X176781571Y-111347692D01*
X176849414Y-111511481D01*
X176884000Y-111685356D01*
X176884000Y-111862644D01*
X176875993Y-111902896D01*
X176849414Y-112036520D01*
X176781570Y-112200310D01*
X176683076Y-112347717D01*
X176557717Y-112473076D01*
X176410310Y-112571570D01*
X176246520Y-112639414D01*
X176188561Y-112650943D01*
X176072644Y-112674000D01*
X175895356Y-112674000D01*
X175779439Y-112650943D01*
X175721480Y-112639414D01*
X175557690Y-112571570D01*
X175410283Y-112473076D01*
X175284924Y-112347717D01*
X175186430Y-112200310D01*
X175118586Y-112036520D01*
X175092007Y-111902896D01*
X175084000Y-111862644D01*
X175084000Y-111685356D01*
X175118586Y-111511481D01*
X175186429Y-111347692D01*
X175284923Y-111200285D01*
X175284924Y-111200283D01*
X175410283Y-111074924D01*
X175557690Y-110976430D01*
X175721480Y-110908586D01*
X175779439Y-110897057D01*
X175895356Y-110874000D01*
X176072644Y-110874000D01*
X176188561Y-110897057D01*
G37*
G36*
X173648561Y-110897057D02*
G01*
X173706520Y-110908586D01*
X173870310Y-110976430D01*
X174017717Y-111074924D01*
X174143076Y-111200283D01*
X174143077Y-111200285D01*
X174241571Y-111347692D01*
X174309414Y-111511481D01*
X174344000Y-111685356D01*
X174344000Y-111862644D01*
X174335993Y-111902896D01*
X174309414Y-112036520D01*
X174241570Y-112200310D01*
X174143076Y-112347717D01*
X174017717Y-112473076D01*
X173870310Y-112571570D01*
X173706520Y-112639414D01*
X173648561Y-112650943D01*
X173532644Y-112674000D01*
X173355356Y-112674000D01*
X173239439Y-112650943D01*
X173181480Y-112639414D01*
X173017690Y-112571570D01*
X172870283Y-112473076D01*
X172744924Y-112347717D01*
X172646430Y-112200310D01*
X172578586Y-112036520D01*
X172552007Y-111902896D01*
X172544000Y-111862644D01*
X172544000Y-111685356D01*
X172578586Y-111511481D01*
X172646429Y-111347692D01*
X172744923Y-111200285D01*
X172744924Y-111200283D01*
X172870283Y-111074924D01*
X173017690Y-110976430D01*
X173181480Y-110908586D01*
X173239439Y-110897057D01*
X173355356Y-110874000D01*
X173532644Y-110874000D01*
X173648561Y-110897057D01*
G37*
G36*
X173648561Y-108357057D02*
G01*
X173706520Y-108368586D01*
X173870310Y-108436430D01*
X174017717Y-108534924D01*
X174143076Y-108660283D01*
X174241570Y-108807690D01*
X174309414Y-108971480D01*
X174344000Y-109145358D01*
X174344000Y-109322642D01*
X174309414Y-109496520D01*
X174241570Y-109660310D01*
X174143076Y-109807717D01*
X174017717Y-109933076D01*
X173870310Y-110031570D01*
X173706520Y-110099414D01*
X173648561Y-110110943D01*
X173532644Y-110134000D01*
X173355356Y-110134000D01*
X173239439Y-110110943D01*
X173181480Y-110099414D01*
X173017690Y-110031570D01*
X172870283Y-109933076D01*
X172744924Y-109807717D01*
X172646430Y-109660310D01*
X172578586Y-109496520D01*
X172544000Y-109322642D01*
X172544000Y-109145358D01*
X172578586Y-108971480D01*
X172646430Y-108807690D01*
X172744924Y-108660283D01*
X172870283Y-108534924D01*
X173017690Y-108436430D01*
X173181480Y-108368586D01*
X173239439Y-108357057D01*
X173355356Y-108334000D01*
X173532644Y-108334000D01*
X173648561Y-108357057D01*
G37*
G36*
X176188561Y-108357057D02*
G01*
X176246520Y-108368586D01*
X176410310Y-108436430D01*
X176557717Y-108534924D01*
X176683076Y-108660283D01*
X176781570Y-108807690D01*
X176849414Y-108971480D01*
X176884000Y-109145358D01*
X176884000Y-109322642D01*
X176849414Y-109496520D01*
X176781570Y-109660310D01*
X176683076Y-109807717D01*
X176557717Y-109933076D01*
X176410310Y-110031570D01*
X176246520Y-110099414D01*
X176188561Y-110110943D01*
X176072644Y-110134000D01*
X175895356Y-110134000D01*
X175779439Y-110110943D01*
X175721480Y-110099414D01*
X175557690Y-110031570D01*
X175410283Y-109933076D01*
X175284924Y-109807717D01*
X175186430Y-109660310D01*
X175118586Y-109496520D01*
X175084000Y-109322642D01*
X175084000Y-109145358D01*
X175118586Y-108971480D01*
X175186430Y-108807690D01*
X175284924Y-108660283D01*
X175410283Y-108534924D01*
X175557690Y-108436430D01*
X175721480Y-108368586D01*
X175779439Y-108357057D01*
X175895356Y-108334000D01*
X176072644Y-108334000D01*
X176188561Y-108357057D01*
G37*
G36*
X173648561Y-105817057D02*
G01*
X173706520Y-105828586D01*
X173870310Y-105896430D01*
X174017717Y-105994924D01*
X174143076Y-106120283D01*
X174241570Y-106267690D01*
X174309414Y-106431480D01*
X174344000Y-106605358D01*
X174344000Y-106782642D01*
X174309414Y-106956520D01*
X174241570Y-107120310D01*
X174143076Y-107267717D01*
X174017717Y-107393076D01*
X173870310Y-107491570D01*
X173706520Y-107559414D01*
X173648561Y-107570943D01*
X173532644Y-107594000D01*
X173355356Y-107594000D01*
X173239439Y-107570943D01*
X173181480Y-107559414D01*
X173017690Y-107491570D01*
X172870283Y-107393076D01*
X172744924Y-107267717D01*
X172646430Y-107120310D01*
X172578586Y-106956520D01*
X172544000Y-106782642D01*
X172544000Y-106605358D01*
X172578586Y-106431480D01*
X172646430Y-106267690D01*
X172744924Y-106120283D01*
X172870283Y-105994924D01*
X173017690Y-105896430D01*
X173181480Y-105828586D01*
X173239439Y-105817057D01*
X173355356Y-105794000D01*
X173532644Y-105794000D01*
X173648561Y-105817057D01*
G37*
G36*
X176188561Y-105817057D02*
G01*
X176246520Y-105828586D01*
X176410310Y-105896430D01*
X176557717Y-105994924D01*
X176683076Y-106120283D01*
X176781570Y-106267690D01*
X176849414Y-106431480D01*
X176884000Y-106605358D01*
X176884000Y-106782642D01*
X176849414Y-106956520D01*
X176781570Y-107120310D01*
X176683076Y-107267717D01*
X176557717Y-107393076D01*
X176410310Y-107491570D01*
X176246520Y-107559414D01*
X176188561Y-107570943D01*
X176072644Y-107594000D01*
X175895356Y-107594000D01*
X175779439Y-107570943D01*
X175721480Y-107559414D01*
X175557690Y-107491570D01*
X175410283Y-107393076D01*
X175284924Y-107267717D01*
X175186430Y-107120310D01*
X175118586Y-106956520D01*
X175084000Y-106782642D01*
X175084000Y-106605358D01*
X175118586Y-106431480D01*
X175186430Y-106267690D01*
X175284924Y-106120283D01*
X175410283Y-105994924D01*
X175557690Y-105896430D01*
X175721480Y-105828586D01*
X175779439Y-105817057D01*
X175895356Y-105794000D01*
X176072644Y-105794000D01*
X176188561Y-105817057D01*
G37*
G36*
X153448879Y-106107440D02*
G01*
X153489870Y-106119874D01*
X153527645Y-106140065D01*
X153560758Y-106167242D01*
X153587935Y-106200355D01*
X153608126Y-106238130D01*
X153620560Y-106279121D01*
X153625000Y-106324204D01*
X153625000Y-106931796D01*
X153620560Y-106976879D01*
X153608126Y-107017870D01*
X153587935Y-107055645D01*
X153560758Y-107088758D01*
X153527645Y-107115935D01*
X153489870Y-107136126D01*
X153448879Y-107148560D01*
X153403796Y-107153000D01*
X152871204Y-107153000D01*
X152826121Y-107148560D01*
X152785130Y-107136126D01*
X152747355Y-107115935D01*
X152714242Y-107088758D01*
X152687065Y-107055645D01*
X152666874Y-107017870D01*
X152654440Y-106976879D01*
X152650000Y-106931796D01*
X152650000Y-106324204D01*
X152654440Y-106279121D01*
X152666874Y-106238130D01*
X152687065Y-106200355D01*
X152714242Y-106167242D01*
X152747355Y-106140065D01*
X152785130Y-106119874D01*
X152826121Y-106107440D01*
X152871204Y-106103000D01*
X153403796Y-106103000D01*
X153448879Y-106107440D01*
G37*
G36*
X151873879Y-106107440D02*
G01*
X151914870Y-106119874D01*
X151952645Y-106140065D01*
X151985758Y-106167242D01*
X152012935Y-106200355D01*
X152033126Y-106238130D01*
X152045560Y-106279121D01*
X152050000Y-106324204D01*
X152050000Y-106931796D01*
X152045560Y-106976879D01*
X152033126Y-107017870D01*
X152012935Y-107055645D01*
X151985758Y-107088758D01*
X151952645Y-107115935D01*
X151914870Y-107136126D01*
X151873879Y-107148560D01*
X151828796Y-107153000D01*
X151296204Y-107153000D01*
X151251121Y-107148560D01*
X151210130Y-107136126D01*
X151172355Y-107115935D01*
X151139242Y-107088758D01*
X151112065Y-107055645D01*
X151091874Y-107017870D01*
X151079440Y-106976879D01*
X151075000Y-106931796D01*
X151075000Y-106324204D01*
X151079440Y-106279121D01*
X151091874Y-106238130D01*
X151112065Y-106200355D01*
X151139242Y-106167242D01*
X151172355Y-106140065D01*
X151210130Y-106119874D01*
X151251121Y-106107440D01*
X151296204Y-106103000D01*
X151828796Y-106103000D01*
X151873879Y-106107440D01*
G37*
G36*
X150048879Y-105307440D02*
G01*
X150089870Y-105319874D01*
X150127645Y-105340065D01*
X150160758Y-105367242D01*
X150187935Y-105400355D01*
X150208126Y-105438130D01*
X150220560Y-105479121D01*
X150225000Y-105524204D01*
X150225000Y-106131796D01*
X150220560Y-106176879D01*
X150208126Y-106217870D01*
X150187935Y-106255645D01*
X150160758Y-106288758D01*
X150127645Y-106315935D01*
X150089870Y-106336126D01*
X150048879Y-106348560D01*
X150003796Y-106353000D01*
X149471204Y-106353000D01*
X149426121Y-106348560D01*
X149385130Y-106336126D01*
X149347355Y-106315935D01*
X149314242Y-106288758D01*
X149287065Y-106255645D01*
X149266874Y-106217870D01*
X149254440Y-106176879D01*
X149250000Y-106131796D01*
X149250000Y-105524204D01*
X149254440Y-105479121D01*
X149266874Y-105438130D01*
X149287065Y-105400355D01*
X149314242Y-105367242D01*
X149347355Y-105340065D01*
X149385130Y-105319874D01*
X149426121Y-105307440D01*
X149471204Y-105303000D01*
X150003796Y-105303000D01*
X150048879Y-105307440D01*
G37*
G36*
X148473879Y-105307440D02*
G01*
X148514870Y-105319874D01*
X148552645Y-105340065D01*
X148585758Y-105367242D01*
X148612935Y-105400355D01*
X148633126Y-105438130D01*
X148645560Y-105479121D01*
X148650000Y-105524204D01*
X148650000Y-106131796D01*
X148645560Y-106176879D01*
X148633126Y-106217870D01*
X148612935Y-106255645D01*
X148585758Y-106288758D01*
X148552645Y-106315935D01*
X148514870Y-106336126D01*
X148473879Y-106348560D01*
X148428796Y-106353000D01*
X147896204Y-106353000D01*
X147851121Y-106348560D01*
X147810130Y-106336126D01*
X147772355Y-106315935D01*
X147739242Y-106288758D01*
X147712065Y-106255645D01*
X147691874Y-106217870D01*
X147679440Y-106176879D01*
X147675000Y-106131796D01*
X147675000Y-105524204D01*
X147679440Y-105479121D01*
X147691874Y-105438130D01*
X147712065Y-105400355D01*
X147739242Y-105367242D01*
X147772355Y-105340065D01*
X147810130Y-105319874D01*
X147851121Y-105307440D01*
X147896204Y-105303000D01*
X148428796Y-105303000D01*
X148473879Y-105307440D01*
G37*
G36*
X153448879Y-104607440D02*
G01*
X153489870Y-104619874D01*
X153527645Y-104640065D01*
X153560758Y-104667242D01*
X153587935Y-104700355D01*
X153608126Y-104738130D01*
X153620560Y-104779121D01*
X153625000Y-104824204D01*
X153625000Y-105431796D01*
X153620560Y-105476879D01*
X153608126Y-105517870D01*
X153587935Y-105555645D01*
X153560758Y-105588758D01*
X153527645Y-105615935D01*
X153489870Y-105636126D01*
X153448879Y-105648560D01*
X153403796Y-105653000D01*
X152871204Y-105653000D01*
X152826121Y-105648560D01*
X152785130Y-105636126D01*
X152747355Y-105615935D01*
X152714242Y-105588758D01*
X152687065Y-105555645D01*
X152666874Y-105517870D01*
X152654440Y-105476879D01*
X152650000Y-105431796D01*
X152650000Y-104824204D01*
X152654440Y-104779121D01*
X152666874Y-104738130D01*
X152687065Y-104700355D01*
X152714242Y-104667242D01*
X152747355Y-104640065D01*
X152785130Y-104619874D01*
X152826121Y-104607440D01*
X152871204Y-104603000D01*
X153403796Y-104603000D01*
X153448879Y-104607440D01*
G37*
G36*
X151873879Y-104607440D02*
G01*
X151914870Y-104619874D01*
X151952645Y-104640065D01*
X151985758Y-104667242D01*
X152012935Y-104700355D01*
X152033126Y-104738130D01*
X152045560Y-104779121D01*
X152050000Y-104824204D01*
X152050000Y-105431796D01*
X152045560Y-105476879D01*
X152033126Y-105517870D01*
X152012935Y-105555645D01*
X151985758Y-105588758D01*
X151952645Y-105615935D01*
X151914870Y-105636126D01*
X151873879Y-105648560D01*
X151828796Y-105653000D01*
X151296204Y-105653000D01*
X151251121Y-105648560D01*
X151210130Y-105636126D01*
X151172355Y-105615935D01*
X151139242Y-105588758D01*
X151112065Y-105555645D01*
X151091874Y-105517870D01*
X151079440Y-105476879D01*
X151075000Y-105431796D01*
X151075000Y-104824204D01*
X151079440Y-104779121D01*
X151091874Y-104738130D01*
X151112065Y-104700355D01*
X151139242Y-104667242D01*
X151172355Y-104640065D01*
X151210130Y-104619874D01*
X151251121Y-104607440D01*
X151296204Y-104603000D01*
X151828796Y-104603000D01*
X151873879Y-104607440D01*
G37*
G36*
X146198879Y-104157440D02*
G01*
X146239870Y-104169874D01*
X146277645Y-104190065D01*
X146310758Y-104217242D01*
X146337935Y-104250355D01*
X146358126Y-104288130D01*
X146370560Y-104329121D01*
X146375000Y-104374204D01*
X146375000Y-104981796D01*
X146370560Y-105026879D01*
X146358126Y-105067870D01*
X146337935Y-105105645D01*
X146310758Y-105138758D01*
X146277645Y-105165935D01*
X146239870Y-105186126D01*
X146198879Y-105198560D01*
X146153796Y-105203000D01*
X145621204Y-105203000D01*
X145576121Y-105198560D01*
X145535130Y-105186126D01*
X145497355Y-105165935D01*
X145464242Y-105138758D01*
X145437065Y-105105645D01*
X145416874Y-105067870D01*
X145404440Y-105026879D01*
X145400000Y-104981796D01*
X145400000Y-104374204D01*
X145404440Y-104329121D01*
X145416874Y-104288130D01*
X145437065Y-104250355D01*
X145464242Y-104217242D01*
X145497355Y-104190065D01*
X145535130Y-104169874D01*
X145576121Y-104157440D01*
X145621204Y-104153000D01*
X146153796Y-104153000D01*
X146198879Y-104157440D01*
G37*
G36*
X144623879Y-104157440D02*
G01*
X144664870Y-104169874D01*
X144702645Y-104190065D01*
X144735758Y-104217242D01*
X144762935Y-104250355D01*
X144783126Y-104288130D01*
X144795560Y-104329121D01*
X144800000Y-104374204D01*
X144800000Y-104981796D01*
X144795560Y-105026879D01*
X144783126Y-105067870D01*
X144762935Y-105105645D01*
X144735758Y-105138758D01*
X144702645Y-105165935D01*
X144664870Y-105186126D01*
X144623879Y-105198560D01*
X144578796Y-105203000D01*
X144046204Y-105203000D01*
X144001121Y-105198560D01*
X143960130Y-105186126D01*
X143922355Y-105165935D01*
X143889242Y-105138758D01*
X143862065Y-105105645D01*
X143841874Y-105067870D01*
X143829440Y-105026879D01*
X143825000Y-104981796D01*
X143825000Y-104374204D01*
X143829440Y-104329121D01*
X143841874Y-104288130D01*
X143862065Y-104250355D01*
X143889242Y-104217242D01*
X143922355Y-104190065D01*
X143960130Y-104169874D01*
X144001121Y-104157440D01*
X144046204Y-104153000D01*
X144578796Y-104153000D01*
X144623879Y-104157440D01*
G37*
G36*
X159598879Y-104057440D02*
G01*
X159639870Y-104069874D01*
X159677645Y-104090065D01*
X159710758Y-104117242D01*
X159737935Y-104150355D01*
X159758126Y-104188130D01*
X159770560Y-104229121D01*
X159775000Y-104274204D01*
X159775000Y-104881796D01*
X159770560Y-104926879D01*
X159758126Y-104967870D01*
X159737935Y-105005645D01*
X159710758Y-105038758D01*
X159677645Y-105065935D01*
X159639870Y-105086126D01*
X159598879Y-105098560D01*
X159553796Y-105103000D01*
X159021204Y-105103000D01*
X158976121Y-105098560D01*
X158935130Y-105086126D01*
X158897355Y-105065935D01*
X158864242Y-105038758D01*
X158837065Y-105005645D01*
X158816874Y-104967870D01*
X158804440Y-104926879D01*
X158800000Y-104881796D01*
X158800000Y-104274204D01*
X158804440Y-104229121D01*
X158816874Y-104188130D01*
X158837065Y-104150355D01*
X158864242Y-104117242D01*
X158897355Y-104090065D01*
X158935130Y-104069874D01*
X158976121Y-104057440D01*
X159021204Y-104053000D01*
X159553796Y-104053000D01*
X159598879Y-104057440D01*
G37*
G36*
X163848879Y-104057440D02*
G01*
X163889870Y-104069874D01*
X163927645Y-104090065D01*
X163960758Y-104117242D01*
X163987935Y-104150355D01*
X164008126Y-104188130D01*
X164020560Y-104229121D01*
X164025000Y-104274204D01*
X164025000Y-104881796D01*
X164020560Y-104926879D01*
X164008126Y-104967870D01*
X163987935Y-105005645D01*
X163960758Y-105038758D01*
X163927645Y-105065935D01*
X163889870Y-105086126D01*
X163848879Y-105098560D01*
X163803796Y-105103000D01*
X163271204Y-105103000D01*
X163226121Y-105098560D01*
X163185130Y-105086126D01*
X163147355Y-105065935D01*
X163114242Y-105038758D01*
X163087065Y-105005645D01*
X163066874Y-104967870D01*
X163054440Y-104926879D01*
X163050000Y-104881796D01*
X163050000Y-104274204D01*
X163054440Y-104229121D01*
X163066874Y-104188130D01*
X163087065Y-104150355D01*
X163114242Y-104117242D01*
X163147355Y-104090065D01*
X163185130Y-104069874D01*
X163226121Y-104057440D01*
X163271204Y-104053000D01*
X163803796Y-104053000D01*
X163848879Y-104057440D01*
G37*
G36*
X162273879Y-104057440D02*
G01*
X162314870Y-104069874D01*
X162352645Y-104090065D01*
X162385758Y-104117242D01*
X162412935Y-104150355D01*
X162433126Y-104188130D01*
X162445560Y-104229121D01*
X162450000Y-104274204D01*
X162450000Y-104881796D01*
X162445560Y-104926879D01*
X162433126Y-104967870D01*
X162412935Y-105005645D01*
X162385758Y-105038758D01*
X162352645Y-105065935D01*
X162314870Y-105086126D01*
X162273879Y-105098560D01*
X162228796Y-105103000D01*
X161696204Y-105103000D01*
X161651121Y-105098560D01*
X161610130Y-105086126D01*
X161572355Y-105065935D01*
X161539242Y-105038758D01*
X161512065Y-105005645D01*
X161491874Y-104967870D01*
X161479440Y-104926879D01*
X161475000Y-104881796D01*
X161475000Y-104274204D01*
X161479440Y-104229121D01*
X161491874Y-104188130D01*
X161512065Y-104150355D01*
X161539242Y-104117242D01*
X161572355Y-104090065D01*
X161610130Y-104069874D01*
X161651121Y-104057440D01*
X161696204Y-104053000D01*
X162228796Y-104053000D01*
X162273879Y-104057440D01*
G37*
G36*
X158023879Y-104057440D02*
G01*
X158064870Y-104069874D01*
X158102645Y-104090065D01*
X158135758Y-104117242D01*
X158162935Y-104150355D01*
X158183126Y-104188130D01*
X158195560Y-104229121D01*
X158200000Y-104274204D01*
X158200000Y-104881796D01*
X158195560Y-104926879D01*
X158183126Y-104967870D01*
X158162935Y-105005645D01*
X158135758Y-105038758D01*
X158102645Y-105065935D01*
X158064870Y-105086126D01*
X158023879Y-105098560D01*
X157978796Y-105103000D01*
X157446204Y-105103000D01*
X157401121Y-105098560D01*
X157360130Y-105086126D01*
X157322355Y-105065935D01*
X157289242Y-105038758D01*
X157262065Y-105005645D01*
X157241874Y-104967870D01*
X157229440Y-104926879D01*
X157225000Y-104881796D01*
X157225000Y-104274204D01*
X157229440Y-104229121D01*
X157241874Y-104188130D01*
X157262065Y-104150355D01*
X157289242Y-104117242D01*
X157322355Y-104090065D01*
X157360130Y-104069874D01*
X157401121Y-104057440D01*
X157446204Y-104053000D01*
X157978796Y-104053000D01*
X158023879Y-104057440D01*
G37*
G36*
X176188561Y-103277057D02*
G01*
X176246520Y-103288586D01*
X176362335Y-103336558D01*
X176386941Y-103346750D01*
X176410310Y-103356430D01*
X176557717Y-103454924D01*
X176683076Y-103580283D01*
X176781570Y-103727690D01*
X176849414Y-103891480D01*
X176853362Y-103911330D01*
X176884000Y-104065356D01*
X176884000Y-104242644D01*
X176862805Y-104349197D01*
X176849414Y-104416520D01*
X176781570Y-104580310D01*
X176683076Y-104727717D01*
X176557717Y-104853076D01*
X176410310Y-104951570D01*
X176246520Y-105019414D01*
X176208990Y-105026879D01*
X176072644Y-105054000D01*
X175895356Y-105054000D01*
X175759010Y-105026879D01*
X175721480Y-105019414D01*
X175557690Y-104951570D01*
X175410283Y-104853076D01*
X175284924Y-104727717D01*
X175186430Y-104580310D01*
X175118586Y-104416520D01*
X175105195Y-104349197D01*
X175084000Y-104242644D01*
X175084000Y-104065356D01*
X175114638Y-103911330D01*
X175118586Y-103891480D01*
X175186430Y-103727690D01*
X175284924Y-103580283D01*
X175410283Y-103454924D01*
X175557690Y-103356430D01*
X175581060Y-103346750D01*
X175605665Y-103336558D01*
X175721480Y-103288586D01*
X175779439Y-103277057D01*
X175895356Y-103254000D01*
X176072644Y-103254000D01*
X176188561Y-103277057D01*
G37*
G36*
X173648561Y-103277057D02*
G01*
X173706520Y-103288586D01*
X173822335Y-103336558D01*
X173846941Y-103346750D01*
X173870310Y-103356430D01*
X174017717Y-103454924D01*
X174143076Y-103580283D01*
X174241570Y-103727690D01*
X174309414Y-103891480D01*
X174313362Y-103911330D01*
X174344000Y-104065356D01*
X174344000Y-104242644D01*
X174322805Y-104349197D01*
X174309414Y-104416520D01*
X174241570Y-104580310D01*
X174143076Y-104727717D01*
X174017717Y-104853076D01*
X173870310Y-104951570D01*
X173706520Y-105019414D01*
X173668990Y-105026879D01*
X173532644Y-105054000D01*
X173355356Y-105054000D01*
X173219010Y-105026879D01*
X173181480Y-105019414D01*
X173017690Y-104951570D01*
X172870283Y-104853076D01*
X172744924Y-104727717D01*
X172646430Y-104580310D01*
X172578586Y-104416520D01*
X172565195Y-104349197D01*
X172544000Y-104242644D01*
X172544000Y-104065356D01*
X172574638Y-103911330D01*
X172578586Y-103891480D01*
X172646430Y-103727690D01*
X172744924Y-103580283D01*
X172870283Y-103454924D01*
X173017690Y-103356430D01*
X173041060Y-103346750D01*
X173065665Y-103336558D01*
X173181480Y-103288586D01*
X173239439Y-103277057D01*
X173355356Y-103254000D01*
X173532644Y-103254000D01*
X173648561Y-103277057D01*
G37*
G36*
X150048879Y-103807440D02*
G01*
X150089870Y-103819874D01*
X150127645Y-103840065D01*
X150160758Y-103867242D01*
X150187935Y-103900355D01*
X150208126Y-103938130D01*
X150220560Y-103979121D01*
X150225000Y-104024204D01*
X150225000Y-104631796D01*
X150220560Y-104676879D01*
X150208126Y-104717870D01*
X150187935Y-104755645D01*
X150160758Y-104788758D01*
X150127645Y-104815935D01*
X150089870Y-104836126D01*
X150048879Y-104848560D01*
X150003796Y-104853000D01*
X149471204Y-104853000D01*
X149426121Y-104848560D01*
X149385130Y-104836126D01*
X149347355Y-104815935D01*
X149314242Y-104788758D01*
X149287065Y-104755645D01*
X149266874Y-104717870D01*
X149254440Y-104676879D01*
X149250000Y-104631796D01*
X149250000Y-104024204D01*
X149254440Y-103979121D01*
X149266874Y-103938130D01*
X149287065Y-103900355D01*
X149314242Y-103867242D01*
X149347355Y-103840065D01*
X149385130Y-103819874D01*
X149426121Y-103807440D01*
X149471204Y-103803000D01*
X150003796Y-103803000D01*
X150048879Y-103807440D01*
G37*
G36*
X148473879Y-103807440D02*
G01*
X148514870Y-103819874D01*
X148552645Y-103840065D01*
X148585758Y-103867242D01*
X148612935Y-103900355D01*
X148633126Y-103938130D01*
X148645560Y-103979121D01*
X148650000Y-104024204D01*
X148650000Y-104631796D01*
X148645560Y-104676879D01*
X148633126Y-104717870D01*
X148612935Y-104755645D01*
X148585758Y-104788758D01*
X148552645Y-104815935D01*
X148514870Y-104836126D01*
X148473879Y-104848560D01*
X148428796Y-104853000D01*
X147896204Y-104853000D01*
X147851121Y-104848560D01*
X147810130Y-104836126D01*
X147772355Y-104815935D01*
X147739242Y-104788758D01*
X147712065Y-104755645D01*
X147691874Y-104717870D01*
X147679440Y-104676879D01*
X147675000Y-104631796D01*
X147675000Y-104024204D01*
X147679440Y-103979121D01*
X147691874Y-103938130D01*
X147712065Y-103900355D01*
X147739242Y-103867242D01*
X147772355Y-103840065D01*
X147810130Y-103819874D01*
X147851121Y-103807440D01*
X147896204Y-103803000D01*
X148428796Y-103803000D01*
X148473879Y-103807440D01*
G37*
G36*
X153448879Y-103107440D02*
G01*
X153489870Y-103119874D01*
X153527645Y-103140065D01*
X153560758Y-103167242D01*
X153587935Y-103200355D01*
X153608126Y-103238130D01*
X153620560Y-103279121D01*
X153625000Y-103324204D01*
X153625000Y-103931796D01*
X153620560Y-103976879D01*
X153608126Y-104017870D01*
X153587935Y-104055645D01*
X153560758Y-104088758D01*
X153527645Y-104115935D01*
X153489870Y-104136126D01*
X153448879Y-104148560D01*
X153403796Y-104153000D01*
X152871204Y-104153000D01*
X152826121Y-104148560D01*
X152785130Y-104136126D01*
X152747355Y-104115935D01*
X152714242Y-104088758D01*
X152687065Y-104055645D01*
X152666874Y-104017870D01*
X152654440Y-103976879D01*
X152650000Y-103931796D01*
X152650000Y-103324204D01*
X152654440Y-103279121D01*
X152666874Y-103238130D01*
X152687065Y-103200355D01*
X152714242Y-103167242D01*
X152747355Y-103140065D01*
X152785130Y-103119874D01*
X152826121Y-103107440D01*
X152871204Y-103103000D01*
X153403796Y-103103000D01*
X153448879Y-103107440D01*
G37*
G36*
X151873879Y-103107440D02*
G01*
X151914870Y-103119874D01*
X151952645Y-103140065D01*
X151985758Y-103167242D01*
X152012935Y-103200355D01*
X152033126Y-103238130D01*
X152045560Y-103279121D01*
X152050000Y-103324204D01*
X152050000Y-103931796D01*
X152045560Y-103976879D01*
X152033126Y-104017870D01*
X152012935Y-104055645D01*
X151985758Y-104088758D01*
X151952645Y-104115935D01*
X151914870Y-104136126D01*
X151873879Y-104148560D01*
X151828796Y-104153000D01*
X151296204Y-104153000D01*
X151251121Y-104148560D01*
X151210130Y-104136126D01*
X151172355Y-104115935D01*
X151139242Y-104088758D01*
X151112065Y-104055645D01*
X151091874Y-104017870D01*
X151079440Y-103976879D01*
X151075000Y-103931796D01*
X151075000Y-103324204D01*
X151079440Y-103279121D01*
X151091874Y-103238130D01*
X151112065Y-103200355D01*
X151139242Y-103167242D01*
X151172355Y-103140065D01*
X151210130Y-103119874D01*
X151251121Y-103107440D01*
X151296204Y-103103000D01*
X151828796Y-103103000D01*
X151873879Y-103107440D01*
G37*
G36*
X144623879Y-102657440D02*
G01*
X144664870Y-102669874D01*
X144702645Y-102690065D01*
X144735758Y-102717242D01*
X144762935Y-102750355D01*
X144783126Y-102788130D01*
X144795560Y-102829121D01*
X144800000Y-102874204D01*
X144800000Y-103481796D01*
X144795560Y-103526879D01*
X144783126Y-103567870D01*
X144762935Y-103605645D01*
X144735758Y-103638758D01*
X144702645Y-103665935D01*
X144664870Y-103686126D01*
X144623879Y-103698560D01*
X144578796Y-103703000D01*
X144046204Y-103703000D01*
X144001121Y-103698560D01*
X143960130Y-103686126D01*
X143922355Y-103665935D01*
X143889242Y-103638758D01*
X143862065Y-103605645D01*
X143841874Y-103567870D01*
X143829440Y-103526879D01*
X143825000Y-103481796D01*
X143825000Y-102874204D01*
X143829440Y-102829121D01*
X143841874Y-102788130D01*
X143862065Y-102750355D01*
X143889242Y-102717242D01*
X143922355Y-102690065D01*
X143960130Y-102669874D01*
X144001121Y-102657440D01*
X144046204Y-102653000D01*
X144578796Y-102653000D01*
X144623879Y-102657440D01*
G37*
G36*
X146198879Y-102657440D02*
G01*
X146239870Y-102669874D01*
X146277645Y-102690065D01*
X146310758Y-102717242D01*
X146337935Y-102750355D01*
X146358126Y-102788130D01*
X146370560Y-102829121D01*
X146375000Y-102874204D01*
X146375000Y-103481796D01*
X146370560Y-103526879D01*
X146358126Y-103567870D01*
X146337935Y-103605645D01*
X146310758Y-103638758D01*
X146277645Y-103665935D01*
X146239870Y-103686126D01*
X146198879Y-103698560D01*
X146153796Y-103703000D01*
X145621204Y-103703000D01*
X145576121Y-103698560D01*
X145535130Y-103686126D01*
X145497355Y-103665935D01*
X145464242Y-103638758D01*
X145437065Y-103605645D01*
X145416874Y-103567870D01*
X145404440Y-103526879D01*
X145400000Y-103481796D01*
X145400000Y-102874204D01*
X145404440Y-102829121D01*
X145416874Y-102788130D01*
X145437065Y-102750355D01*
X145464242Y-102717242D01*
X145497355Y-102690065D01*
X145535130Y-102669874D01*
X145576121Y-102657440D01*
X145621204Y-102653000D01*
X146153796Y-102653000D01*
X146198879Y-102657440D01*
G37*
G36*
X163889584Y-101879678D02*
G01*
X163903611Y-101883933D01*
X163916532Y-101890840D01*
X163927862Y-101900138D01*
X163937160Y-101911468D01*
X163944067Y-101924389D01*
X163948322Y-101938416D01*
X163950000Y-101955454D01*
X163950000Y-103450546D01*
X163948322Y-103467584D01*
X163944067Y-103481611D01*
X163937160Y-103494532D01*
X163927862Y-103505862D01*
X163916532Y-103515160D01*
X163903611Y-103522067D01*
X163889584Y-103526322D01*
X163872546Y-103528000D01*
X163627454Y-103528000D01*
X163610416Y-103526322D01*
X163596389Y-103522067D01*
X163583468Y-103515160D01*
X163572138Y-103505862D01*
X163562840Y-103494532D01*
X163555933Y-103481611D01*
X163551678Y-103467584D01*
X163550000Y-103450546D01*
X163550000Y-101955454D01*
X163551678Y-101938416D01*
X163555933Y-101924389D01*
X163562840Y-101911468D01*
X163572138Y-101900138D01*
X163583468Y-101890840D01*
X163596389Y-101883933D01*
X163610416Y-101879678D01*
X163627454Y-101878000D01*
X163872546Y-101878000D01*
X163889584Y-101879678D01*
G37*
G36*
X163389584Y-101879678D02*
G01*
X163403611Y-101883933D01*
X163416532Y-101890840D01*
X163427862Y-101900138D01*
X163437160Y-101911468D01*
X163444067Y-101924389D01*
X163448322Y-101938416D01*
X163450000Y-101955454D01*
X163450000Y-103450546D01*
X163448322Y-103467584D01*
X163444067Y-103481611D01*
X163437160Y-103494532D01*
X163427862Y-103505862D01*
X163416532Y-103515160D01*
X163403611Y-103522067D01*
X163389584Y-103526322D01*
X163372546Y-103528000D01*
X163127454Y-103528000D01*
X163110416Y-103526322D01*
X163096389Y-103522067D01*
X163083468Y-103515160D01*
X163072138Y-103505862D01*
X163062840Y-103494532D01*
X163055933Y-103481611D01*
X163051678Y-103467584D01*
X163050000Y-103450546D01*
X163050000Y-101955454D01*
X163051678Y-101938416D01*
X163055933Y-101924389D01*
X163062840Y-101911468D01*
X163072138Y-101900138D01*
X163083468Y-101890840D01*
X163096389Y-101883933D01*
X163110416Y-101879678D01*
X163127454Y-101878000D01*
X163372546Y-101878000D01*
X163389584Y-101879678D01*
G37*
G36*
X162889584Y-101879678D02*
G01*
X162903611Y-101883933D01*
X162916532Y-101890840D01*
X162927862Y-101900138D01*
X162937160Y-101911468D01*
X162944067Y-101924389D01*
X162948322Y-101938416D01*
X162950000Y-101955454D01*
X162950000Y-103450546D01*
X162948322Y-103467584D01*
X162944067Y-103481611D01*
X162937160Y-103494532D01*
X162927862Y-103505862D01*
X162916532Y-103515160D01*
X162903611Y-103522067D01*
X162889584Y-103526322D01*
X162872546Y-103528000D01*
X162627454Y-103528000D01*
X162610416Y-103526322D01*
X162596389Y-103522067D01*
X162583468Y-103515160D01*
X162572138Y-103505862D01*
X162562840Y-103494532D01*
X162555933Y-103481611D01*
X162551678Y-103467584D01*
X162550000Y-103450546D01*
X162550000Y-101955454D01*
X162551678Y-101938416D01*
X162555933Y-101924389D01*
X162562840Y-101911468D01*
X162572138Y-101900138D01*
X162583468Y-101890840D01*
X162596389Y-101883933D01*
X162610416Y-101879678D01*
X162627454Y-101878000D01*
X162872546Y-101878000D01*
X162889584Y-101879678D01*
G37*
G36*
X162389584Y-101879678D02*
G01*
X162403611Y-101883933D01*
X162416532Y-101890840D01*
X162427862Y-101900138D01*
X162437160Y-101911468D01*
X162444067Y-101924389D01*
X162448322Y-101938416D01*
X162450000Y-101955454D01*
X162450000Y-103450546D01*
X162448322Y-103467584D01*
X162444067Y-103481611D01*
X162437160Y-103494532D01*
X162427862Y-103505862D01*
X162416532Y-103515160D01*
X162403611Y-103522067D01*
X162389584Y-103526322D01*
X162372546Y-103528000D01*
X162127454Y-103528000D01*
X162110416Y-103526322D01*
X162096389Y-103522067D01*
X162083468Y-103515160D01*
X162072138Y-103505862D01*
X162062840Y-103494532D01*
X162055933Y-103481611D01*
X162051678Y-103467584D01*
X162050000Y-103450546D01*
X162050000Y-101955454D01*
X162051678Y-101938416D01*
X162055933Y-101924389D01*
X162062840Y-101911468D01*
X162072138Y-101900138D01*
X162083468Y-101890840D01*
X162096389Y-101883933D01*
X162110416Y-101879678D01*
X162127454Y-101878000D01*
X162372546Y-101878000D01*
X162389584Y-101879678D01*
G37*
G36*
X161889584Y-101879678D02*
G01*
X161903611Y-101883933D01*
X161916532Y-101890840D01*
X161927862Y-101900138D01*
X161937160Y-101911468D01*
X161944067Y-101924389D01*
X161948322Y-101938416D01*
X161950000Y-101955454D01*
X161950000Y-103450546D01*
X161948322Y-103467584D01*
X161944067Y-103481611D01*
X161937160Y-103494532D01*
X161927862Y-103505862D01*
X161916532Y-103515160D01*
X161903611Y-103522067D01*
X161889584Y-103526322D01*
X161872546Y-103528000D01*
X161627454Y-103528000D01*
X161610416Y-103526322D01*
X161596389Y-103522067D01*
X161583468Y-103515160D01*
X161572138Y-103505862D01*
X161562840Y-103494532D01*
X161555933Y-103481611D01*
X161551678Y-103467584D01*
X161550000Y-103450546D01*
X161550000Y-101955454D01*
X161551678Y-101938416D01*
X161555933Y-101924389D01*
X161562840Y-101911468D01*
X161572138Y-101900138D01*
X161583468Y-101890840D01*
X161596389Y-101883933D01*
X161610416Y-101879678D01*
X161627454Y-101878000D01*
X161872546Y-101878000D01*
X161889584Y-101879678D01*
G37*
G36*
X161389584Y-101879678D02*
G01*
X161403611Y-101883933D01*
X161416532Y-101890840D01*
X161427862Y-101900138D01*
X161437160Y-101911468D01*
X161444067Y-101924389D01*
X161448322Y-101938416D01*
X161450000Y-101955454D01*
X161450000Y-103450546D01*
X161448322Y-103467584D01*
X161444067Y-103481611D01*
X161437160Y-103494532D01*
X161427862Y-103505862D01*
X161416532Y-103515160D01*
X161403611Y-103522067D01*
X161389584Y-103526322D01*
X161372546Y-103528000D01*
X161127454Y-103528000D01*
X161110416Y-103526322D01*
X161096389Y-103522067D01*
X161083468Y-103515160D01*
X161072138Y-103505862D01*
X161062840Y-103494532D01*
X161055933Y-103481611D01*
X161051678Y-103467584D01*
X161050000Y-103450546D01*
X161050000Y-101955454D01*
X161051678Y-101938416D01*
X161055933Y-101924389D01*
X161062840Y-101911468D01*
X161072138Y-101900138D01*
X161083468Y-101890840D01*
X161096389Y-101883933D01*
X161110416Y-101879678D01*
X161127454Y-101878000D01*
X161372546Y-101878000D01*
X161389584Y-101879678D01*
G37*
G36*
X160889584Y-101879678D02*
G01*
X160903611Y-101883933D01*
X160916532Y-101890840D01*
X160927862Y-101900138D01*
X160937160Y-101911468D01*
X160944067Y-101924389D01*
X160948322Y-101938416D01*
X160950000Y-101955454D01*
X160950000Y-103450546D01*
X160948322Y-103467584D01*
X160944067Y-103481611D01*
X160937160Y-103494532D01*
X160927862Y-103505862D01*
X160916532Y-103515160D01*
X160903611Y-103522067D01*
X160889584Y-103526322D01*
X160872546Y-103528000D01*
X160627454Y-103528000D01*
X160610416Y-103526322D01*
X160596389Y-103522067D01*
X160583468Y-103515160D01*
X160572138Y-103505862D01*
X160562840Y-103494532D01*
X160555933Y-103481611D01*
X160551678Y-103467584D01*
X160550000Y-103450546D01*
X160550000Y-101955454D01*
X160551678Y-101938416D01*
X160555933Y-101924389D01*
X160562840Y-101911468D01*
X160572138Y-101900138D01*
X160583468Y-101890840D01*
X160596389Y-101883933D01*
X160610416Y-101879678D01*
X160627454Y-101878000D01*
X160872546Y-101878000D01*
X160889584Y-101879678D01*
G37*
G36*
X160389584Y-101879678D02*
G01*
X160403611Y-101883933D01*
X160416532Y-101890840D01*
X160427862Y-101900138D01*
X160437160Y-101911468D01*
X160444067Y-101924389D01*
X160448322Y-101938416D01*
X160450000Y-101955454D01*
X160450000Y-103450546D01*
X160448322Y-103467584D01*
X160444067Y-103481611D01*
X160437160Y-103494532D01*
X160427862Y-103505862D01*
X160416532Y-103515160D01*
X160403611Y-103522067D01*
X160389584Y-103526322D01*
X160372546Y-103528000D01*
X160127454Y-103528000D01*
X160110416Y-103526322D01*
X160096389Y-103522067D01*
X160083468Y-103515160D01*
X160072138Y-103505862D01*
X160062840Y-103494532D01*
X160055933Y-103481611D01*
X160051678Y-103467584D01*
X160050000Y-103450546D01*
X160050000Y-101955454D01*
X160051678Y-101938416D01*
X160055933Y-101924389D01*
X160062840Y-101911468D01*
X160072138Y-101900138D01*
X160083468Y-101890840D01*
X160096389Y-101883933D01*
X160110416Y-101879678D01*
X160127454Y-101878000D01*
X160372546Y-101878000D01*
X160389584Y-101879678D01*
G37*
G36*
X159889584Y-101879678D02*
G01*
X159903611Y-101883933D01*
X159916532Y-101890840D01*
X159927862Y-101900138D01*
X159937160Y-101911468D01*
X159944067Y-101924389D01*
X159948322Y-101938416D01*
X159950000Y-101955454D01*
X159950000Y-103450546D01*
X159948322Y-103467584D01*
X159944067Y-103481611D01*
X159937160Y-103494532D01*
X159927862Y-103505862D01*
X159916532Y-103515160D01*
X159903611Y-103522067D01*
X159889584Y-103526322D01*
X159872546Y-103528000D01*
X159627454Y-103528000D01*
X159610416Y-103526322D01*
X159596389Y-103522067D01*
X159583468Y-103515160D01*
X159572138Y-103505862D01*
X159562840Y-103494532D01*
X159555933Y-103481611D01*
X159551678Y-103467584D01*
X159550000Y-103450546D01*
X159550000Y-101955454D01*
X159551678Y-101938416D01*
X159555933Y-101924389D01*
X159562840Y-101911468D01*
X159572138Y-101900138D01*
X159583468Y-101890840D01*
X159596389Y-101883933D01*
X159610416Y-101879678D01*
X159627454Y-101878000D01*
X159872546Y-101878000D01*
X159889584Y-101879678D01*
G37*
G36*
X159389584Y-101879678D02*
G01*
X159403611Y-101883933D01*
X159416532Y-101890840D01*
X159427862Y-101900138D01*
X159437160Y-101911468D01*
X159444067Y-101924389D01*
X159448322Y-101938416D01*
X159450000Y-101955454D01*
X159450000Y-103450546D01*
X159448322Y-103467584D01*
X159444067Y-103481611D01*
X159437160Y-103494532D01*
X159427862Y-103505862D01*
X159416532Y-103515160D01*
X159403611Y-103522067D01*
X159389584Y-103526322D01*
X159372546Y-103528000D01*
X159127454Y-103528000D01*
X159110416Y-103526322D01*
X159096389Y-103522067D01*
X159083468Y-103515160D01*
X159072138Y-103505862D01*
X159062840Y-103494532D01*
X159055933Y-103481611D01*
X159051678Y-103467584D01*
X159050000Y-103450546D01*
X159050000Y-101955454D01*
X159051678Y-101938416D01*
X159055933Y-101924389D01*
X159062840Y-101911468D01*
X159072138Y-101900138D01*
X159083468Y-101890840D01*
X159096389Y-101883933D01*
X159110416Y-101879678D01*
X159127454Y-101878000D01*
X159372546Y-101878000D01*
X159389584Y-101879678D01*
G37*
G36*
X158889584Y-101879678D02*
G01*
X158903611Y-101883933D01*
X158916532Y-101890840D01*
X158927862Y-101900138D01*
X158937160Y-101911468D01*
X158944067Y-101924389D01*
X158948322Y-101938416D01*
X158950000Y-101955454D01*
X158950000Y-103450546D01*
X158948322Y-103467584D01*
X158944067Y-103481611D01*
X158937160Y-103494532D01*
X158927862Y-103505862D01*
X158916532Y-103515160D01*
X158903611Y-103522067D01*
X158889584Y-103526322D01*
X158872546Y-103528000D01*
X158627454Y-103528000D01*
X158610416Y-103526322D01*
X158596389Y-103522067D01*
X158583468Y-103515160D01*
X158572138Y-103505862D01*
X158562840Y-103494532D01*
X158555933Y-103481611D01*
X158551678Y-103467584D01*
X158550000Y-103450546D01*
X158550000Y-101955454D01*
X158551678Y-101938416D01*
X158555933Y-101924389D01*
X158562840Y-101911468D01*
X158572138Y-101900138D01*
X158583468Y-101890840D01*
X158596389Y-101883933D01*
X158610416Y-101879678D01*
X158627454Y-101878000D01*
X158872546Y-101878000D01*
X158889584Y-101879678D01*
G37*
G36*
X158389584Y-101879678D02*
G01*
X158403611Y-101883933D01*
X158416532Y-101890840D01*
X158427862Y-101900138D01*
X158437160Y-101911468D01*
X158444067Y-101924389D01*
X158448322Y-101938416D01*
X158450000Y-101955454D01*
X158450000Y-103450546D01*
X158448322Y-103467584D01*
X158444067Y-103481611D01*
X158437160Y-103494532D01*
X158427862Y-103505862D01*
X158416532Y-103515160D01*
X158403611Y-103522067D01*
X158389584Y-103526322D01*
X158372546Y-103528000D01*
X158127454Y-103528000D01*
X158110416Y-103526322D01*
X158096389Y-103522067D01*
X158083468Y-103515160D01*
X158072138Y-103505862D01*
X158062840Y-103494532D01*
X158055933Y-103481611D01*
X158051678Y-103467584D01*
X158050000Y-103450546D01*
X158050000Y-101955454D01*
X158051678Y-101938416D01*
X158055933Y-101924389D01*
X158062840Y-101911468D01*
X158072138Y-101900138D01*
X158083468Y-101890840D01*
X158096389Y-101883933D01*
X158110416Y-101879678D01*
X158127454Y-101878000D01*
X158372546Y-101878000D01*
X158389584Y-101879678D01*
G37*
G36*
X157889584Y-101879678D02*
G01*
X157903611Y-101883933D01*
X157916532Y-101890840D01*
X157927862Y-101900138D01*
X157937160Y-101911468D01*
X157944067Y-101924389D01*
X157948322Y-101938416D01*
X157950000Y-101955454D01*
X157950000Y-103450546D01*
X157948322Y-103467584D01*
X157944067Y-103481611D01*
X157937160Y-103494532D01*
X157927862Y-103505862D01*
X157916532Y-103515160D01*
X157903611Y-103522067D01*
X157889584Y-103526322D01*
X157872546Y-103528000D01*
X157627454Y-103528000D01*
X157610416Y-103526322D01*
X157596389Y-103522067D01*
X157583468Y-103515160D01*
X157572138Y-103505862D01*
X157562840Y-103494532D01*
X157555933Y-103481611D01*
X157551678Y-103467584D01*
X157550000Y-103450546D01*
X157550000Y-101955454D01*
X157551678Y-101938416D01*
X157555933Y-101924389D01*
X157562840Y-101911468D01*
X157572138Y-101900138D01*
X157583468Y-101890840D01*
X157596389Y-101883933D01*
X157610416Y-101879678D01*
X157627454Y-101878000D01*
X157872546Y-101878000D01*
X157889584Y-101879678D01*
G37*
G36*
X157389584Y-101879678D02*
G01*
X157403611Y-101883933D01*
X157416532Y-101890840D01*
X157427862Y-101900138D01*
X157437160Y-101911468D01*
X157444067Y-101924389D01*
X157448322Y-101938416D01*
X157450000Y-101955454D01*
X157450000Y-103450546D01*
X157448322Y-103467584D01*
X157444067Y-103481611D01*
X157437160Y-103494532D01*
X157427862Y-103505862D01*
X157416532Y-103515160D01*
X157403611Y-103522067D01*
X157389584Y-103526322D01*
X157372546Y-103528000D01*
X157127454Y-103528000D01*
X157110416Y-103526322D01*
X157096389Y-103522067D01*
X157083468Y-103515160D01*
X157072138Y-103505862D01*
X157062840Y-103494532D01*
X157055933Y-103481611D01*
X157051678Y-103467584D01*
X157050000Y-103450546D01*
X157050000Y-101955454D01*
X157051678Y-101938416D01*
X157055933Y-101924389D01*
X157062840Y-101911468D01*
X157072138Y-101900138D01*
X157083468Y-101890840D01*
X157096389Y-101883933D01*
X157110416Y-101879678D01*
X157127454Y-101878000D01*
X157372546Y-101878000D01*
X157389584Y-101879678D01*
G37*
G36*
X164389584Y-101879678D02*
G01*
X164403611Y-101883933D01*
X164416532Y-101890840D01*
X164427862Y-101900138D01*
X164437160Y-101911468D01*
X164444067Y-101924389D01*
X164448322Y-101938416D01*
X164450000Y-101955454D01*
X164450000Y-103450546D01*
X164448322Y-103467584D01*
X164444067Y-103481611D01*
X164437160Y-103494532D01*
X164427862Y-103505862D01*
X164416532Y-103515160D01*
X164403611Y-103522067D01*
X164389584Y-103526322D01*
X164372546Y-103528000D01*
X164127454Y-103528000D01*
X164110416Y-103526322D01*
X164096389Y-103522067D01*
X164083468Y-103515160D01*
X164072138Y-103505862D01*
X164062840Y-103494532D01*
X164055933Y-103481611D01*
X164051678Y-103467584D01*
X164050000Y-103450546D01*
X164050000Y-101955454D01*
X164051678Y-101938416D01*
X164055933Y-101924389D01*
X164062840Y-101911468D01*
X164072138Y-101900138D01*
X164083468Y-101890840D01*
X164096389Y-101883933D01*
X164110416Y-101879678D01*
X164127454Y-101878000D01*
X164372546Y-101878000D01*
X164389584Y-101879678D01*
G37*
G36*
X164889584Y-101879678D02*
G01*
X164903611Y-101883933D01*
X164916532Y-101890840D01*
X164927862Y-101900138D01*
X164937160Y-101911468D01*
X164944067Y-101924389D01*
X164948322Y-101938416D01*
X164950000Y-101955454D01*
X164950000Y-103450546D01*
X164948322Y-103467584D01*
X164944067Y-103481611D01*
X164937160Y-103494532D01*
X164927862Y-103505862D01*
X164916532Y-103515160D01*
X164903611Y-103522067D01*
X164889584Y-103526322D01*
X164872546Y-103528000D01*
X164627454Y-103528000D01*
X164610416Y-103526322D01*
X164596389Y-103522067D01*
X164583468Y-103515160D01*
X164572138Y-103505862D01*
X164562840Y-103494532D01*
X164555933Y-103481611D01*
X164551678Y-103467584D01*
X164550000Y-103450546D01*
X164550000Y-101955454D01*
X164551678Y-101938416D01*
X164555933Y-101924389D01*
X164562840Y-101911468D01*
X164572138Y-101900138D01*
X164583468Y-101890840D01*
X164596389Y-101883933D01*
X164610416Y-101879678D01*
X164627454Y-101878000D01*
X164872546Y-101878000D01*
X164889584Y-101879678D01*
G37*
G36*
X148030000Y-103053000D02*
G01*
X146870000Y-103053000D01*
X146870000Y-102303000D01*
X148030000Y-102303000D01*
X148030000Y-103053000D01*
G37*
G36*
X150230000Y-103053000D02*
G01*
X149070000Y-103053000D01*
X149070000Y-102303000D01*
X150230000Y-102303000D01*
X150230000Y-103053000D01*
G37*
G36*
X153448879Y-101607440D02*
G01*
X153489870Y-101619874D01*
X153527645Y-101640065D01*
X153560758Y-101667242D01*
X153587935Y-101700355D01*
X153608126Y-101738130D01*
X153620560Y-101779121D01*
X153625000Y-101824204D01*
X153625000Y-102431796D01*
X153620560Y-102476879D01*
X153608126Y-102517870D01*
X153587935Y-102555645D01*
X153560758Y-102588758D01*
X153527645Y-102615935D01*
X153489870Y-102636126D01*
X153448879Y-102648560D01*
X153403796Y-102653000D01*
X152871204Y-102653000D01*
X152826121Y-102648560D01*
X152785130Y-102636126D01*
X152747355Y-102615935D01*
X152714242Y-102588758D01*
X152687065Y-102555645D01*
X152666874Y-102517870D01*
X152654440Y-102476879D01*
X152650000Y-102431796D01*
X152650000Y-101824204D01*
X152654440Y-101779121D01*
X152666874Y-101738130D01*
X152687065Y-101700355D01*
X152714242Y-101667242D01*
X152747355Y-101640065D01*
X152785130Y-101619874D01*
X152826121Y-101607440D01*
X152871204Y-101603000D01*
X153403796Y-101603000D01*
X153448879Y-101607440D01*
G37*
G36*
X151873879Y-101607440D02*
G01*
X151914870Y-101619874D01*
X151952645Y-101640065D01*
X151985758Y-101667242D01*
X152012935Y-101700355D01*
X152033126Y-101738130D01*
X152045560Y-101779121D01*
X152050000Y-101824204D01*
X152050000Y-102431796D01*
X152045560Y-102476879D01*
X152033126Y-102517870D01*
X152012935Y-102555645D01*
X151985758Y-102588758D01*
X151952645Y-102615935D01*
X151914870Y-102636126D01*
X151873879Y-102648560D01*
X151828796Y-102653000D01*
X151296204Y-102653000D01*
X151251121Y-102648560D01*
X151210130Y-102636126D01*
X151172355Y-102615935D01*
X151139242Y-102588758D01*
X151112065Y-102555645D01*
X151091874Y-102517870D01*
X151079440Y-102476879D01*
X151075000Y-102431796D01*
X151075000Y-101824204D01*
X151079440Y-101779121D01*
X151091874Y-101738130D01*
X151112065Y-101700355D01*
X151139242Y-101667242D01*
X151172355Y-101640065D01*
X151210130Y-101619874D01*
X151251121Y-101607440D01*
X151296204Y-101603000D01*
X151828796Y-101603000D01*
X151873879Y-101607440D01*
G37*
G36*
X176188561Y-100737057D02*
G01*
X176246520Y-100748586D01*
X176362335Y-100796558D01*
X176385029Y-100805958D01*
X176410310Y-100816430D01*
X176557717Y-100914924D01*
X176683076Y-101040283D01*
X176781570Y-101187690D01*
X176849414Y-101351480D01*
X176884000Y-101525358D01*
X176884000Y-101702642D01*
X176849414Y-101876520D01*
X176781570Y-102040310D01*
X176683076Y-102187717D01*
X176557717Y-102313076D01*
X176410310Y-102411570D01*
X176246520Y-102479414D01*
X176188561Y-102490943D01*
X176072644Y-102514000D01*
X175895356Y-102514000D01*
X175779439Y-102490943D01*
X175721480Y-102479414D01*
X175557690Y-102411570D01*
X175410283Y-102313076D01*
X175284924Y-102187717D01*
X175186430Y-102040310D01*
X175118586Y-101876520D01*
X175084000Y-101702642D01*
X175084000Y-101525358D01*
X175118586Y-101351480D01*
X175186430Y-101187690D01*
X175284924Y-101040283D01*
X175410283Y-100914924D01*
X175557690Y-100816430D01*
X175582972Y-100805958D01*
X175605665Y-100796558D01*
X175721480Y-100748586D01*
X175779439Y-100737057D01*
X175895356Y-100714000D01*
X176072644Y-100714000D01*
X176188561Y-100737057D01*
G37*
G36*
X173648561Y-100737057D02*
G01*
X173706520Y-100748586D01*
X173822335Y-100796558D01*
X173845029Y-100805958D01*
X173870310Y-100816430D01*
X174017717Y-100914924D01*
X174143076Y-101040283D01*
X174241570Y-101187690D01*
X174309414Y-101351480D01*
X174344000Y-101525358D01*
X174344000Y-101702642D01*
X174309414Y-101876520D01*
X174241570Y-102040310D01*
X174143076Y-102187717D01*
X174017717Y-102313076D01*
X173870310Y-102411570D01*
X173706520Y-102479414D01*
X173648561Y-102490943D01*
X173532644Y-102514000D01*
X173355356Y-102514000D01*
X173239439Y-102490943D01*
X173181480Y-102479414D01*
X173017690Y-102411570D01*
X172870283Y-102313076D01*
X172744924Y-102187717D01*
X172646430Y-102040310D01*
X172578586Y-101876520D01*
X172544000Y-101702642D01*
X172544000Y-101525358D01*
X172578586Y-101351480D01*
X172646430Y-101187690D01*
X172744924Y-101040283D01*
X172870283Y-100914924D01*
X173017690Y-100816430D01*
X173042972Y-100805958D01*
X173065665Y-100796558D01*
X173181480Y-100748586D01*
X173239439Y-100737057D01*
X173355356Y-100714000D01*
X173532644Y-100714000D01*
X173648561Y-100737057D01*
G37*
G36*
X148030000Y-102103000D02*
G01*
X146870000Y-102103000D01*
X146870000Y-101353000D01*
X148030000Y-101353000D01*
X148030000Y-102103000D01*
G37*
G36*
X140530885Y-100803305D02*
G01*
X140557819Y-100805958D01*
X140592337Y-100816429D01*
X140661496Y-100837408D01*
X140757039Y-100888477D01*
X140757040Y-100888478D01*
X140757042Y-100888479D01*
X140840790Y-100957210D01*
X140908969Y-101040285D01*
X140909523Y-101040961D01*
X140960592Y-101136504D01*
X140992042Y-101240182D01*
X141002661Y-101348000D01*
X140992042Y-101455818D01*
X140960592Y-101559496D01*
X140915381Y-101644079D01*
X140909521Y-101655042D01*
X140840790Y-101738790D01*
X140757042Y-101807521D01*
X140757040Y-101807522D01*
X140757039Y-101807523D01*
X140661496Y-101858592D01*
X140592377Y-101879559D01*
X140557819Y-101890042D01*
X140530885Y-101892695D01*
X140477020Y-101898000D01*
X139822980Y-101898000D01*
X139769115Y-101892695D01*
X139742181Y-101890042D01*
X139707623Y-101879559D01*
X139638504Y-101858592D01*
X139542961Y-101807523D01*
X139542960Y-101807522D01*
X139542958Y-101807521D01*
X139459210Y-101738790D01*
X139390479Y-101655042D01*
X139384619Y-101644079D01*
X139339408Y-101559496D01*
X139307958Y-101455818D01*
X139297339Y-101348000D01*
X139307958Y-101240182D01*
X139339408Y-101136504D01*
X139390477Y-101040961D01*
X139391032Y-101040285D01*
X139459210Y-100957210D01*
X139542958Y-100888479D01*
X139542960Y-100888478D01*
X139542961Y-100888477D01*
X139638504Y-100837408D01*
X139707663Y-100816429D01*
X139742181Y-100805958D01*
X139769115Y-100803305D01*
X139822980Y-100798000D01*
X140477020Y-100798000D01*
X140530885Y-100803305D01*
G37*
G36*
X144960885Y-100803305D02*
G01*
X144987819Y-100805958D01*
X145022337Y-100816429D01*
X145091496Y-100837408D01*
X145187039Y-100888477D01*
X145187040Y-100888478D01*
X145187042Y-100888479D01*
X145270790Y-100957210D01*
X145338969Y-101040285D01*
X145339523Y-101040961D01*
X145390592Y-101136504D01*
X145422042Y-101240182D01*
X145432661Y-101348000D01*
X145422042Y-101455818D01*
X145390592Y-101559496D01*
X145345381Y-101644079D01*
X145339521Y-101655042D01*
X145270790Y-101738790D01*
X145187042Y-101807521D01*
X145187040Y-101807522D01*
X145187039Y-101807523D01*
X145091496Y-101858592D01*
X145022377Y-101879559D01*
X144987819Y-101890042D01*
X144960885Y-101892695D01*
X144907020Y-101898000D01*
X143752980Y-101898000D01*
X143699115Y-101892695D01*
X143672181Y-101890042D01*
X143637623Y-101879559D01*
X143568504Y-101858592D01*
X143472961Y-101807523D01*
X143472960Y-101807522D01*
X143472958Y-101807521D01*
X143389210Y-101738790D01*
X143320479Y-101655042D01*
X143314619Y-101644079D01*
X143269408Y-101559496D01*
X143237958Y-101455818D01*
X143227339Y-101348000D01*
X143237958Y-101240182D01*
X143269408Y-101136504D01*
X143320477Y-101040961D01*
X143321032Y-101040285D01*
X143389210Y-100957210D01*
X143472958Y-100888479D01*
X143472960Y-100888478D01*
X143472961Y-100888477D01*
X143568504Y-100837408D01*
X143637663Y-100816429D01*
X143672181Y-100805958D01*
X143699115Y-100803305D01*
X143752980Y-100798000D01*
X144907020Y-100798000D01*
X144960885Y-100803305D01*
G37*
G36*
X150230000Y-101153000D02*
G01*
X149070000Y-101153000D01*
X149070000Y-100403000D01*
X150230000Y-100403000D01*
X150230000Y-101153000D01*
G37*
G36*
X148030000Y-101153000D02*
G01*
X146870000Y-101153000D01*
X146870000Y-100403000D01*
X148030000Y-100403000D01*
X148030000Y-101153000D01*
G37*
G36*
X153448879Y-100107440D02*
G01*
X153489870Y-100119874D01*
X153527645Y-100140065D01*
X153560758Y-100167242D01*
X153587935Y-100200355D01*
X153608126Y-100238130D01*
X153620560Y-100279121D01*
X153625000Y-100324204D01*
X153625000Y-100931796D01*
X153620560Y-100976879D01*
X153608126Y-101017870D01*
X153587935Y-101055645D01*
X153560758Y-101088758D01*
X153527645Y-101115935D01*
X153489870Y-101136126D01*
X153448879Y-101148560D01*
X153403796Y-101153000D01*
X152871204Y-101153000D01*
X152826121Y-101148560D01*
X152785130Y-101136126D01*
X152747355Y-101115935D01*
X152714242Y-101088758D01*
X152687065Y-101055645D01*
X152666874Y-101017870D01*
X152654440Y-100976879D01*
X152650000Y-100931796D01*
X152650000Y-100324204D01*
X152654440Y-100279121D01*
X152666874Y-100238130D01*
X152687065Y-100200355D01*
X152714242Y-100167242D01*
X152747355Y-100140065D01*
X152785130Y-100119874D01*
X152826121Y-100107440D01*
X152871204Y-100103000D01*
X153403796Y-100103000D01*
X153448879Y-100107440D01*
G37*
G36*
X151873879Y-100107440D02*
G01*
X151914870Y-100119874D01*
X151952645Y-100140065D01*
X151985758Y-100167242D01*
X152012935Y-100200355D01*
X152033126Y-100238130D01*
X152045560Y-100279121D01*
X152050000Y-100324204D01*
X152050000Y-100931796D01*
X152045560Y-100976879D01*
X152033126Y-101017870D01*
X152012935Y-101055645D01*
X151985758Y-101088758D01*
X151952645Y-101115935D01*
X151914870Y-101136126D01*
X151873879Y-101148560D01*
X151828796Y-101153000D01*
X151296204Y-101153000D01*
X151251121Y-101148560D01*
X151210130Y-101136126D01*
X151172355Y-101115935D01*
X151139242Y-101088758D01*
X151112065Y-101055645D01*
X151091874Y-101017870D01*
X151079440Y-100976879D01*
X151075000Y-100931796D01*
X151075000Y-100324204D01*
X151079440Y-100279121D01*
X151091874Y-100238130D01*
X151112065Y-100200355D01*
X151139242Y-100167242D01*
X151172355Y-100140065D01*
X151210130Y-100119874D01*
X151251121Y-100107440D01*
X151296204Y-100103000D01*
X151828796Y-100103000D01*
X151873879Y-100107440D01*
G37*
G36*
X156089584Y-100579678D02*
G01*
X156103611Y-100583933D01*
X156116532Y-100590840D01*
X156127862Y-100600138D01*
X156137160Y-100611468D01*
X156144067Y-100624389D01*
X156148322Y-100638416D01*
X156150000Y-100655454D01*
X156150000Y-100900546D01*
X156148322Y-100917584D01*
X156144067Y-100931611D01*
X156137160Y-100944532D01*
X156127862Y-100955862D01*
X156116532Y-100965160D01*
X156103611Y-100972067D01*
X156089584Y-100976322D01*
X156072546Y-100978000D01*
X154577454Y-100978000D01*
X154560416Y-100976322D01*
X154546389Y-100972067D01*
X154533468Y-100965160D01*
X154522138Y-100955862D01*
X154512840Y-100944532D01*
X154505933Y-100931611D01*
X154501678Y-100917584D01*
X154500000Y-100900546D01*
X154500000Y-100655454D01*
X154501678Y-100638416D01*
X154505933Y-100624389D01*
X154512840Y-100611468D01*
X154522138Y-100600138D01*
X154533468Y-100590840D01*
X154546389Y-100583933D01*
X154560416Y-100579678D01*
X154577454Y-100578000D01*
X156072546Y-100578000D01*
X156089584Y-100579678D01*
G37*
G36*
X167439584Y-100579678D02*
G01*
X167453611Y-100583933D01*
X167466532Y-100590840D01*
X167477862Y-100600138D01*
X167487160Y-100611468D01*
X167494067Y-100624389D01*
X167498322Y-100638416D01*
X167500000Y-100655454D01*
X167500000Y-100900546D01*
X167498322Y-100917584D01*
X167494067Y-100931611D01*
X167487160Y-100944532D01*
X167477862Y-100955862D01*
X167466532Y-100965160D01*
X167453611Y-100972067D01*
X167439584Y-100976322D01*
X167422546Y-100978000D01*
X165927454Y-100978000D01*
X165910416Y-100976322D01*
X165896389Y-100972067D01*
X165883468Y-100965160D01*
X165872138Y-100955862D01*
X165862840Y-100944532D01*
X165855933Y-100931611D01*
X165851678Y-100917584D01*
X165850000Y-100900546D01*
X165850000Y-100655454D01*
X165851678Y-100638416D01*
X165855933Y-100624389D01*
X165862840Y-100611468D01*
X165872138Y-100600138D01*
X165883468Y-100590840D01*
X165896389Y-100583933D01*
X165910416Y-100579678D01*
X165927454Y-100578000D01*
X167422546Y-100578000D01*
X167439584Y-100579678D01*
G37*
G36*
X145899216Y-99931119D02*
G01*
X145927309Y-99939641D01*
X145953204Y-99953483D01*
X145975896Y-99972104D01*
X145994517Y-99994796D01*
X146008359Y-100020691D01*
X146016881Y-100048784D01*
X146020000Y-100080454D01*
X146020000Y-100475546D01*
X146016881Y-100507216D01*
X146008359Y-100535309D01*
X145994517Y-100561204D01*
X145975896Y-100583896D01*
X145953204Y-100602517D01*
X145927309Y-100616359D01*
X145899216Y-100624881D01*
X145867546Y-100628000D01*
X144622454Y-100628000D01*
X144590784Y-100624881D01*
X144562691Y-100616359D01*
X144536796Y-100602517D01*
X144514104Y-100583896D01*
X144495483Y-100561204D01*
X144481641Y-100535309D01*
X144473119Y-100507216D01*
X144470000Y-100475546D01*
X144470000Y-100080454D01*
X144473119Y-100048784D01*
X144481641Y-100020691D01*
X144495483Y-99994796D01*
X144514104Y-99972104D01*
X144536796Y-99953483D01*
X144562691Y-99939641D01*
X144590784Y-99931119D01*
X144622454Y-99928000D01*
X145867546Y-99928000D01*
X145899216Y-99931119D01*
G37*
G36*
X168898879Y-99582440D02*
G01*
X168939870Y-99594874D01*
X168977645Y-99615065D01*
X169010758Y-99642242D01*
X169037935Y-99675355D01*
X169058126Y-99713130D01*
X169070560Y-99754121D01*
X169075000Y-99799204D01*
X169075000Y-100331796D01*
X169070560Y-100376879D01*
X169058126Y-100417870D01*
X169037935Y-100455645D01*
X169010758Y-100488758D01*
X168977645Y-100515935D01*
X168939870Y-100536126D01*
X168898879Y-100548560D01*
X168853796Y-100553000D01*
X168246204Y-100553000D01*
X168201121Y-100548560D01*
X168160130Y-100536126D01*
X168122355Y-100515935D01*
X168089242Y-100488758D01*
X168062065Y-100455645D01*
X168041874Y-100417870D01*
X168029440Y-100376879D01*
X168025000Y-100331796D01*
X168025000Y-99799204D01*
X168029440Y-99754121D01*
X168041874Y-99713130D01*
X168062065Y-99675355D01*
X168089242Y-99642242D01*
X168122355Y-99615065D01*
X168160130Y-99594874D01*
X168201121Y-99582440D01*
X168246204Y-99578000D01*
X168853796Y-99578000D01*
X168898879Y-99582440D01*
G37*
G36*
X156089584Y-100079678D02*
G01*
X156103611Y-100083933D01*
X156116532Y-100090840D01*
X156127862Y-100100138D01*
X156137160Y-100111468D01*
X156144067Y-100124389D01*
X156148322Y-100138416D01*
X156150000Y-100155454D01*
X156150000Y-100400546D01*
X156148322Y-100417584D01*
X156144067Y-100431611D01*
X156137160Y-100444532D01*
X156127862Y-100455862D01*
X156116532Y-100465160D01*
X156103611Y-100472067D01*
X156089584Y-100476322D01*
X156072546Y-100478000D01*
X154577454Y-100478000D01*
X154560416Y-100476322D01*
X154546389Y-100472067D01*
X154533468Y-100465160D01*
X154522138Y-100455862D01*
X154512840Y-100444532D01*
X154505933Y-100431611D01*
X154501678Y-100417584D01*
X154500000Y-100400546D01*
X154500000Y-100155454D01*
X154501678Y-100138416D01*
X154505933Y-100124389D01*
X154512840Y-100111468D01*
X154522138Y-100100138D01*
X154533468Y-100090840D01*
X154546389Y-100083933D01*
X154560416Y-100079678D01*
X154577454Y-100078000D01*
X156072546Y-100078000D01*
X156089584Y-100079678D01*
G37*
G36*
X167439584Y-100079678D02*
G01*
X167453611Y-100083933D01*
X167466532Y-100090840D01*
X167477862Y-100100138D01*
X167487160Y-100111468D01*
X167494067Y-100124389D01*
X167498322Y-100138416D01*
X167500000Y-100155454D01*
X167500000Y-100400546D01*
X167498322Y-100417584D01*
X167494067Y-100431611D01*
X167487160Y-100444532D01*
X167477862Y-100455862D01*
X167466532Y-100465160D01*
X167453611Y-100472067D01*
X167439584Y-100476322D01*
X167422546Y-100478000D01*
X165927454Y-100478000D01*
X165910416Y-100476322D01*
X165896389Y-100472067D01*
X165883468Y-100465160D01*
X165872138Y-100455862D01*
X165862840Y-100444532D01*
X165855933Y-100431611D01*
X165851678Y-100417584D01*
X165850000Y-100400546D01*
X165850000Y-100155454D01*
X165851678Y-100138416D01*
X165855933Y-100124389D01*
X165862840Y-100111468D01*
X165872138Y-100100138D01*
X165883468Y-100090840D01*
X165896389Y-100083933D01*
X165910416Y-100079678D01*
X165927454Y-100078000D01*
X167422546Y-100078000D01*
X167439584Y-100079678D01*
G37*
G36*
X143909383Y-99557411D02*
G01*
X143973412Y-99583933D01*
X143977629Y-99585680D01*
X144039048Y-99626719D01*
X144091281Y-99678952D01*
X144128938Y-99735309D01*
X144132321Y-99740373D01*
X144160589Y-99808617D01*
X144175000Y-99881065D01*
X144175000Y-99954935D01*
X144160589Y-100027383D01*
X144132321Y-100095627D01*
X144091282Y-100157047D01*
X144039047Y-100209282D01*
X144008546Y-100229662D01*
X143977629Y-100250320D01*
X143977628Y-100250321D01*
X143977627Y-100250321D01*
X143909383Y-100278589D01*
X143836935Y-100293000D01*
X143763065Y-100293000D01*
X143690617Y-100278589D01*
X143622373Y-100250321D01*
X143622372Y-100250321D01*
X143622371Y-100250320D01*
X143591454Y-100229662D01*
X143560953Y-100209282D01*
X143508718Y-100157047D01*
X143467679Y-100095627D01*
X143439411Y-100027383D01*
X143425000Y-99954935D01*
X143425000Y-99881065D01*
X143439411Y-99808617D01*
X143467679Y-99740373D01*
X143471063Y-99735309D01*
X143508719Y-99678952D01*
X143560952Y-99626719D01*
X143622371Y-99585680D01*
X143626589Y-99583933D01*
X143690617Y-99557411D01*
X143763065Y-99543000D01*
X143836935Y-99543000D01*
X143909383Y-99557411D01*
G37*
G36*
X156089584Y-99579678D02*
G01*
X156103611Y-99583933D01*
X156116532Y-99590840D01*
X156127862Y-99600138D01*
X156137160Y-99611468D01*
X156144067Y-99624389D01*
X156148322Y-99638416D01*
X156150000Y-99655454D01*
X156150000Y-99900546D01*
X156148322Y-99917584D01*
X156144067Y-99931611D01*
X156137160Y-99944532D01*
X156127862Y-99955862D01*
X156116532Y-99965160D01*
X156103611Y-99972067D01*
X156089584Y-99976322D01*
X156072546Y-99978000D01*
X154577454Y-99978000D01*
X154560416Y-99976322D01*
X154546389Y-99972067D01*
X154533468Y-99965160D01*
X154522138Y-99955862D01*
X154512840Y-99944532D01*
X154505933Y-99931611D01*
X154501678Y-99917584D01*
X154500000Y-99900546D01*
X154500000Y-99655454D01*
X154501678Y-99638416D01*
X154505933Y-99624389D01*
X154512840Y-99611468D01*
X154522138Y-99600138D01*
X154533468Y-99590840D01*
X154546389Y-99583933D01*
X154560416Y-99579678D01*
X154577454Y-99578000D01*
X156072546Y-99578000D01*
X156089584Y-99579678D01*
G37*
G36*
X167439584Y-99579678D02*
G01*
X167453611Y-99583933D01*
X167466532Y-99590840D01*
X167477862Y-99600138D01*
X167487160Y-99611468D01*
X167494067Y-99624389D01*
X167498322Y-99638416D01*
X167500000Y-99655454D01*
X167500000Y-99900546D01*
X167498322Y-99917584D01*
X167494067Y-99931611D01*
X167487160Y-99944532D01*
X167477862Y-99955862D01*
X167466532Y-99965160D01*
X167453611Y-99972067D01*
X167439584Y-99976322D01*
X167422546Y-99978000D01*
X165927454Y-99978000D01*
X165910416Y-99976322D01*
X165896389Y-99972067D01*
X165883468Y-99965160D01*
X165872138Y-99955862D01*
X165862840Y-99944532D01*
X165855933Y-99931611D01*
X165851678Y-99917584D01*
X165850000Y-99900546D01*
X165850000Y-99655454D01*
X165851678Y-99638416D01*
X165855933Y-99624389D01*
X165862840Y-99611468D01*
X165872138Y-99600138D01*
X165883468Y-99590840D01*
X165896389Y-99583933D01*
X165910416Y-99579678D01*
X165927454Y-99578000D01*
X167422546Y-99578000D01*
X167439584Y-99579678D01*
G37*
G36*
X145899216Y-99131119D02*
G01*
X145927309Y-99139641D01*
X145953204Y-99153483D01*
X145975896Y-99172104D01*
X145994517Y-99194796D01*
X146008359Y-99220691D01*
X146016881Y-99248784D01*
X146020000Y-99280454D01*
X146020000Y-99675546D01*
X146016881Y-99707216D01*
X146008359Y-99735309D01*
X145994517Y-99761204D01*
X145975896Y-99783896D01*
X145953204Y-99802517D01*
X145927309Y-99816359D01*
X145899216Y-99824881D01*
X145867546Y-99828000D01*
X144622454Y-99828000D01*
X144590784Y-99824881D01*
X144562691Y-99816359D01*
X144536796Y-99802517D01*
X144514104Y-99783896D01*
X144495483Y-99761204D01*
X144481641Y-99735309D01*
X144473119Y-99707216D01*
X144470000Y-99675546D01*
X144470000Y-99280454D01*
X144473119Y-99248784D01*
X144481641Y-99220691D01*
X144495483Y-99194796D01*
X144514104Y-99172104D01*
X144536796Y-99153483D01*
X144562691Y-99139641D01*
X144590784Y-99131119D01*
X144622454Y-99128000D01*
X145867546Y-99128000D01*
X145899216Y-99131119D01*
G37*
G36*
X151873879Y-98607440D02*
G01*
X151914870Y-98619874D01*
X151952645Y-98640065D01*
X151985758Y-98667242D01*
X152012935Y-98700355D01*
X152033126Y-98738130D01*
X152045560Y-98779121D01*
X152050000Y-98824204D01*
X152050000Y-99431796D01*
X152045560Y-99476879D01*
X152033126Y-99517870D01*
X152012935Y-99555645D01*
X151985758Y-99588758D01*
X151952645Y-99615935D01*
X151914870Y-99636126D01*
X151873879Y-99648560D01*
X151828796Y-99653000D01*
X151296204Y-99653000D01*
X151251121Y-99648560D01*
X151210130Y-99636126D01*
X151172355Y-99615935D01*
X151139242Y-99588758D01*
X151112065Y-99555645D01*
X151091874Y-99517870D01*
X151079440Y-99476879D01*
X151075000Y-99431796D01*
X151075000Y-98824204D01*
X151079440Y-98779121D01*
X151091874Y-98738130D01*
X151112065Y-98700355D01*
X151139242Y-98667242D01*
X151172355Y-98640065D01*
X151210130Y-98619874D01*
X151251121Y-98607440D01*
X151296204Y-98603000D01*
X151828796Y-98603000D01*
X151873879Y-98607440D01*
G37*
G36*
X153448879Y-98607440D02*
G01*
X153489870Y-98619874D01*
X153527645Y-98640065D01*
X153560758Y-98667242D01*
X153587935Y-98700355D01*
X153608126Y-98738130D01*
X153620560Y-98779121D01*
X153625000Y-98824204D01*
X153625000Y-99431796D01*
X153620560Y-99476879D01*
X153608126Y-99517870D01*
X153587935Y-99555645D01*
X153560758Y-99588758D01*
X153527645Y-99615935D01*
X153489870Y-99636126D01*
X153448879Y-99648560D01*
X153403796Y-99653000D01*
X152871204Y-99653000D01*
X152826121Y-99648560D01*
X152785130Y-99636126D01*
X152747355Y-99615935D01*
X152714242Y-99588758D01*
X152687065Y-99555645D01*
X152666874Y-99517870D01*
X152654440Y-99476879D01*
X152650000Y-99431796D01*
X152650000Y-98824204D01*
X152654440Y-98779121D01*
X152666874Y-98738130D01*
X152687065Y-98700355D01*
X152714242Y-98667242D01*
X152747355Y-98640065D01*
X152785130Y-98619874D01*
X152826121Y-98607440D01*
X152871204Y-98603000D01*
X153403796Y-98603000D01*
X153448879Y-98607440D01*
G37*
G36*
X148473879Y-98607440D02*
G01*
X148514870Y-98619874D01*
X148552645Y-98640065D01*
X148585758Y-98667242D01*
X148612935Y-98700355D01*
X148633126Y-98738130D01*
X148645560Y-98779121D01*
X148650000Y-98824204D01*
X148650000Y-99431796D01*
X148645560Y-99476879D01*
X148633126Y-99517870D01*
X148612935Y-99555645D01*
X148585758Y-99588758D01*
X148552645Y-99615935D01*
X148514870Y-99636126D01*
X148473879Y-99648560D01*
X148428796Y-99653000D01*
X147896204Y-99653000D01*
X147851121Y-99648560D01*
X147810130Y-99636126D01*
X147772355Y-99615935D01*
X147739242Y-99588758D01*
X147712065Y-99555645D01*
X147691874Y-99517870D01*
X147679440Y-99476879D01*
X147675000Y-99431796D01*
X147675000Y-98824204D01*
X147679440Y-98779121D01*
X147691874Y-98738130D01*
X147712065Y-98700355D01*
X147739242Y-98667242D01*
X147772355Y-98640065D01*
X147810130Y-98619874D01*
X147851121Y-98607440D01*
X147896204Y-98603000D01*
X148428796Y-98603000D01*
X148473879Y-98607440D01*
G37*
G36*
X150048879Y-98607440D02*
G01*
X150089870Y-98619874D01*
X150127645Y-98640065D01*
X150160758Y-98667242D01*
X150187935Y-98700355D01*
X150208126Y-98738130D01*
X150220560Y-98779121D01*
X150225000Y-98824204D01*
X150225000Y-99431796D01*
X150220560Y-99476879D01*
X150208126Y-99517870D01*
X150187935Y-99555645D01*
X150160758Y-99588758D01*
X150127645Y-99615935D01*
X150089870Y-99636126D01*
X150048879Y-99648560D01*
X150003796Y-99653000D01*
X149471204Y-99653000D01*
X149426121Y-99648560D01*
X149385130Y-99636126D01*
X149347355Y-99615935D01*
X149314242Y-99588758D01*
X149287065Y-99555645D01*
X149266874Y-99517870D01*
X149254440Y-99476879D01*
X149250000Y-99431796D01*
X149250000Y-98824204D01*
X149254440Y-98779121D01*
X149266874Y-98738130D01*
X149287065Y-98700355D01*
X149314242Y-98667242D01*
X149347355Y-98640065D01*
X149385130Y-98619874D01*
X149426121Y-98607440D01*
X149471204Y-98603000D01*
X150003796Y-98603000D01*
X150048879Y-98607440D01*
G37*
G36*
X156089584Y-99079678D02*
G01*
X156103611Y-99083933D01*
X156116532Y-99090840D01*
X156127862Y-99100138D01*
X156137160Y-99111468D01*
X156144067Y-99124389D01*
X156148322Y-99138416D01*
X156150000Y-99155454D01*
X156150000Y-99400546D01*
X156148322Y-99417584D01*
X156144067Y-99431611D01*
X156137160Y-99444532D01*
X156127862Y-99455862D01*
X156116532Y-99465160D01*
X156103611Y-99472067D01*
X156089584Y-99476322D01*
X156072546Y-99478000D01*
X154577454Y-99478000D01*
X154560416Y-99476322D01*
X154546389Y-99472067D01*
X154533468Y-99465160D01*
X154522138Y-99455862D01*
X154512840Y-99444532D01*
X154505933Y-99431611D01*
X154501678Y-99417584D01*
X154500000Y-99400546D01*
X154500000Y-99155454D01*
X154501678Y-99138416D01*
X154505933Y-99124389D01*
X154512840Y-99111468D01*
X154522138Y-99100138D01*
X154533468Y-99090840D01*
X154546389Y-99083933D01*
X154560416Y-99079678D01*
X154577454Y-99078000D01*
X156072546Y-99078000D01*
X156089584Y-99079678D01*
G37*
G36*
X167439584Y-99079678D02*
G01*
X167453611Y-99083933D01*
X167466532Y-99090840D01*
X167477862Y-99100138D01*
X167487160Y-99111468D01*
X167494067Y-99124389D01*
X167498322Y-99138416D01*
X167500000Y-99155454D01*
X167500000Y-99400546D01*
X167498322Y-99417584D01*
X167494067Y-99431611D01*
X167487160Y-99444532D01*
X167477862Y-99455862D01*
X167466532Y-99465160D01*
X167453611Y-99472067D01*
X167439584Y-99476322D01*
X167422546Y-99478000D01*
X165927454Y-99478000D01*
X165910416Y-99476322D01*
X165896389Y-99472067D01*
X165883468Y-99465160D01*
X165872138Y-99455862D01*
X165862840Y-99444532D01*
X165855933Y-99431611D01*
X165851678Y-99417584D01*
X165850000Y-99400546D01*
X165850000Y-99155454D01*
X165851678Y-99138416D01*
X165855933Y-99124389D01*
X165862840Y-99111468D01*
X165872138Y-99100138D01*
X165883468Y-99090840D01*
X165896389Y-99083933D01*
X165910416Y-99079678D01*
X165927454Y-99078000D01*
X167422546Y-99078000D01*
X167439584Y-99079678D01*
G37*
G36*
X167439584Y-98579678D02*
G01*
X167453611Y-98583933D01*
X167466532Y-98590840D01*
X167477862Y-98600138D01*
X167487160Y-98611468D01*
X167494067Y-98624389D01*
X167498322Y-98638416D01*
X167500000Y-98655454D01*
X167500000Y-98900546D01*
X167498322Y-98917584D01*
X167494067Y-98931611D01*
X167487160Y-98944532D01*
X167477862Y-98955862D01*
X167466532Y-98965160D01*
X167453611Y-98972067D01*
X167439584Y-98976322D01*
X167422546Y-98978000D01*
X165927454Y-98978000D01*
X165910416Y-98976322D01*
X165896389Y-98972067D01*
X165883468Y-98965160D01*
X165872138Y-98955862D01*
X165862840Y-98944532D01*
X165855933Y-98931611D01*
X165851678Y-98917584D01*
X165850000Y-98900546D01*
X165850000Y-98655454D01*
X165851678Y-98638416D01*
X165855933Y-98624389D01*
X165862840Y-98611468D01*
X165872138Y-98600138D01*
X165883468Y-98590840D01*
X165896389Y-98583933D01*
X165910416Y-98579678D01*
X165927454Y-98578000D01*
X167422546Y-98578000D01*
X167439584Y-98579678D01*
G37*
G36*
X156089584Y-98579678D02*
G01*
X156103611Y-98583933D01*
X156116532Y-98590840D01*
X156127862Y-98600138D01*
X156137160Y-98611468D01*
X156144067Y-98624389D01*
X156148322Y-98638416D01*
X156150000Y-98655454D01*
X156150000Y-98900546D01*
X156148322Y-98917584D01*
X156144067Y-98931611D01*
X156137160Y-98944532D01*
X156127862Y-98955862D01*
X156116532Y-98965160D01*
X156103611Y-98972067D01*
X156089584Y-98976322D01*
X156072546Y-98978000D01*
X154577454Y-98978000D01*
X154560416Y-98976322D01*
X154546389Y-98972067D01*
X154533468Y-98965160D01*
X154522138Y-98955862D01*
X154512840Y-98944532D01*
X154505933Y-98931611D01*
X154501678Y-98917584D01*
X154500000Y-98900546D01*
X154500000Y-98655454D01*
X154501678Y-98638416D01*
X154505933Y-98624389D01*
X154512840Y-98611468D01*
X154522138Y-98600138D01*
X154533468Y-98590840D01*
X154546389Y-98583933D01*
X154560416Y-98579678D01*
X154577454Y-98578000D01*
X156072546Y-98578000D01*
X156089584Y-98579678D01*
G37*
G36*
X145959584Y-98579678D02*
G01*
X145973611Y-98583933D01*
X145986532Y-98590840D01*
X145997862Y-98600138D01*
X146007160Y-98611468D01*
X146014067Y-98624389D01*
X146018322Y-98638416D01*
X146020000Y-98655454D01*
X146020000Y-98900546D01*
X146018322Y-98917584D01*
X146014067Y-98931611D01*
X146007160Y-98944532D01*
X145997862Y-98955862D01*
X145986532Y-98965160D01*
X145973611Y-98972067D01*
X145959584Y-98976322D01*
X145942546Y-98978000D01*
X144547454Y-98978000D01*
X144530416Y-98976322D01*
X144516389Y-98972067D01*
X144503468Y-98965160D01*
X144492138Y-98955862D01*
X144482840Y-98944532D01*
X144475933Y-98931611D01*
X144471678Y-98917584D01*
X144470000Y-98900546D01*
X144470000Y-98655454D01*
X144471678Y-98638416D01*
X144475933Y-98624389D01*
X144482840Y-98611468D01*
X144492138Y-98600138D01*
X144503468Y-98590840D01*
X144516389Y-98583933D01*
X144530416Y-98579678D01*
X144547454Y-98578000D01*
X145942546Y-98578000D01*
X145959584Y-98579678D01*
G37*
G36*
X168898879Y-98007440D02*
G01*
X168939870Y-98019874D01*
X168977645Y-98040065D01*
X169010758Y-98067242D01*
X169037935Y-98100355D01*
X169058126Y-98138130D01*
X169070560Y-98179121D01*
X169075000Y-98224204D01*
X169075000Y-98756796D01*
X169070560Y-98801879D01*
X169058126Y-98842870D01*
X169037935Y-98880645D01*
X169010758Y-98913758D01*
X168977645Y-98940935D01*
X168939870Y-98961126D01*
X168898879Y-98973560D01*
X168853796Y-98978000D01*
X168246204Y-98978000D01*
X168201121Y-98973560D01*
X168160130Y-98961126D01*
X168122355Y-98940935D01*
X168089242Y-98913758D01*
X168062065Y-98880645D01*
X168041874Y-98842870D01*
X168029440Y-98801879D01*
X168025000Y-98756796D01*
X168025000Y-98224204D01*
X168029440Y-98179121D01*
X168041874Y-98138130D01*
X168062065Y-98100355D01*
X168089242Y-98067242D01*
X168122355Y-98040065D01*
X168160130Y-98019874D01*
X168201121Y-98007440D01*
X168246204Y-98003000D01*
X168853796Y-98003000D01*
X168898879Y-98007440D01*
G37*
G36*
X145959584Y-98079678D02*
G01*
X145973611Y-98083933D01*
X145986532Y-98090840D01*
X145997862Y-98100138D01*
X146007160Y-98111468D01*
X146014067Y-98124389D01*
X146018322Y-98138416D01*
X146020000Y-98155454D01*
X146020000Y-98400546D01*
X146018322Y-98417584D01*
X146014067Y-98431611D01*
X146007160Y-98444532D01*
X145997862Y-98455862D01*
X145986532Y-98465160D01*
X145973611Y-98472067D01*
X145959584Y-98476322D01*
X145942546Y-98478000D01*
X144547454Y-98478000D01*
X144530416Y-98476322D01*
X144516389Y-98472067D01*
X144503468Y-98465160D01*
X144492138Y-98455862D01*
X144482840Y-98444532D01*
X144475933Y-98431611D01*
X144471678Y-98417584D01*
X144470000Y-98400546D01*
X144470000Y-98155454D01*
X144471678Y-98138416D01*
X144475933Y-98124389D01*
X144482840Y-98111468D01*
X144492138Y-98100138D01*
X144503468Y-98090840D01*
X144516389Y-98083933D01*
X144530416Y-98079678D01*
X144547454Y-98078000D01*
X145942546Y-98078000D01*
X145959584Y-98079678D01*
G37*
G36*
X156089584Y-98079678D02*
G01*
X156103611Y-98083933D01*
X156116532Y-98090840D01*
X156127862Y-98100138D01*
X156137160Y-98111468D01*
X156144067Y-98124389D01*
X156148322Y-98138416D01*
X156150000Y-98155454D01*
X156150000Y-98400546D01*
X156148322Y-98417584D01*
X156144067Y-98431611D01*
X156137160Y-98444532D01*
X156127862Y-98455862D01*
X156116532Y-98465160D01*
X156103611Y-98472067D01*
X156089584Y-98476322D01*
X156072546Y-98478000D01*
X154577454Y-98478000D01*
X154560416Y-98476322D01*
X154546389Y-98472067D01*
X154533468Y-98465160D01*
X154522138Y-98455862D01*
X154512840Y-98444532D01*
X154505933Y-98431611D01*
X154501678Y-98417584D01*
X154500000Y-98400546D01*
X154500000Y-98155454D01*
X154501678Y-98138416D01*
X154505933Y-98124389D01*
X154512840Y-98111468D01*
X154522138Y-98100138D01*
X154533468Y-98090840D01*
X154546389Y-98083933D01*
X154560416Y-98079678D01*
X154577454Y-98078000D01*
X156072546Y-98078000D01*
X156089584Y-98079678D01*
G37*
G36*
X167439584Y-98079678D02*
G01*
X167453611Y-98083933D01*
X167466532Y-98090840D01*
X167477862Y-98100138D01*
X167487160Y-98111468D01*
X167494067Y-98124389D01*
X167498322Y-98138416D01*
X167500000Y-98155454D01*
X167500000Y-98400546D01*
X167498322Y-98417584D01*
X167494067Y-98431611D01*
X167487160Y-98444532D01*
X167477862Y-98455862D01*
X167466532Y-98465160D01*
X167453611Y-98472067D01*
X167439584Y-98476322D01*
X167422546Y-98478000D01*
X165927454Y-98478000D01*
X165910416Y-98476322D01*
X165896389Y-98472067D01*
X165883468Y-98465160D01*
X165872138Y-98455862D01*
X165862840Y-98444532D01*
X165855933Y-98431611D01*
X165851678Y-98417584D01*
X165850000Y-98400546D01*
X165850000Y-98155454D01*
X165851678Y-98138416D01*
X165855933Y-98124389D01*
X165862840Y-98111468D01*
X165872138Y-98100138D01*
X165883468Y-98090840D01*
X165896389Y-98083933D01*
X165910416Y-98079678D01*
X165927454Y-98078000D01*
X167422546Y-98078000D01*
X167439584Y-98079678D01*
G37*
G36*
X153448879Y-97107440D02*
G01*
X153489870Y-97119874D01*
X153527645Y-97140065D01*
X153560758Y-97167242D01*
X153587935Y-97200355D01*
X153608126Y-97238130D01*
X153620560Y-97279121D01*
X153625000Y-97324204D01*
X153625000Y-97931796D01*
X153620560Y-97976879D01*
X153608126Y-98017870D01*
X153587935Y-98055645D01*
X153560758Y-98088758D01*
X153527645Y-98115935D01*
X153489870Y-98136126D01*
X153448879Y-98148560D01*
X153403796Y-98153000D01*
X152871204Y-98153000D01*
X152826121Y-98148560D01*
X152785130Y-98136126D01*
X152747355Y-98115935D01*
X152714242Y-98088758D01*
X152687065Y-98055645D01*
X152666874Y-98017870D01*
X152654440Y-97976879D01*
X152650000Y-97931796D01*
X152650000Y-97324204D01*
X152654440Y-97279121D01*
X152666874Y-97238130D01*
X152687065Y-97200355D01*
X152714242Y-97167242D01*
X152747355Y-97140065D01*
X152785130Y-97119874D01*
X152826121Y-97107440D01*
X152871204Y-97103000D01*
X153403796Y-97103000D01*
X153448879Y-97107440D01*
G37*
G36*
X151873879Y-97107440D02*
G01*
X151914870Y-97119874D01*
X151952645Y-97140065D01*
X151985758Y-97167242D01*
X152012935Y-97200355D01*
X152033126Y-97238130D01*
X152045560Y-97279121D01*
X152050000Y-97324204D01*
X152050000Y-97931796D01*
X152045560Y-97976879D01*
X152033126Y-98017870D01*
X152012935Y-98055645D01*
X151985758Y-98088758D01*
X151952645Y-98115935D01*
X151914870Y-98136126D01*
X151873879Y-98148560D01*
X151828796Y-98153000D01*
X151296204Y-98153000D01*
X151251121Y-98148560D01*
X151210130Y-98136126D01*
X151172355Y-98115935D01*
X151139242Y-98088758D01*
X151112065Y-98055645D01*
X151091874Y-98017870D01*
X151079440Y-97976879D01*
X151075000Y-97931796D01*
X151075000Y-97324204D01*
X151079440Y-97279121D01*
X151091874Y-97238130D01*
X151112065Y-97200355D01*
X151139242Y-97167242D01*
X151172355Y-97140065D01*
X151210130Y-97119874D01*
X151251121Y-97107440D01*
X151296204Y-97103000D01*
X151828796Y-97103000D01*
X151873879Y-97107440D01*
G37*
G36*
X167439584Y-97579678D02*
G01*
X167453611Y-97583933D01*
X167466532Y-97590840D01*
X167477862Y-97600138D01*
X167487160Y-97611468D01*
X167494067Y-97624389D01*
X167498322Y-97638416D01*
X167500000Y-97655454D01*
X167500000Y-97900546D01*
X167498322Y-97917584D01*
X167494067Y-97931611D01*
X167487160Y-97944532D01*
X167477862Y-97955862D01*
X167466532Y-97965160D01*
X167453611Y-97972067D01*
X167439584Y-97976322D01*
X167422546Y-97978000D01*
X165927454Y-97978000D01*
X165910416Y-97976322D01*
X165896389Y-97972067D01*
X165883468Y-97965160D01*
X165872138Y-97955862D01*
X165862840Y-97944532D01*
X165855933Y-97931611D01*
X165851678Y-97917584D01*
X165850000Y-97900546D01*
X165850000Y-97655454D01*
X165851678Y-97638416D01*
X165855933Y-97624389D01*
X165862840Y-97611468D01*
X165872138Y-97600138D01*
X165883468Y-97590840D01*
X165896389Y-97583933D01*
X165910416Y-97579678D01*
X165927454Y-97578000D01*
X167422546Y-97578000D01*
X167439584Y-97579678D01*
G37*
G36*
X156089584Y-97579678D02*
G01*
X156103611Y-97583933D01*
X156116532Y-97590840D01*
X156127862Y-97600138D01*
X156137160Y-97611468D01*
X156144067Y-97624389D01*
X156148322Y-97638416D01*
X156150000Y-97655454D01*
X156150000Y-97900546D01*
X156148322Y-97917584D01*
X156144067Y-97931611D01*
X156137160Y-97944532D01*
X156127862Y-97955862D01*
X156116532Y-97965160D01*
X156103611Y-97972067D01*
X156089584Y-97976322D01*
X156072546Y-97978000D01*
X154577454Y-97978000D01*
X154560416Y-97976322D01*
X154546389Y-97972067D01*
X154533468Y-97965160D01*
X154522138Y-97955862D01*
X154512840Y-97944532D01*
X154505933Y-97931611D01*
X154501678Y-97917584D01*
X154500000Y-97900546D01*
X154500000Y-97655454D01*
X154501678Y-97638416D01*
X154505933Y-97624389D01*
X154512840Y-97611468D01*
X154522138Y-97600138D01*
X154533468Y-97590840D01*
X154546389Y-97583933D01*
X154560416Y-97579678D01*
X154577454Y-97578000D01*
X156072546Y-97578000D01*
X156089584Y-97579678D01*
G37*
G36*
X145959584Y-97579678D02*
G01*
X145973611Y-97583933D01*
X145986532Y-97590840D01*
X145997862Y-97600138D01*
X146007160Y-97611468D01*
X146014067Y-97624389D01*
X146018322Y-97638416D01*
X146020000Y-97655454D01*
X146020000Y-97900546D01*
X146018322Y-97917584D01*
X146014067Y-97931611D01*
X146007160Y-97944532D01*
X145997862Y-97955862D01*
X145986532Y-97965160D01*
X145973611Y-97972067D01*
X145959584Y-97976322D01*
X145942546Y-97978000D01*
X144547454Y-97978000D01*
X144530416Y-97976322D01*
X144516389Y-97972067D01*
X144503468Y-97965160D01*
X144492138Y-97955862D01*
X144482840Y-97944532D01*
X144475933Y-97931611D01*
X144471678Y-97917584D01*
X144470000Y-97900546D01*
X144470000Y-97655454D01*
X144471678Y-97638416D01*
X144475933Y-97624389D01*
X144482840Y-97611468D01*
X144492138Y-97600138D01*
X144503468Y-97590840D01*
X144516389Y-97583933D01*
X144530416Y-97579678D01*
X144547454Y-97578000D01*
X145942546Y-97578000D01*
X145959584Y-97579678D01*
G37*
G36*
X150230000Y-97853000D02*
G01*
X149070000Y-97853000D01*
X149070000Y-97103000D01*
X150230000Y-97103000D01*
X150230000Y-97853000D01*
G37*
G36*
X148030000Y-97853000D02*
G01*
X146870000Y-97853000D01*
X146870000Y-97103000D01*
X148030000Y-97103000D01*
X148030000Y-97853000D01*
G37*
G36*
X145959584Y-97079678D02*
G01*
X145973611Y-97083933D01*
X145986532Y-97090840D01*
X145997862Y-97100138D01*
X146007160Y-97111468D01*
X146014067Y-97124389D01*
X146018322Y-97138416D01*
X146020000Y-97155454D01*
X146020000Y-97400546D01*
X146018322Y-97417584D01*
X146014067Y-97431611D01*
X146007160Y-97444532D01*
X145997862Y-97455862D01*
X145986532Y-97465160D01*
X145973611Y-97472067D01*
X145959584Y-97476322D01*
X145942546Y-97478000D01*
X144547454Y-97478000D01*
X144530416Y-97476322D01*
X144516389Y-97472067D01*
X144503468Y-97465160D01*
X144492138Y-97455862D01*
X144482840Y-97444532D01*
X144475933Y-97431611D01*
X144471678Y-97417584D01*
X144470000Y-97400546D01*
X144470000Y-97155454D01*
X144471678Y-97138416D01*
X144475933Y-97124389D01*
X144482840Y-97111468D01*
X144492138Y-97100138D01*
X144503468Y-97090840D01*
X144516389Y-97083933D01*
X144530416Y-97079678D01*
X144547454Y-97078000D01*
X145942546Y-97078000D01*
X145959584Y-97079678D01*
G37*
G36*
X156089584Y-97079678D02*
G01*
X156103611Y-97083933D01*
X156116532Y-97090840D01*
X156127862Y-97100138D01*
X156137160Y-97111468D01*
X156144067Y-97124389D01*
X156148322Y-97138416D01*
X156150000Y-97155454D01*
X156150000Y-97400546D01*
X156148322Y-97417584D01*
X156144067Y-97431611D01*
X156137160Y-97444532D01*
X156127862Y-97455862D01*
X156116532Y-97465160D01*
X156103611Y-97472067D01*
X156089584Y-97476322D01*
X156072546Y-97478000D01*
X154577454Y-97478000D01*
X154560416Y-97476322D01*
X154546389Y-97472067D01*
X154533468Y-97465160D01*
X154522138Y-97455862D01*
X154512840Y-97444532D01*
X154505933Y-97431611D01*
X154501678Y-97417584D01*
X154500000Y-97400546D01*
X154500000Y-97155454D01*
X154501678Y-97138416D01*
X154505933Y-97124389D01*
X154512840Y-97111468D01*
X154522138Y-97100138D01*
X154533468Y-97090840D01*
X154546389Y-97083933D01*
X154560416Y-97079678D01*
X154577454Y-97078000D01*
X156072546Y-97078000D01*
X156089584Y-97079678D01*
G37*
G36*
X167439584Y-97079678D02*
G01*
X167453611Y-97083933D01*
X167466532Y-97090840D01*
X167477862Y-97100138D01*
X167487160Y-97111468D01*
X167494067Y-97124389D01*
X167498322Y-97138416D01*
X167500000Y-97155454D01*
X167500000Y-97400546D01*
X167498322Y-97417584D01*
X167494067Y-97431611D01*
X167487160Y-97444532D01*
X167477862Y-97455862D01*
X167466532Y-97465160D01*
X167453611Y-97472067D01*
X167439584Y-97476322D01*
X167422546Y-97478000D01*
X165927454Y-97478000D01*
X165910416Y-97476322D01*
X165896389Y-97472067D01*
X165883468Y-97465160D01*
X165872138Y-97455862D01*
X165862840Y-97444532D01*
X165855933Y-97431611D01*
X165851678Y-97417584D01*
X165850000Y-97400546D01*
X165850000Y-97155454D01*
X165851678Y-97138416D01*
X165855933Y-97124389D01*
X165862840Y-97111468D01*
X165872138Y-97100138D01*
X165883468Y-97090840D01*
X165896389Y-97083933D01*
X165910416Y-97079678D01*
X165927454Y-97078000D01*
X167422546Y-97078000D01*
X167439584Y-97079678D01*
G37*
G36*
X167439584Y-96579678D02*
G01*
X167453611Y-96583933D01*
X167466532Y-96590840D01*
X167477862Y-96600138D01*
X167487160Y-96611468D01*
X167494067Y-96624389D01*
X167498322Y-96638416D01*
X167500000Y-96655454D01*
X167500000Y-96900546D01*
X167498322Y-96917584D01*
X167494067Y-96931611D01*
X167487160Y-96944532D01*
X167477862Y-96955862D01*
X167466532Y-96965160D01*
X167453611Y-96972067D01*
X167439584Y-96976322D01*
X167422546Y-96978000D01*
X165927454Y-96978000D01*
X165910416Y-96976322D01*
X165896389Y-96972067D01*
X165883468Y-96965160D01*
X165872138Y-96955862D01*
X165862840Y-96944532D01*
X165855933Y-96931611D01*
X165851678Y-96917584D01*
X165850000Y-96900546D01*
X165850000Y-96655454D01*
X165851678Y-96638416D01*
X165855933Y-96624389D01*
X165862840Y-96611468D01*
X165872138Y-96600138D01*
X165883468Y-96590840D01*
X165896389Y-96583933D01*
X165910416Y-96579678D01*
X165927454Y-96578000D01*
X167422546Y-96578000D01*
X167439584Y-96579678D01*
G37*
G36*
X145959584Y-96579678D02*
G01*
X145973611Y-96583933D01*
X145986532Y-96590840D01*
X145997862Y-96600138D01*
X146007160Y-96611468D01*
X146014067Y-96624389D01*
X146018322Y-96638416D01*
X146020000Y-96655454D01*
X146020000Y-96900546D01*
X146018322Y-96917584D01*
X146014067Y-96931611D01*
X146007160Y-96944532D01*
X145997862Y-96955862D01*
X145986532Y-96965160D01*
X145973611Y-96972067D01*
X145959584Y-96976322D01*
X145942546Y-96978000D01*
X144547454Y-96978000D01*
X144530416Y-96976322D01*
X144516389Y-96972067D01*
X144503468Y-96965160D01*
X144492138Y-96955862D01*
X144482840Y-96944532D01*
X144475933Y-96931611D01*
X144471678Y-96917584D01*
X144470000Y-96900546D01*
X144470000Y-96655454D01*
X144471678Y-96638416D01*
X144475933Y-96624389D01*
X144482840Y-96611468D01*
X144492138Y-96600138D01*
X144503468Y-96590840D01*
X144516389Y-96583933D01*
X144530416Y-96579678D01*
X144547454Y-96578000D01*
X145942546Y-96578000D01*
X145959584Y-96579678D01*
G37*
G36*
X156089584Y-96579678D02*
G01*
X156103611Y-96583933D01*
X156116532Y-96590840D01*
X156127862Y-96600138D01*
X156137160Y-96611468D01*
X156144067Y-96624389D01*
X156148322Y-96638416D01*
X156150000Y-96655454D01*
X156150000Y-96900546D01*
X156148322Y-96917584D01*
X156144067Y-96931611D01*
X156137160Y-96944532D01*
X156127862Y-96955862D01*
X156116532Y-96965160D01*
X156103611Y-96972067D01*
X156089584Y-96976322D01*
X156072546Y-96978000D01*
X154577454Y-96978000D01*
X154560416Y-96976322D01*
X154546389Y-96972067D01*
X154533468Y-96965160D01*
X154522138Y-96955862D01*
X154512840Y-96944532D01*
X154505933Y-96931611D01*
X154501678Y-96917584D01*
X154500000Y-96900546D01*
X154500000Y-96655454D01*
X154501678Y-96638416D01*
X154505933Y-96624389D01*
X154512840Y-96611468D01*
X154522138Y-96600138D01*
X154533468Y-96590840D01*
X154546389Y-96583933D01*
X154560416Y-96579678D01*
X154577454Y-96578000D01*
X156072546Y-96578000D01*
X156089584Y-96579678D01*
G37*
G36*
X150230000Y-96903000D02*
G01*
X149070000Y-96903000D01*
X149070000Y-96153000D01*
X150230000Y-96153000D01*
X150230000Y-96903000D01*
G37*
G36*
X148030000Y-96903000D02*
G01*
X146870000Y-96903000D01*
X146870000Y-96153000D01*
X148030000Y-96153000D01*
X148030000Y-96903000D01*
G37*
G36*
X167439584Y-96079678D02*
G01*
X167453611Y-96083933D01*
X167466532Y-96090840D01*
X167477862Y-96100138D01*
X167487160Y-96111468D01*
X167494067Y-96124389D01*
X167498322Y-96138416D01*
X167500000Y-96155454D01*
X167500000Y-96400546D01*
X167498322Y-96417584D01*
X167494067Y-96431611D01*
X167487160Y-96444532D01*
X167477862Y-96455862D01*
X167466532Y-96465160D01*
X167453611Y-96472067D01*
X167439584Y-96476322D01*
X167422546Y-96478000D01*
X165927454Y-96478000D01*
X165910416Y-96476322D01*
X165896389Y-96472067D01*
X165883468Y-96465160D01*
X165872138Y-96455862D01*
X165862840Y-96444532D01*
X165855933Y-96431611D01*
X165851678Y-96417584D01*
X165850000Y-96400546D01*
X165850000Y-96155454D01*
X165851678Y-96138416D01*
X165855933Y-96124389D01*
X165862840Y-96111468D01*
X165872138Y-96100138D01*
X165883468Y-96090840D01*
X165896389Y-96083933D01*
X165910416Y-96079678D01*
X165927454Y-96078000D01*
X167422546Y-96078000D01*
X167439584Y-96079678D01*
G37*
G36*
X156089584Y-96079678D02*
G01*
X156103611Y-96083933D01*
X156116532Y-96090840D01*
X156127862Y-96100138D01*
X156137160Y-96111468D01*
X156144067Y-96124389D01*
X156148322Y-96138416D01*
X156150000Y-96155454D01*
X156150000Y-96400546D01*
X156148322Y-96417584D01*
X156144067Y-96431611D01*
X156137160Y-96444532D01*
X156127862Y-96455862D01*
X156116532Y-96465160D01*
X156103611Y-96472067D01*
X156089584Y-96476322D01*
X156072546Y-96478000D01*
X154577454Y-96478000D01*
X154560416Y-96476322D01*
X154546389Y-96472067D01*
X154533468Y-96465160D01*
X154522138Y-96455862D01*
X154512840Y-96444532D01*
X154505933Y-96431611D01*
X154501678Y-96417584D01*
X154500000Y-96400546D01*
X154500000Y-96155454D01*
X154501678Y-96138416D01*
X154505933Y-96124389D01*
X154512840Y-96111468D01*
X154522138Y-96100138D01*
X154533468Y-96090840D01*
X154546389Y-96083933D01*
X154560416Y-96079678D01*
X154577454Y-96078000D01*
X156072546Y-96078000D01*
X156089584Y-96079678D01*
G37*
G36*
X145959584Y-96079678D02*
G01*
X145973611Y-96083933D01*
X145986532Y-96090840D01*
X145997862Y-96100138D01*
X146007160Y-96111468D01*
X146014067Y-96124389D01*
X146018322Y-96138416D01*
X146020000Y-96155454D01*
X146020000Y-96400546D01*
X146018322Y-96417584D01*
X146014067Y-96431611D01*
X146007160Y-96444532D01*
X145997862Y-96455862D01*
X145986532Y-96465160D01*
X145973611Y-96472067D01*
X145959584Y-96476322D01*
X145942546Y-96478000D01*
X144547454Y-96478000D01*
X144530416Y-96476322D01*
X144516389Y-96472067D01*
X144503468Y-96465160D01*
X144492138Y-96455862D01*
X144482840Y-96444532D01*
X144475933Y-96431611D01*
X144471678Y-96417584D01*
X144470000Y-96400546D01*
X144470000Y-96155454D01*
X144471678Y-96138416D01*
X144475933Y-96124389D01*
X144482840Y-96111468D01*
X144492138Y-96100138D01*
X144503468Y-96090840D01*
X144516389Y-96083933D01*
X144530416Y-96079678D01*
X144547454Y-96078000D01*
X145942546Y-96078000D01*
X145959584Y-96079678D01*
G37*
G36*
X168898879Y-95332440D02*
G01*
X168939870Y-95344874D01*
X168977645Y-95365065D01*
X169010758Y-95392242D01*
X169037935Y-95425355D01*
X169058126Y-95463130D01*
X169070560Y-95504121D01*
X169075000Y-95549204D01*
X169075000Y-96081796D01*
X169070560Y-96126879D01*
X169058126Y-96167870D01*
X169037935Y-96205645D01*
X169010758Y-96238758D01*
X168977645Y-96265935D01*
X168939870Y-96286126D01*
X168898879Y-96298560D01*
X168853796Y-96303000D01*
X168246204Y-96303000D01*
X168201121Y-96298560D01*
X168160130Y-96286126D01*
X168122355Y-96265935D01*
X168089242Y-96238758D01*
X168062065Y-96205645D01*
X168041874Y-96167870D01*
X168029440Y-96126879D01*
X168025000Y-96081796D01*
X168025000Y-95549204D01*
X168029440Y-95504121D01*
X168041874Y-95463130D01*
X168062065Y-95425355D01*
X168089242Y-95392242D01*
X168122355Y-95365065D01*
X168160130Y-95344874D01*
X168201121Y-95332440D01*
X168246204Y-95328000D01*
X168853796Y-95328000D01*
X168898879Y-95332440D01*
G37*
G36*
X167439584Y-95579678D02*
G01*
X167453611Y-95583933D01*
X167466532Y-95590840D01*
X167477862Y-95600138D01*
X167487160Y-95611468D01*
X167494067Y-95624389D01*
X167498322Y-95638416D01*
X167500000Y-95655454D01*
X167500000Y-95900546D01*
X167498322Y-95917584D01*
X167494067Y-95931611D01*
X167487160Y-95944532D01*
X167477862Y-95955862D01*
X167466532Y-95965160D01*
X167453611Y-95972067D01*
X167439584Y-95976322D01*
X167422546Y-95978000D01*
X165927454Y-95978000D01*
X165910416Y-95976322D01*
X165896389Y-95972067D01*
X165883468Y-95965160D01*
X165872138Y-95955862D01*
X165862840Y-95944532D01*
X165855933Y-95931611D01*
X165851678Y-95917584D01*
X165850000Y-95900546D01*
X165850000Y-95655454D01*
X165851678Y-95638416D01*
X165855933Y-95624389D01*
X165862840Y-95611468D01*
X165872138Y-95600138D01*
X165883468Y-95590840D01*
X165896389Y-95583933D01*
X165910416Y-95579678D01*
X165927454Y-95578000D01*
X167422546Y-95578000D01*
X167439584Y-95579678D01*
G37*
G36*
X156089584Y-95579678D02*
G01*
X156103611Y-95583933D01*
X156116532Y-95590840D01*
X156127862Y-95600138D01*
X156137160Y-95611468D01*
X156144067Y-95624389D01*
X156148322Y-95638416D01*
X156150000Y-95655454D01*
X156150000Y-95900546D01*
X156148322Y-95917584D01*
X156144067Y-95931611D01*
X156137160Y-95944532D01*
X156127862Y-95955862D01*
X156116532Y-95965160D01*
X156103611Y-95972067D01*
X156089584Y-95976322D01*
X156072546Y-95978000D01*
X154577454Y-95978000D01*
X154560416Y-95976322D01*
X154546389Y-95972067D01*
X154533468Y-95965160D01*
X154522138Y-95955862D01*
X154512840Y-95944532D01*
X154505933Y-95931611D01*
X154501678Y-95917584D01*
X154500000Y-95900546D01*
X154500000Y-95655454D01*
X154501678Y-95638416D01*
X154505933Y-95624389D01*
X154512840Y-95611468D01*
X154522138Y-95600138D01*
X154533468Y-95590840D01*
X154546389Y-95583933D01*
X154560416Y-95579678D01*
X154577454Y-95578000D01*
X156072546Y-95578000D01*
X156089584Y-95579678D01*
G37*
G36*
X145959584Y-95579678D02*
G01*
X145973611Y-95583933D01*
X145986532Y-95590840D01*
X145997862Y-95600138D01*
X146007160Y-95611468D01*
X146014067Y-95624389D01*
X146018322Y-95638416D01*
X146020000Y-95655454D01*
X146020000Y-95900546D01*
X146018322Y-95917584D01*
X146014067Y-95931611D01*
X146007160Y-95944532D01*
X145997862Y-95955862D01*
X145986532Y-95965160D01*
X145973611Y-95972067D01*
X145959584Y-95976322D01*
X145942546Y-95978000D01*
X144547454Y-95978000D01*
X144530416Y-95976322D01*
X144516389Y-95972067D01*
X144503468Y-95965160D01*
X144492138Y-95955862D01*
X144482840Y-95944532D01*
X144475933Y-95931611D01*
X144471678Y-95917584D01*
X144470000Y-95900546D01*
X144470000Y-95655454D01*
X144471678Y-95638416D01*
X144475933Y-95624389D01*
X144482840Y-95611468D01*
X144492138Y-95600138D01*
X144503468Y-95590840D01*
X144516389Y-95583933D01*
X144530416Y-95579678D01*
X144547454Y-95578000D01*
X145942546Y-95578000D01*
X145959584Y-95579678D01*
G37*
G36*
X148030000Y-95953000D02*
G01*
X146870000Y-95953000D01*
X146870000Y-95203000D01*
X148030000Y-95203000D01*
X148030000Y-95953000D01*
G37*
G36*
X150230000Y-95953000D02*
G01*
X149070000Y-95953000D01*
X149070000Y-95203000D01*
X150230000Y-95203000D01*
X150230000Y-95953000D01*
G37*
G36*
X151873879Y-94907440D02*
G01*
X151914870Y-94919874D01*
X151952645Y-94940065D01*
X151985758Y-94967242D01*
X152012935Y-95000355D01*
X152033126Y-95038130D01*
X152045560Y-95079121D01*
X152050000Y-95124204D01*
X152050000Y-95731796D01*
X152045560Y-95776879D01*
X152033126Y-95817870D01*
X152012935Y-95855645D01*
X151985758Y-95888758D01*
X151952645Y-95915935D01*
X151914870Y-95936126D01*
X151873879Y-95948560D01*
X151828796Y-95953000D01*
X151296204Y-95953000D01*
X151251121Y-95948560D01*
X151210130Y-95936126D01*
X151172355Y-95915935D01*
X151139242Y-95888758D01*
X151112065Y-95855645D01*
X151091874Y-95817870D01*
X151079440Y-95776879D01*
X151075000Y-95731796D01*
X151075000Y-95124204D01*
X151079440Y-95079121D01*
X151091874Y-95038130D01*
X151112065Y-95000355D01*
X151139242Y-94967242D01*
X151172355Y-94940065D01*
X151210130Y-94919874D01*
X151251121Y-94907440D01*
X151296204Y-94903000D01*
X151828796Y-94903000D01*
X151873879Y-94907440D01*
G37*
G36*
X153448879Y-94907440D02*
G01*
X153489870Y-94919874D01*
X153527645Y-94940065D01*
X153560758Y-94967242D01*
X153587935Y-95000355D01*
X153608126Y-95038130D01*
X153620560Y-95079121D01*
X153625000Y-95124204D01*
X153625000Y-95731796D01*
X153620560Y-95776879D01*
X153608126Y-95817870D01*
X153587935Y-95855645D01*
X153560758Y-95888758D01*
X153527645Y-95915935D01*
X153489870Y-95936126D01*
X153448879Y-95948560D01*
X153403796Y-95953000D01*
X152871204Y-95953000D01*
X152826121Y-95948560D01*
X152785130Y-95936126D01*
X152747355Y-95915935D01*
X152714242Y-95888758D01*
X152687065Y-95855645D01*
X152666874Y-95817870D01*
X152654440Y-95776879D01*
X152650000Y-95731796D01*
X152650000Y-95124204D01*
X152654440Y-95079121D01*
X152666874Y-95038130D01*
X152687065Y-95000355D01*
X152714242Y-94967242D01*
X152747355Y-94940065D01*
X152785130Y-94919874D01*
X152826121Y-94907440D01*
X152871204Y-94903000D01*
X153403796Y-94903000D01*
X153448879Y-94907440D01*
G37*
G36*
X145959584Y-95079678D02*
G01*
X145973611Y-95083933D01*
X145986532Y-95090840D01*
X145997862Y-95100138D01*
X146007160Y-95111468D01*
X146014067Y-95124389D01*
X146018322Y-95138416D01*
X146020000Y-95155454D01*
X146020000Y-95400546D01*
X146018322Y-95417584D01*
X146014067Y-95431611D01*
X146007160Y-95444532D01*
X145997862Y-95455862D01*
X145986532Y-95465160D01*
X145973611Y-95472067D01*
X145959584Y-95476322D01*
X145942546Y-95478000D01*
X144547454Y-95478000D01*
X144530416Y-95476322D01*
X144516389Y-95472067D01*
X144503468Y-95465160D01*
X144492138Y-95455862D01*
X144482840Y-95444532D01*
X144475933Y-95431611D01*
X144471678Y-95417584D01*
X144470000Y-95400546D01*
X144470000Y-95155454D01*
X144471678Y-95138416D01*
X144475933Y-95124389D01*
X144482840Y-95111468D01*
X144492138Y-95100138D01*
X144503468Y-95090840D01*
X144516389Y-95083933D01*
X144530416Y-95079678D01*
X144547454Y-95078000D01*
X145942546Y-95078000D01*
X145959584Y-95079678D01*
G37*
G36*
X167439584Y-95079678D02*
G01*
X167453611Y-95083933D01*
X167466532Y-95090840D01*
X167477862Y-95100138D01*
X167487160Y-95111468D01*
X167494067Y-95124389D01*
X167498322Y-95138416D01*
X167500000Y-95155454D01*
X167500000Y-95400546D01*
X167498322Y-95417584D01*
X167494067Y-95431611D01*
X167487160Y-95444532D01*
X167477862Y-95455862D01*
X167466532Y-95465160D01*
X167453611Y-95472067D01*
X167439584Y-95476322D01*
X167422546Y-95478000D01*
X165927454Y-95478000D01*
X165910416Y-95476322D01*
X165896389Y-95472067D01*
X165883468Y-95465160D01*
X165872138Y-95455862D01*
X165862840Y-95444532D01*
X165855933Y-95431611D01*
X165851678Y-95417584D01*
X165850000Y-95400546D01*
X165850000Y-95155454D01*
X165851678Y-95138416D01*
X165855933Y-95124389D01*
X165862840Y-95111468D01*
X165872138Y-95100138D01*
X165883468Y-95090840D01*
X165896389Y-95083933D01*
X165910416Y-95079678D01*
X165927454Y-95078000D01*
X167422546Y-95078000D01*
X167439584Y-95079678D01*
G37*
G36*
X156089584Y-95079678D02*
G01*
X156103611Y-95083933D01*
X156116532Y-95090840D01*
X156127862Y-95100138D01*
X156137160Y-95111468D01*
X156144067Y-95124389D01*
X156148322Y-95138416D01*
X156150000Y-95155454D01*
X156150000Y-95400546D01*
X156148322Y-95417584D01*
X156144067Y-95431611D01*
X156137160Y-95444532D01*
X156127862Y-95455862D01*
X156116532Y-95465160D01*
X156103611Y-95472067D01*
X156089584Y-95476322D01*
X156072546Y-95478000D01*
X154577454Y-95478000D01*
X154560416Y-95476322D01*
X154546389Y-95472067D01*
X154533468Y-95465160D01*
X154522138Y-95455862D01*
X154512840Y-95444532D01*
X154505933Y-95431611D01*
X154501678Y-95417584D01*
X154500000Y-95400546D01*
X154500000Y-95155454D01*
X154501678Y-95138416D01*
X154505933Y-95124389D01*
X154512840Y-95111468D01*
X154522138Y-95100138D01*
X154533468Y-95090840D01*
X154546389Y-95083933D01*
X154560416Y-95079678D01*
X154577454Y-95078000D01*
X156072546Y-95078000D01*
X156089584Y-95079678D01*
G37*
G36*
X156089584Y-94579678D02*
G01*
X156103611Y-94583933D01*
X156116532Y-94590840D01*
X156127862Y-94600138D01*
X156137160Y-94611468D01*
X156144067Y-94624389D01*
X156148322Y-94638416D01*
X156150000Y-94655454D01*
X156150000Y-94900546D01*
X156148322Y-94917584D01*
X156144067Y-94931611D01*
X156137160Y-94944532D01*
X156127862Y-94955862D01*
X156116532Y-94965160D01*
X156103611Y-94972067D01*
X156089584Y-94976322D01*
X156072546Y-94978000D01*
X154577454Y-94978000D01*
X154560416Y-94976322D01*
X154546389Y-94972067D01*
X154533468Y-94965160D01*
X154522138Y-94955862D01*
X154512840Y-94944532D01*
X154505933Y-94931611D01*
X154501678Y-94917584D01*
X154500000Y-94900546D01*
X154500000Y-94655454D01*
X154501678Y-94638416D01*
X154505933Y-94624389D01*
X154512840Y-94611468D01*
X154522138Y-94600138D01*
X154533468Y-94590840D01*
X154546389Y-94583933D01*
X154560416Y-94579678D01*
X154577454Y-94578000D01*
X156072546Y-94578000D01*
X156089584Y-94579678D01*
G37*
G36*
X167439584Y-94579678D02*
G01*
X167453611Y-94583933D01*
X167466532Y-94590840D01*
X167477862Y-94600138D01*
X167487160Y-94611468D01*
X167494067Y-94624389D01*
X167498322Y-94638416D01*
X167500000Y-94655454D01*
X167500000Y-94900546D01*
X167498322Y-94917584D01*
X167494067Y-94931611D01*
X167487160Y-94944532D01*
X167477862Y-94955862D01*
X167466532Y-94965160D01*
X167453611Y-94972067D01*
X167439584Y-94976322D01*
X167422546Y-94978000D01*
X165927454Y-94978000D01*
X165910416Y-94976322D01*
X165896389Y-94972067D01*
X165883468Y-94965160D01*
X165872138Y-94955862D01*
X165862840Y-94944532D01*
X165855933Y-94931611D01*
X165851678Y-94917584D01*
X165850000Y-94900546D01*
X165850000Y-94655454D01*
X165851678Y-94638416D01*
X165855933Y-94624389D01*
X165862840Y-94611468D01*
X165872138Y-94600138D01*
X165883468Y-94590840D01*
X165896389Y-94583933D01*
X165910416Y-94579678D01*
X165927454Y-94578000D01*
X167422546Y-94578000D01*
X167439584Y-94579678D01*
G37*
G36*
X145899216Y-94231119D02*
G01*
X145927309Y-94239641D01*
X145953204Y-94253483D01*
X145975896Y-94272104D01*
X145994517Y-94294796D01*
X146008359Y-94320691D01*
X146016881Y-94348784D01*
X146020000Y-94380454D01*
X146020000Y-94775546D01*
X146016881Y-94807216D01*
X146008359Y-94835309D01*
X145994517Y-94861204D01*
X145975896Y-94883896D01*
X145953204Y-94902517D01*
X145927309Y-94916359D01*
X145899216Y-94924881D01*
X145867546Y-94928000D01*
X144622454Y-94928000D01*
X144590784Y-94924881D01*
X144562691Y-94916359D01*
X144536796Y-94902517D01*
X144514104Y-94883896D01*
X144495483Y-94861204D01*
X144481641Y-94835309D01*
X144473119Y-94807216D01*
X144470000Y-94775546D01*
X144470000Y-94380454D01*
X144473119Y-94348784D01*
X144481641Y-94320691D01*
X144495483Y-94294796D01*
X144514104Y-94272104D01*
X144536796Y-94253483D01*
X144562691Y-94239641D01*
X144590784Y-94231119D01*
X144622454Y-94228000D01*
X145867546Y-94228000D01*
X145899216Y-94231119D01*
G37*
G36*
X168898879Y-93757440D02*
G01*
X168939870Y-93769874D01*
X168977645Y-93790065D01*
X169010758Y-93817242D01*
X169037935Y-93850355D01*
X169058126Y-93888130D01*
X169070560Y-93929121D01*
X169075000Y-93974204D01*
X169075000Y-94506796D01*
X169070560Y-94551879D01*
X169058126Y-94592870D01*
X169037935Y-94630645D01*
X169010758Y-94663758D01*
X168977645Y-94690935D01*
X168939870Y-94711126D01*
X168898879Y-94723560D01*
X168853796Y-94728000D01*
X168246204Y-94728000D01*
X168201121Y-94723560D01*
X168160130Y-94711126D01*
X168122355Y-94690935D01*
X168089242Y-94663758D01*
X168062065Y-94630645D01*
X168041874Y-94592870D01*
X168029440Y-94551879D01*
X168025000Y-94506796D01*
X168025000Y-93974204D01*
X168029440Y-93929121D01*
X168041874Y-93888130D01*
X168062065Y-93850355D01*
X168089242Y-93817242D01*
X168122355Y-93790065D01*
X168160130Y-93769874D01*
X168201121Y-93757440D01*
X168246204Y-93753000D01*
X168853796Y-93753000D01*
X168898879Y-93757440D01*
G37*
G36*
X143909383Y-93777411D02*
G01*
X143949623Y-93794079D01*
X143977629Y-93805680D01*
X144005635Y-93824393D01*
X144039047Y-93846718D01*
X144091282Y-93898953D01*
X144132321Y-93960373D01*
X144160589Y-94028617D01*
X144175000Y-94101065D01*
X144175000Y-94174935D01*
X144160589Y-94247383D01*
X144140950Y-94294796D01*
X144132320Y-94315629D01*
X144091281Y-94377048D01*
X144039048Y-94429281D01*
X143977629Y-94470320D01*
X143977628Y-94470321D01*
X143977627Y-94470321D01*
X143909383Y-94498589D01*
X143836935Y-94513000D01*
X143763065Y-94513000D01*
X143690617Y-94498589D01*
X143622373Y-94470321D01*
X143622372Y-94470321D01*
X143622371Y-94470320D01*
X143560952Y-94429281D01*
X143508719Y-94377048D01*
X143467680Y-94315629D01*
X143459051Y-94294796D01*
X143439411Y-94247383D01*
X143425000Y-94174935D01*
X143425000Y-94101065D01*
X143439411Y-94028617D01*
X143467679Y-93960373D01*
X143508718Y-93898953D01*
X143560953Y-93846718D01*
X143594365Y-93824393D01*
X143622371Y-93805680D01*
X143650378Y-93794079D01*
X143690617Y-93777411D01*
X143763065Y-93763000D01*
X143836935Y-93763000D01*
X143909383Y-93777411D01*
G37*
G36*
X167439584Y-94079678D02*
G01*
X167453611Y-94083933D01*
X167466532Y-94090840D01*
X167477862Y-94100138D01*
X167487160Y-94111468D01*
X167494067Y-94124389D01*
X167498322Y-94138416D01*
X167500000Y-94155454D01*
X167500000Y-94400546D01*
X167498322Y-94417584D01*
X167494067Y-94431611D01*
X167487160Y-94444532D01*
X167477862Y-94455862D01*
X167466532Y-94465160D01*
X167453611Y-94472067D01*
X167439584Y-94476322D01*
X167422546Y-94478000D01*
X165927454Y-94478000D01*
X165910416Y-94476322D01*
X165896389Y-94472067D01*
X165883468Y-94465160D01*
X165872138Y-94455862D01*
X165862840Y-94444532D01*
X165855933Y-94431611D01*
X165851678Y-94417584D01*
X165850000Y-94400546D01*
X165850000Y-94155454D01*
X165851678Y-94138416D01*
X165855933Y-94124389D01*
X165862840Y-94111468D01*
X165872138Y-94100138D01*
X165883468Y-94090840D01*
X165896389Y-94083933D01*
X165910416Y-94079678D01*
X165927454Y-94078000D01*
X167422546Y-94078000D01*
X167439584Y-94079678D01*
G37*
G36*
X156089584Y-94079678D02*
G01*
X156103611Y-94083933D01*
X156116532Y-94090840D01*
X156127862Y-94100138D01*
X156137160Y-94111468D01*
X156144067Y-94124389D01*
X156148322Y-94138416D01*
X156150000Y-94155454D01*
X156150000Y-94400546D01*
X156148322Y-94417584D01*
X156144067Y-94431611D01*
X156137160Y-94444532D01*
X156127862Y-94455862D01*
X156116532Y-94465160D01*
X156103611Y-94472067D01*
X156089584Y-94476322D01*
X156072546Y-94478000D01*
X154577454Y-94478000D01*
X154560416Y-94476322D01*
X154546389Y-94472067D01*
X154533468Y-94465160D01*
X154522138Y-94455862D01*
X154512840Y-94444532D01*
X154505933Y-94431611D01*
X154501678Y-94417584D01*
X154500000Y-94400546D01*
X154500000Y-94155454D01*
X154501678Y-94138416D01*
X154505933Y-94124389D01*
X154512840Y-94111468D01*
X154522138Y-94100138D01*
X154533468Y-94090840D01*
X154546389Y-94083933D01*
X154560416Y-94079678D01*
X154577454Y-94078000D01*
X156072546Y-94078000D01*
X156089584Y-94079678D01*
G37*
G36*
X150048879Y-93407440D02*
G01*
X150089870Y-93419874D01*
X150127645Y-93440065D01*
X150160758Y-93467242D01*
X150187935Y-93500355D01*
X150208126Y-93538130D01*
X150220560Y-93579121D01*
X150225000Y-93624204D01*
X150225000Y-94231796D01*
X150220560Y-94276879D01*
X150208126Y-94317870D01*
X150187935Y-94355645D01*
X150160758Y-94388758D01*
X150127645Y-94415935D01*
X150089870Y-94436126D01*
X150048879Y-94448560D01*
X150003796Y-94453000D01*
X149471204Y-94453000D01*
X149426121Y-94448560D01*
X149385130Y-94436126D01*
X149347355Y-94415935D01*
X149314242Y-94388758D01*
X149287065Y-94355645D01*
X149266874Y-94317870D01*
X149254440Y-94276879D01*
X149250000Y-94231796D01*
X149250000Y-93624204D01*
X149254440Y-93579121D01*
X149266874Y-93538130D01*
X149287065Y-93500355D01*
X149314242Y-93467242D01*
X149347355Y-93440065D01*
X149385130Y-93419874D01*
X149426121Y-93407440D01*
X149471204Y-93403000D01*
X150003796Y-93403000D01*
X150048879Y-93407440D01*
G37*
G36*
X153448879Y-93407440D02*
G01*
X153489870Y-93419874D01*
X153527645Y-93440065D01*
X153560758Y-93467242D01*
X153587935Y-93500355D01*
X153608126Y-93538130D01*
X153620560Y-93579121D01*
X153625000Y-93624204D01*
X153625000Y-94231796D01*
X153620560Y-94276879D01*
X153608126Y-94317870D01*
X153587935Y-94355645D01*
X153560758Y-94388758D01*
X153527645Y-94415935D01*
X153489870Y-94436126D01*
X153448879Y-94448560D01*
X153403796Y-94453000D01*
X152871204Y-94453000D01*
X152826121Y-94448560D01*
X152785130Y-94436126D01*
X152747355Y-94415935D01*
X152714242Y-94388758D01*
X152687065Y-94355645D01*
X152666874Y-94317870D01*
X152654440Y-94276879D01*
X152650000Y-94231796D01*
X152650000Y-93624204D01*
X152654440Y-93579121D01*
X152666874Y-93538130D01*
X152687065Y-93500355D01*
X152714242Y-93467242D01*
X152747355Y-93440065D01*
X152785130Y-93419874D01*
X152826121Y-93407440D01*
X152871204Y-93403000D01*
X153403796Y-93403000D01*
X153448879Y-93407440D01*
G37*
G36*
X148473879Y-93407440D02*
G01*
X148514870Y-93419874D01*
X148552645Y-93440065D01*
X148585758Y-93467242D01*
X148612935Y-93500355D01*
X148633126Y-93538130D01*
X148645560Y-93579121D01*
X148650000Y-93624204D01*
X148650000Y-94231796D01*
X148645560Y-94276879D01*
X148633126Y-94317870D01*
X148612935Y-94355645D01*
X148585758Y-94388758D01*
X148552645Y-94415935D01*
X148514870Y-94436126D01*
X148473879Y-94448560D01*
X148428796Y-94453000D01*
X147896204Y-94453000D01*
X147851121Y-94448560D01*
X147810130Y-94436126D01*
X147772355Y-94415935D01*
X147739242Y-94388758D01*
X147712065Y-94355645D01*
X147691874Y-94317870D01*
X147679440Y-94276879D01*
X147675000Y-94231796D01*
X147675000Y-93624204D01*
X147679440Y-93579121D01*
X147691874Y-93538130D01*
X147712065Y-93500355D01*
X147739242Y-93467242D01*
X147772355Y-93440065D01*
X147810130Y-93419874D01*
X147851121Y-93407440D01*
X147896204Y-93403000D01*
X148428796Y-93403000D01*
X148473879Y-93407440D01*
G37*
G36*
X151873879Y-93407440D02*
G01*
X151914870Y-93419874D01*
X151952645Y-93440065D01*
X151985758Y-93467242D01*
X152012935Y-93500355D01*
X152033126Y-93538130D01*
X152045560Y-93579121D01*
X152050000Y-93624204D01*
X152050000Y-94231796D01*
X152045560Y-94276879D01*
X152033126Y-94317870D01*
X152012935Y-94355645D01*
X151985758Y-94388758D01*
X151952645Y-94415935D01*
X151914870Y-94436126D01*
X151873879Y-94448560D01*
X151828796Y-94453000D01*
X151296204Y-94453000D01*
X151251121Y-94448560D01*
X151210130Y-94436126D01*
X151172355Y-94415935D01*
X151139242Y-94388758D01*
X151112065Y-94355645D01*
X151091874Y-94317870D01*
X151079440Y-94276879D01*
X151075000Y-94231796D01*
X151075000Y-93624204D01*
X151079440Y-93579121D01*
X151091874Y-93538130D01*
X151112065Y-93500355D01*
X151139242Y-93467242D01*
X151172355Y-93440065D01*
X151210130Y-93419874D01*
X151251121Y-93407440D01*
X151296204Y-93403000D01*
X151828796Y-93403000D01*
X151873879Y-93407440D01*
G37*
G36*
X145899216Y-93431119D02*
G01*
X145927309Y-93439641D01*
X145953204Y-93453483D01*
X145975896Y-93472104D01*
X145994517Y-93494796D01*
X146008359Y-93520691D01*
X146016881Y-93548784D01*
X146020000Y-93580454D01*
X146020000Y-93975546D01*
X146016881Y-94007216D01*
X146008359Y-94035309D01*
X145994517Y-94061204D01*
X145975896Y-94083896D01*
X145953204Y-94102517D01*
X145927309Y-94116359D01*
X145899216Y-94124881D01*
X145867546Y-94128000D01*
X144622454Y-94128000D01*
X144590784Y-94124881D01*
X144562691Y-94116359D01*
X144536796Y-94102517D01*
X144514104Y-94083896D01*
X144495483Y-94061204D01*
X144481641Y-94035309D01*
X144473119Y-94007216D01*
X144470000Y-93975546D01*
X144470000Y-93580454D01*
X144473119Y-93548784D01*
X144481641Y-93520691D01*
X144495483Y-93494796D01*
X144514104Y-93472104D01*
X144536796Y-93453483D01*
X144562691Y-93439641D01*
X144590784Y-93431119D01*
X144622454Y-93428000D01*
X145867546Y-93428000D01*
X145899216Y-93431119D01*
G37*
G36*
X156089584Y-93579678D02*
G01*
X156103611Y-93583933D01*
X156116532Y-93590840D01*
X156127862Y-93600138D01*
X156137160Y-93611468D01*
X156144067Y-93624389D01*
X156148322Y-93638416D01*
X156150000Y-93655454D01*
X156150000Y-93900546D01*
X156148322Y-93917584D01*
X156144067Y-93931611D01*
X156137160Y-93944532D01*
X156127862Y-93955862D01*
X156116532Y-93965160D01*
X156103611Y-93972067D01*
X156089584Y-93976322D01*
X156072546Y-93978000D01*
X154577454Y-93978000D01*
X154560416Y-93976322D01*
X154546389Y-93972067D01*
X154533468Y-93965160D01*
X154522138Y-93955862D01*
X154512840Y-93944532D01*
X154505933Y-93931611D01*
X154501678Y-93917584D01*
X154500000Y-93900546D01*
X154500000Y-93655454D01*
X154501678Y-93638416D01*
X154505933Y-93624389D01*
X154512840Y-93611468D01*
X154522138Y-93600138D01*
X154533468Y-93590840D01*
X154546389Y-93583933D01*
X154560416Y-93579678D01*
X154577454Y-93578000D01*
X156072546Y-93578000D01*
X156089584Y-93579678D01*
G37*
G36*
X167439584Y-93579678D02*
G01*
X167453611Y-93583933D01*
X167466532Y-93590840D01*
X167477862Y-93600138D01*
X167487160Y-93611468D01*
X167494067Y-93624389D01*
X167498322Y-93638416D01*
X167500000Y-93655454D01*
X167500000Y-93900546D01*
X167498322Y-93917584D01*
X167494067Y-93931611D01*
X167487160Y-93944532D01*
X167477862Y-93955862D01*
X167466532Y-93965160D01*
X167453611Y-93972067D01*
X167439584Y-93976322D01*
X167422546Y-93978000D01*
X165927454Y-93978000D01*
X165910416Y-93976322D01*
X165896389Y-93972067D01*
X165883468Y-93965160D01*
X165872138Y-93955862D01*
X165862840Y-93944532D01*
X165855933Y-93931611D01*
X165851678Y-93917584D01*
X165850000Y-93900546D01*
X165850000Y-93655454D01*
X165851678Y-93638416D01*
X165855933Y-93624389D01*
X165862840Y-93611468D01*
X165872138Y-93600138D01*
X165883468Y-93590840D01*
X165896389Y-93583933D01*
X165910416Y-93579678D01*
X165927454Y-93578000D01*
X167422546Y-93578000D01*
X167439584Y-93579678D01*
G37*
G36*
X167439584Y-93079678D02*
G01*
X167453611Y-93083933D01*
X167466532Y-93090840D01*
X167477862Y-93100138D01*
X167487160Y-93111468D01*
X167494067Y-93124389D01*
X167498322Y-93138416D01*
X167500000Y-93155454D01*
X167500000Y-93400546D01*
X167498322Y-93417584D01*
X167494067Y-93431611D01*
X167487160Y-93444532D01*
X167477862Y-93455862D01*
X167466532Y-93465160D01*
X167453611Y-93472067D01*
X167439584Y-93476322D01*
X167422546Y-93478000D01*
X165927454Y-93478000D01*
X165910416Y-93476322D01*
X165896389Y-93472067D01*
X165883468Y-93465160D01*
X165872138Y-93455862D01*
X165862840Y-93444532D01*
X165855933Y-93431611D01*
X165851678Y-93417584D01*
X165850000Y-93400546D01*
X165850000Y-93155454D01*
X165851678Y-93138416D01*
X165855933Y-93124389D01*
X165862840Y-93111468D01*
X165872138Y-93100138D01*
X165883468Y-93090840D01*
X165896389Y-93083933D01*
X165910416Y-93079678D01*
X165927454Y-93078000D01*
X167422546Y-93078000D01*
X167439584Y-93079678D01*
G37*
G36*
X156089584Y-93079678D02*
G01*
X156103611Y-93083933D01*
X156116532Y-93090840D01*
X156127862Y-93100138D01*
X156137160Y-93111468D01*
X156144067Y-93124389D01*
X156148322Y-93138416D01*
X156150000Y-93155454D01*
X156150000Y-93400546D01*
X156148322Y-93417584D01*
X156144067Y-93431611D01*
X156137160Y-93444532D01*
X156127862Y-93455862D01*
X156116532Y-93465160D01*
X156103611Y-93472067D01*
X156089584Y-93476322D01*
X156072546Y-93478000D01*
X154577454Y-93478000D01*
X154560416Y-93476322D01*
X154546389Y-93472067D01*
X154533468Y-93465160D01*
X154522138Y-93455862D01*
X154512840Y-93444532D01*
X154505933Y-93431611D01*
X154501678Y-93417584D01*
X154500000Y-93400546D01*
X154500000Y-93155454D01*
X154501678Y-93138416D01*
X154505933Y-93124389D01*
X154512840Y-93111468D01*
X154522138Y-93100138D01*
X154533468Y-93090840D01*
X154546389Y-93083933D01*
X154560416Y-93079678D01*
X154577454Y-93078000D01*
X156072546Y-93078000D01*
X156089584Y-93079678D01*
G37*
G36*
X176238561Y-91565057D02*
G01*
X176296520Y-91576586D01*
X176460310Y-91644430D01*
X176607717Y-91742924D01*
X176733076Y-91868283D01*
X176831570Y-92015690D01*
X176899414Y-92179480D01*
X176934000Y-92353358D01*
X176934000Y-92530642D01*
X176899414Y-92704520D01*
X176831570Y-92868310D01*
X176733076Y-93015717D01*
X176607717Y-93141076D01*
X176460310Y-93239570D01*
X176460309Y-93239571D01*
X176460308Y-93239571D01*
X176415816Y-93258000D01*
X176296520Y-93307414D01*
X176238561Y-93318943D01*
X176122644Y-93342000D01*
X175945356Y-93342000D01*
X175829439Y-93318943D01*
X175771480Y-93307414D01*
X175652184Y-93258000D01*
X175607692Y-93239571D01*
X175607691Y-93239571D01*
X175607690Y-93239570D01*
X175460283Y-93141076D01*
X175334924Y-93015717D01*
X175236430Y-92868310D01*
X175168586Y-92704520D01*
X175134000Y-92530642D01*
X175134000Y-92353358D01*
X175168586Y-92179480D01*
X175236430Y-92015690D01*
X175334924Y-91868283D01*
X175460283Y-91742924D01*
X175607690Y-91644430D01*
X175771480Y-91576586D01*
X175829439Y-91565057D01*
X175945356Y-91542000D01*
X176122644Y-91542000D01*
X176238561Y-91565057D01*
G37*
G36*
X174394000Y-93342000D02*
G01*
X172594000Y-93342000D01*
X172594000Y-91542000D01*
X174394000Y-91542000D01*
X174394000Y-93342000D01*
G37*
G36*
X140530885Y-92163305D02*
G01*
X140557819Y-92165958D01*
X140577957Y-92172067D01*
X140661496Y-92197408D01*
X140757039Y-92248477D01*
X140757040Y-92248478D01*
X140757042Y-92248479D01*
X140840790Y-92317210D01*
X140870455Y-92353356D01*
X140909523Y-92400961D01*
X140960592Y-92496504D01*
X140992042Y-92600182D01*
X141002661Y-92708000D01*
X140992042Y-92815818D01*
X140960592Y-92919496D01*
X140909523Y-93015039D01*
X140909521Y-93015042D01*
X140840790Y-93098790D01*
X140757042Y-93167521D01*
X140757040Y-93167522D01*
X140757039Y-93167523D01*
X140661496Y-93218592D01*
X140592377Y-93239559D01*
X140557819Y-93250042D01*
X140530885Y-93252695D01*
X140477020Y-93258000D01*
X139822980Y-93258000D01*
X139769115Y-93252695D01*
X139742181Y-93250042D01*
X139707623Y-93239559D01*
X139638504Y-93218592D01*
X139542961Y-93167523D01*
X139542960Y-93167522D01*
X139542958Y-93167521D01*
X139459210Y-93098790D01*
X139390479Y-93015042D01*
X139390477Y-93015039D01*
X139339408Y-92919496D01*
X139307958Y-92815818D01*
X139297339Y-92708000D01*
X139307958Y-92600182D01*
X139339408Y-92496504D01*
X139390477Y-92400961D01*
X139429546Y-92353356D01*
X139459210Y-92317210D01*
X139542958Y-92248479D01*
X139542960Y-92248478D01*
X139542961Y-92248477D01*
X139638504Y-92197408D01*
X139722043Y-92172067D01*
X139742181Y-92165958D01*
X139769115Y-92163305D01*
X139822980Y-92158000D01*
X140477020Y-92158000D01*
X140530885Y-92163305D01*
G37*
G36*
X144960885Y-92163305D02*
G01*
X144987819Y-92165958D01*
X145007957Y-92172067D01*
X145091496Y-92197408D01*
X145187039Y-92248477D01*
X145187040Y-92248478D01*
X145187042Y-92248479D01*
X145270790Y-92317210D01*
X145300455Y-92353356D01*
X145339523Y-92400961D01*
X145390592Y-92496504D01*
X145422042Y-92600182D01*
X145432661Y-92708000D01*
X145422042Y-92815818D01*
X145390592Y-92919496D01*
X145339523Y-93015039D01*
X145339521Y-93015042D01*
X145270790Y-93098790D01*
X145187042Y-93167521D01*
X145187040Y-93167522D01*
X145187039Y-93167523D01*
X145091496Y-93218592D01*
X145022377Y-93239559D01*
X144987819Y-93250042D01*
X144960885Y-93252695D01*
X144907020Y-93258000D01*
X143752980Y-93258000D01*
X143699115Y-93252695D01*
X143672181Y-93250042D01*
X143637623Y-93239559D01*
X143568504Y-93218592D01*
X143472961Y-93167523D01*
X143472960Y-93167522D01*
X143472958Y-93167521D01*
X143389210Y-93098790D01*
X143320479Y-93015042D01*
X143320477Y-93015039D01*
X143269408Y-92919496D01*
X143237958Y-92815818D01*
X143227339Y-92708000D01*
X143237958Y-92600182D01*
X143269408Y-92496504D01*
X143320477Y-92400961D01*
X143359546Y-92353356D01*
X143389210Y-92317210D01*
X143472958Y-92248479D01*
X143472960Y-92248478D01*
X143472961Y-92248477D01*
X143568504Y-92197408D01*
X143652043Y-92172067D01*
X143672181Y-92165958D01*
X143699115Y-92163305D01*
X143752980Y-92158000D01*
X144907020Y-92158000D01*
X144960885Y-92163305D01*
G37*
G36*
X148473879Y-91907440D02*
G01*
X148514870Y-91919874D01*
X148552645Y-91940065D01*
X148585758Y-91967242D01*
X148612935Y-92000355D01*
X148633126Y-92038130D01*
X148645560Y-92079121D01*
X148650000Y-92124204D01*
X148650000Y-92731796D01*
X148645560Y-92776879D01*
X148633126Y-92817870D01*
X148612935Y-92855645D01*
X148585758Y-92888758D01*
X148552645Y-92915935D01*
X148514870Y-92936126D01*
X148473879Y-92948560D01*
X148428796Y-92953000D01*
X147896204Y-92953000D01*
X147851121Y-92948560D01*
X147810130Y-92936126D01*
X147772355Y-92915935D01*
X147739242Y-92888758D01*
X147712065Y-92855645D01*
X147691874Y-92817870D01*
X147679440Y-92776879D01*
X147675000Y-92731796D01*
X147675000Y-92124204D01*
X147679440Y-92079121D01*
X147691874Y-92038130D01*
X147712065Y-92000355D01*
X147739242Y-91967242D01*
X147772355Y-91940065D01*
X147810130Y-91919874D01*
X147851121Y-91907440D01*
X147896204Y-91903000D01*
X148428796Y-91903000D01*
X148473879Y-91907440D01*
G37*
G36*
X150048879Y-91907440D02*
G01*
X150089870Y-91919874D01*
X150127645Y-91940065D01*
X150160758Y-91967242D01*
X150187935Y-92000355D01*
X150208126Y-92038130D01*
X150220560Y-92079121D01*
X150225000Y-92124204D01*
X150225000Y-92731796D01*
X150220560Y-92776879D01*
X150208126Y-92817870D01*
X150187935Y-92855645D01*
X150160758Y-92888758D01*
X150127645Y-92915935D01*
X150089870Y-92936126D01*
X150048879Y-92948560D01*
X150003796Y-92953000D01*
X149471204Y-92953000D01*
X149426121Y-92948560D01*
X149385130Y-92936126D01*
X149347355Y-92915935D01*
X149314242Y-92888758D01*
X149287065Y-92855645D01*
X149266874Y-92817870D01*
X149254440Y-92776879D01*
X149250000Y-92731796D01*
X149250000Y-92124204D01*
X149254440Y-92079121D01*
X149266874Y-92038130D01*
X149287065Y-92000355D01*
X149314242Y-91967242D01*
X149347355Y-91940065D01*
X149385130Y-91919874D01*
X149426121Y-91907440D01*
X149471204Y-91903000D01*
X150003796Y-91903000D01*
X150048879Y-91907440D01*
G37*
G36*
X151873879Y-91907440D02*
G01*
X151914870Y-91919874D01*
X151952645Y-91940065D01*
X151985758Y-91967242D01*
X152012935Y-92000355D01*
X152033126Y-92038130D01*
X152045560Y-92079121D01*
X152050000Y-92124204D01*
X152050000Y-92731796D01*
X152045560Y-92776879D01*
X152033126Y-92817870D01*
X152012935Y-92855645D01*
X151985758Y-92888758D01*
X151952645Y-92915935D01*
X151914870Y-92936126D01*
X151873879Y-92948560D01*
X151828796Y-92953000D01*
X151296204Y-92953000D01*
X151251121Y-92948560D01*
X151210130Y-92936126D01*
X151172355Y-92915935D01*
X151139242Y-92888758D01*
X151112065Y-92855645D01*
X151091874Y-92817870D01*
X151079440Y-92776879D01*
X151075000Y-92731796D01*
X151075000Y-92124204D01*
X151079440Y-92079121D01*
X151091874Y-92038130D01*
X151112065Y-92000355D01*
X151139242Y-91967242D01*
X151172355Y-91940065D01*
X151210130Y-91919874D01*
X151251121Y-91907440D01*
X151296204Y-91903000D01*
X151828796Y-91903000D01*
X151873879Y-91907440D01*
G37*
G36*
X153448879Y-91907440D02*
G01*
X153489870Y-91919874D01*
X153527645Y-91940065D01*
X153560758Y-91967242D01*
X153587935Y-92000355D01*
X153608126Y-92038130D01*
X153620560Y-92079121D01*
X153625000Y-92124204D01*
X153625000Y-92731796D01*
X153620560Y-92776879D01*
X153608126Y-92817870D01*
X153587935Y-92855645D01*
X153560758Y-92888758D01*
X153527645Y-92915935D01*
X153489870Y-92936126D01*
X153448879Y-92948560D01*
X153403796Y-92953000D01*
X152871204Y-92953000D01*
X152826121Y-92948560D01*
X152785130Y-92936126D01*
X152747355Y-92915935D01*
X152714242Y-92888758D01*
X152687065Y-92855645D01*
X152666874Y-92817870D01*
X152654440Y-92776879D01*
X152650000Y-92731796D01*
X152650000Y-92124204D01*
X152654440Y-92079121D01*
X152666874Y-92038130D01*
X152687065Y-92000355D01*
X152714242Y-91967242D01*
X152747355Y-91940065D01*
X152785130Y-91919874D01*
X152826121Y-91907440D01*
X152871204Y-91903000D01*
X153403796Y-91903000D01*
X153448879Y-91907440D01*
G37*
G36*
X160889584Y-90529678D02*
G01*
X160903611Y-90533933D01*
X160916532Y-90540840D01*
X160927862Y-90550138D01*
X160937160Y-90561468D01*
X160944067Y-90574389D01*
X160948322Y-90588416D01*
X160950000Y-90605454D01*
X160950000Y-92100546D01*
X160948322Y-92117584D01*
X160944067Y-92131611D01*
X160937160Y-92144532D01*
X160927862Y-92155862D01*
X160916532Y-92165160D01*
X160903611Y-92172067D01*
X160889584Y-92176322D01*
X160872546Y-92178000D01*
X160627454Y-92178000D01*
X160610416Y-92176322D01*
X160596389Y-92172067D01*
X160583468Y-92165160D01*
X160572138Y-92155862D01*
X160562840Y-92144532D01*
X160555933Y-92131611D01*
X160551678Y-92117584D01*
X160550000Y-92100546D01*
X160550000Y-90605454D01*
X160551678Y-90588416D01*
X160555933Y-90574389D01*
X160562840Y-90561468D01*
X160572138Y-90550138D01*
X160583468Y-90540840D01*
X160596389Y-90533933D01*
X160610416Y-90529678D01*
X160627454Y-90528000D01*
X160872546Y-90528000D01*
X160889584Y-90529678D01*
G37*
G36*
X163889584Y-90529678D02*
G01*
X163903611Y-90533933D01*
X163916532Y-90540840D01*
X163927862Y-90550138D01*
X163937160Y-90561468D01*
X163944067Y-90574389D01*
X163948322Y-90588416D01*
X163950000Y-90605454D01*
X163950000Y-92100546D01*
X163948322Y-92117584D01*
X163944067Y-92131611D01*
X163937160Y-92144532D01*
X163927862Y-92155862D01*
X163916532Y-92165160D01*
X163903611Y-92172067D01*
X163889584Y-92176322D01*
X163872546Y-92178000D01*
X163627454Y-92178000D01*
X163610416Y-92176322D01*
X163596389Y-92172067D01*
X163583468Y-92165160D01*
X163572138Y-92155862D01*
X163562840Y-92144532D01*
X163555933Y-92131611D01*
X163551678Y-92117584D01*
X163550000Y-92100546D01*
X163550000Y-90605454D01*
X163551678Y-90588416D01*
X163555933Y-90574389D01*
X163562840Y-90561468D01*
X163572138Y-90550138D01*
X163583468Y-90540840D01*
X163596389Y-90533933D01*
X163610416Y-90529678D01*
X163627454Y-90528000D01*
X163872546Y-90528000D01*
X163889584Y-90529678D01*
G37*
G36*
X157389584Y-90529678D02*
G01*
X157403611Y-90533933D01*
X157416532Y-90540840D01*
X157427862Y-90550138D01*
X157437160Y-90561468D01*
X157444067Y-90574389D01*
X157448322Y-90588416D01*
X157450000Y-90605454D01*
X157450000Y-92100546D01*
X157448322Y-92117584D01*
X157444067Y-92131611D01*
X157437160Y-92144532D01*
X157427862Y-92155862D01*
X157416532Y-92165160D01*
X157403611Y-92172067D01*
X157389584Y-92176322D01*
X157372546Y-92178000D01*
X157127454Y-92178000D01*
X157110416Y-92176322D01*
X157096389Y-92172067D01*
X157083468Y-92165160D01*
X157072138Y-92155862D01*
X157062840Y-92144532D01*
X157055933Y-92131611D01*
X157051678Y-92117584D01*
X157050000Y-92100546D01*
X157050000Y-90605454D01*
X157051678Y-90588416D01*
X157055933Y-90574389D01*
X157062840Y-90561468D01*
X157072138Y-90550138D01*
X157083468Y-90540840D01*
X157096389Y-90533933D01*
X157110416Y-90529678D01*
X157127454Y-90528000D01*
X157372546Y-90528000D01*
X157389584Y-90529678D01*
G37*
G36*
X157889584Y-90529678D02*
G01*
X157903611Y-90533933D01*
X157916532Y-90540840D01*
X157927862Y-90550138D01*
X157937160Y-90561468D01*
X157944067Y-90574389D01*
X157948322Y-90588416D01*
X157950000Y-90605454D01*
X157950000Y-92100546D01*
X157948322Y-92117584D01*
X157944067Y-92131611D01*
X157937160Y-92144532D01*
X157927862Y-92155862D01*
X157916532Y-92165160D01*
X157903611Y-92172067D01*
X157889584Y-92176322D01*
X157872546Y-92178000D01*
X157627454Y-92178000D01*
X157610416Y-92176322D01*
X157596389Y-92172067D01*
X157583468Y-92165160D01*
X157572138Y-92155862D01*
X157562840Y-92144532D01*
X157555933Y-92131611D01*
X157551678Y-92117584D01*
X157550000Y-92100546D01*
X157550000Y-90605454D01*
X157551678Y-90588416D01*
X157555933Y-90574389D01*
X157562840Y-90561468D01*
X157572138Y-90550138D01*
X157583468Y-90540840D01*
X157596389Y-90533933D01*
X157610416Y-90529678D01*
X157627454Y-90528000D01*
X157872546Y-90528000D01*
X157889584Y-90529678D01*
G37*
G36*
X158389584Y-90529678D02*
G01*
X158403611Y-90533933D01*
X158416532Y-90540840D01*
X158427862Y-90550138D01*
X158437160Y-90561468D01*
X158444067Y-90574389D01*
X158448322Y-90588416D01*
X158450000Y-90605454D01*
X158450000Y-92100546D01*
X158448322Y-92117584D01*
X158444067Y-92131611D01*
X158437160Y-92144532D01*
X158427862Y-92155862D01*
X158416532Y-92165160D01*
X158403611Y-92172067D01*
X158389584Y-92176322D01*
X158372546Y-92178000D01*
X158127454Y-92178000D01*
X158110416Y-92176322D01*
X158096389Y-92172067D01*
X158083468Y-92165160D01*
X158072138Y-92155862D01*
X158062840Y-92144532D01*
X158055933Y-92131611D01*
X158051678Y-92117584D01*
X158050000Y-92100546D01*
X158050000Y-90605454D01*
X158051678Y-90588416D01*
X158055933Y-90574389D01*
X158062840Y-90561468D01*
X158072138Y-90550138D01*
X158083468Y-90540840D01*
X158096389Y-90533933D01*
X158110416Y-90529678D01*
X158127454Y-90528000D01*
X158372546Y-90528000D01*
X158389584Y-90529678D01*
G37*
G36*
X158889584Y-90529678D02*
G01*
X158903611Y-90533933D01*
X158916532Y-90540840D01*
X158927862Y-90550138D01*
X158937160Y-90561468D01*
X158944067Y-90574389D01*
X158948322Y-90588416D01*
X158950000Y-90605454D01*
X158950000Y-92100546D01*
X158948322Y-92117584D01*
X158944067Y-92131611D01*
X158937160Y-92144532D01*
X158927862Y-92155862D01*
X158916532Y-92165160D01*
X158903611Y-92172067D01*
X158889584Y-92176322D01*
X158872546Y-92178000D01*
X158627454Y-92178000D01*
X158610416Y-92176322D01*
X158596389Y-92172067D01*
X158583468Y-92165160D01*
X158572138Y-92155862D01*
X158562840Y-92144532D01*
X158555933Y-92131611D01*
X158551678Y-92117584D01*
X158550000Y-92100546D01*
X158550000Y-90605454D01*
X158551678Y-90588416D01*
X158555933Y-90574389D01*
X158562840Y-90561468D01*
X158572138Y-90550138D01*
X158583468Y-90540840D01*
X158596389Y-90533933D01*
X158610416Y-90529678D01*
X158627454Y-90528000D01*
X158872546Y-90528000D01*
X158889584Y-90529678D01*
G37*
G36*
X159389584Y-90529678D02*
G01*
X159403611Y-90533933D01*
X159416532Y-90540840D01*
X159427862Y-90550138D01*
X159437160Y-90561468D01*
X159444067Y-90574389D01*
X159448322Y-90588416D01*
X159450000Y-90605454D01*
X159450000Y-92100546D01*
X159448322Y-92117584D01*
X159444067Y-92131611D01*
X159437160Y-92144532D01*
X159427862Y-92155862D01*
X159416532Y-92165160D01*
X159403611Y-92172067D01*
X159389584Y-92176322D01*
X159372546Y-92178000D01*
X159127454Y-92178000D01*
X159110416Y-92176322D01*
X159096389Y-92172067D01*
X159083468Y-92165160D01*
X159072138Y-92155862D01*
X159062840Y-92144532D01*
X159055933Y-92131611D01*
X159051678Y-92117584D01*
X159050000Y-92100546D01*
X159050000Y-90605454D01*
X159051678Y-90588416D01*
X159055933Y-90574389D01*
X159062840Y-90561468D01*
X159072138Y-90550138D01*
X159083468Y-90540840D01*
X159096389Y-90533933D01*
X159110416Y-90529678D01*
X159127454Y-90528000D01*
X159372546Y-90528000D01*
X159389584Y-90529678D01*
G37*
G36*
X159889584Y-90529678D02*
G01*
X159903611Y-90533933D01*
X159916532Y-90540840D01*
X159927862Y-90550138D01*
X159937160Y-90561468D01*
X159944067Y-90574389D01*
X159948322Y-90588416D01*
X159950000Y-90605454D01*
X159950000Y-92100546D01*
X159948322Y-92117584D01*
X159944067Y-92131611D01*
X159937160Y-92144532D01*
X159927862Y-92155862D01*
X159916532Y-92165160D01*
X159903611Y-92172067D01*
X159889584Y-92176322D01*
X159872546Y-92178000D01*
X159627454Y-92178000D01*
X159610416Y-92176322D01*
X159596389Y-92172067D01*
X159583468Y-92165160D01*
X159572138Y-92155862D01*
X159562840Y-92144532D01*
X159555933Y-92131611D01*
X159551678Y-92117584D01*
X159550000Y-92100546D01*
X159550000Y-90605454D01*
X159551678Y-90588416D01*
X159555933Y-90574389D01*
X159562840Y-90561468D01*
X159572138Y-90550138D01*
X159583468Y-90540840D01*
X159596389Y-90533933D01*
X159610416Y-90529678D01*
X159627454Y-90528000D01*
X159872546Y-90528000D01*
X159889584Y-90529678D01*
G37*
G36*
X160389584Y-90529678D02*
G01*
X160403611Y-90533933D01*
X160416532Y-90540840D01*
X160427862Y-90550138D01*
X160437160Y-90561468D01*
X160444067Y-90574389D01*
X160448322Y-90588416D01*
X160450000Y-90605454D01*
X160450000Y-92100546D01*
X160448322Y-92117584D01*
X160444067Y-92131611D01*
X160437160Y-92144532D01*
X160427862Y-92155862D01*
X160416532Y-92165160D01*
X160403611Y-92172067D01*
X160389584Y-92176322D01*
X160372546Y-92178000D01*
X160127454Y-92178000D01*
X160110416Y-92176322D01*
X160096389Y-92172067D01*
X160083468Y-92165160D01*
X160072138Y-92155862D01*
X160062840Y-92144532D01*
X160055933Y-92131611D01*
X160051678Y-92117584D01*
X160050000Y-92100546D01*
X160050000Y-90605454D01*
X160051678Y-90588416D01*
X160055933Y-90574389D01*
X160062840Y-90561468D01*
X160072138Y-90550138D01*
X160083468Y-90540840D01*
X160096389Y-90533933D01*
X160110416Y-90529678D01*
X160127454Y-90528000D01*
X160372546Y-90528000D01*
X160389584Y-90529678D01*
G37*
G36*
X163389584Y-90529678D02*
G01*
X163403611Y-90533933D01*
X163416532Y-90540840D01*
X163427862Y-90550138D01*
X163437160Y-90561468D01*
X163444067Y-90574389D01*
X163448322Y-90588416D01*
X163450000Y-90605454D01*
X163450000Y-92100546D01*
X163448322Y-92117584D01*
X163444067Y-92131611D01*
X163437160Y-92144532D01*
X163427862Y-92155862D01*
X163416532Y-92165160D01*
X163403611Y-92172067D01*
X163389584Y-92176322D01*
X163372546Y-92178000D01*
X163127454Y-92178000D01*
X163110416Y-92176322D01*
X163096389Y-92172067D01*
X163083468Y-92165160D01*
X163072138Y-92155862D01*
X163062840Y-92144532D01*
X163055933Y-92131611D01*
X163051678Y-92117584D01*
X163050000Y-92100546D01*
X163050000Y-90605454D01*
X163051678Y-90588416D01*
X163055933Y-90574389D01*
X163062840Y-90561468D01*
X163072138Y-90550138D01*
X163083468Y-90540840D01*
X163096389Y-90533933D01*
X163110416Y-90529678D01*
X163127454Y-90528000D01*
X163372546Y-90528000D01*
X163389584Y-90529678D01*
G37*
G36*
X161389584Y-90529678D02*
G01*
X161403611Y-90533933D01*
X161416532Y-90540840D01*
X161427862Y-90550138D01*
X161437160Y-90561468D01*
X161444067Y-90574389D01*
X161448322Y-90588416D01*
X161450000Y-90605454D01*
X161450000Y-92100546D01*
X161448322Y-92117584D01*
X161444067Y-92131611D01*
X161437160Y-92144532D01*
X161427862Y-92155862D01*
X161416532Y-92165160D01*
X161403611Y-92172067D01*
X161389584Y-92176322D01*
X161372546Y-92178000D01*
X161127454Y-92178000D01*
X161110416Y-92176322D01*
X161096389Y-92172067D01*
X161083468Y-92165160D01*
X161072138Y-92155862D01*
X161062840Y-92144532D01*
X161055933Y-92131611D01*
X161051678Y-92117584D01*
X161050000Y-92100546D01*
X161050000Y-90605454D01*
X161051678Y-90588416D01*
X161055933Y-90574389D01*
X161062840Y-90561468D01*
X161072138Y-90550138D01*
X161083468Y-90540840D01*
X161096389Y-90533933D01*
X161110416Y-90529678D01*
X161127454Y-90528000D01*
X161372546Y-90528000D01*
X161389584Y-90529678D01*
G37*
G36*
X161889584Y-90529678D02*
G01*
X161903611Y-90533933D01*
X161916532Y-90540840D01*
X161927862Y-90550138D01*
X161937160Y-90561468D01*
X161944067Y-90574389D01*
X161948322Y-90588416D01*
X161950000Y-90605454D01*
X161950000Y-92100546D01*
X161948322Y-92117584D01*
X161944067Y-92131611D01*
X161937160Y-92144532D01*
X161927862Y-92155862D01*
X161916532Y-92165160D01*
X161903611Y-92172067D01*
X161889584Y-92176322D01*
X161872546Y-92178000D01*
X161627454Y-92178000D01*
X161610416Y-92176322D01*
X161596389Y-92172067D01*
X161583468Y-92165160D01*
X161572138Y-92155862D01*
X161562840Y-92144532D01*
X161555933Y-92131611D01*
X161551678Y-92117584D01*
X161550000Y-92100546D01*
X161550000Y-90605454D01*
X161551678Y-90588416D01*
X161555933Y-90574389D01*
X161562840Y-90561468D01*
X161572138Y-90550138D01*
X161583468Y-90540840D01*
X161596389Y-90533933D01*
X161610416Y-90529678D01*
X161627454Y-90528000D01*
X161872546Y-90528000D01*
X161889584Y-90529678D01*
G37*
G36*
X162389584Y-90529678D02*
G01*
X162403611Y-90533933D01*
X162416532Y-90540840D01*
X162427862Y-90550138D01*
X162437160Y-90561468D01*
X162444067Y-90574389D01*
X162448322Y-90588416D01*
X162450000Y-90605454D01*
X162450000Y-92100546D01*
X162448322Y-92117584D01*
X162444067Y-92131611D01*
X162437160Y-92144532D01*
X162427862Y-92155862D01*
X162416532Y-92165160D01*
X162403611Y-92172067D01*
X162389584Y-92176322D01*
X162372546Y-92178000D01*
X162127454Y-92178000D01*
X162110416Y-92176322D01*
X162096389Y-92172067D01*
X162083468Y-92165160D01*
X162072138Y-92155862D01*
X162062840Y-92144532D01*
X162055933Y-92131611D01*
X162051678Y-92117584D01*
X162050000Y-92100546D01*
X162050000Y-90605454D01*
X162051678Y-90588416D01*
X162055933Y-90574389D01*
X162062840Y-90561468D01*
X162072138Y-90550138D01*
X162083468Y-90540840D01*
X162096389Y-90533933D01*
X162110416Y-90529678D01*
X162127454Y-90528000D01*
X162372546Y-90528000D01*
X162389584Y-90529678D01*
G37*
G36*
X162889584Y-90529678D02*
G01*
X162903611Y-90533933D01*
X162916532Y-90540840D01*
X162927862Y-90550138D01*
X162937160Y-90561468D01*
X162944067Y-90574389D01*
X162948322Y-90588416D01*
X162950000Y-90605454D01*
X162950000Y-92100546D01*
X162948322Y-92117584D01*
X162944067Y-92131611D01*
X162937160Y-92144532D01*
X162927862Y-92155862D01*
X162916532Y-92165160D01*
X162903611Y-92172067D01*
X162889584Y-92176322D01*
X162872546Y-92178000D01*
X162627454Y-92178000D01*
X162610416Y-92176322D01*
X162596389Y-92172067D01*
X162583468Y-92165160D01*
X162572138Y-92155862D01*
X162562840Y-92144532D01*
X162555933Y-92131611D01*
X162551678Y-92117584D01*
X162550000Y-92100546D01*
X162550000Y-90605454D01*
X162551678Y-90588416D01*
X162555933Y-90574389D01*
X162562840Y-90561468D01*
X162572138Y-90550138D01*
X162583468Y-90540840D01*
X162596389Y-90533933D01*
X162610416Y-90529678D01*
X162627454Y-90528000D01*
X162872546Y-90528000D01*
X162889584Y-90529678D01*
G37*
G36*
X164389584Y-90529678D02*
G01*
X164403611Y-90533933D01*
X164416532Y-90540840D01*
X164427862Y-90550138D01*
X164437160Y-90561468D01*
X164444067Y-90574389D01*
X164448322Y-90588416D01*
X164450000Y-90605454D01*
X164450000Y-92100546D01*
X164448322Y-92117584D01*
X164444067Y-92131611D01*
X164437160Y-92144532D01*
X164427862Y-92155862D01*
X164416532Y-92165160D01*
X164403611Y-92172067D01*
X164389584Y-92176322D01*
X164372546Y-92178000D01*
X164127454Y-92178000D01*
X164110416Y-92176322D01*
X164096389Y-92172067D01*
X164083468Y-92165160D01*
X164072138Y-92155862D01*
X164062840Y-92144532D01*
X164055933Y-92131611D01*
X164051678Y-92117584D01*
X164050000Y-92100546D01*
X164050000Y-90605454D01*
X164051678Y-90588416D01*
X164055933Y-90574389D01*
X164062840Y-90561468D01*
X164072138Y-90550138D01*
X164083468Y-90540840D01*
X164096389Y-90533933D01*
X164110416Y-90529678D01*
X164127454Y-90528000D01*
X164372546Y-90528000D01*
X164389584Y-90529678D01*
G37*
G36*
X164889584Y-90529678D02*
G01*
X164903611Y-90533933D01*
X164916532Y-90540840D01*
X164927862Y-90550138D01*
X164937160Y-90561468D01*
X164944067Y-90574389D01*
X164948322Y-90588416D01*
X164950000Y-90605454D01*
X164950000Y-92100546D01*
X164948322Y-92117584D01*
X164944067Y-92131611D01*
X164937160Y-92144532D01*
X164927862Y-92155862D01*
X164916532Y-92165160D01*
X164903611Y-92172067D01*
X164889584Y-92176322D01*
X164872546Y-92178000D01*
X164627454Y-92178000D01*
X164610416Y-92176322D01*
X164596389Y-92172067D01*
X164583468Y-92165160D01*
X164572138Y-92155862D01*
X164562840Y-92144532D01*
X164555933Y-92131611D01*
X164551678Y-92117584D01*
X164550000Y-92100546D01*
X164550000Y-90605454D01*
X164551678Y-90588416D01*
X164555933Y-90574389D01*
X164562840Y-90561468D01*
X164572138Y-90550138D01*
X164583468Y-90540840D01*
X164596389Y-90533933D01*
X164610416Y-90529678D01*
X164627454Y-90528000D01*
X164872546Y-90528000D01*
X164889584Y-90529678D01*
G37*
G36*
X153448879Y-90407440D02*
G01*
X153489870Y-90419874D01*
X153527645Y-90440065D01*
X153560758Y-90467242D01*
X153587935Y-90500355D01*
X153608126Y-90538130D01*
X153620560Y-90579121D01*
X153625000Y-90624204D01*
X153625000Y-91231796D01*
X153620560Y-91276879D01*
X153608126Y-91317870D01*
X153587935Y-91355645D01*
X153560758Y-91388758D01*
X153527645Y-91415935D01*
X153489870Y-91436126D01*
X153448879Y-91448560D01*
X153403796Y-91453000D01*
X152871204Y-91453000D01*
X152826121Y-91448560D01*
X152785130Y-91436126D01*
X152747355Y-91415935D01*
X152714242Y-91388758D01*
X152687065Y-91355645D01*
X152666874Y-91317870D01*
X152654440Y-91276879D01*
X152650000Y-91231796D01*
X152650000Y-90624204D01*
X152654440Y-90579121D01*
X152666874Y-90538130D01*
X152687065Y-90500355D01*
X152714242Y-90467242D01*
X152747355Y-90440065D01*
X152785130Y-90419874D01*
X152826121Y-90407440D01*
X152871204Y-90403000D01*
X153403796Y-90403000D01*
X153448879Y-90407440D01*
G37*
G36*
X151873879Y-90407440D02*
G01*
X151914870Y-90419874D01*
X151952645Y-90440065D01*
X151985758Y-90467242D01*
X152012935Y-90500355D01*
X152033126Y-90538130D01*
X152045560Y-90579121D01*
X152050000Y-90624204D01*
X152050000Y-91231796D01*
X152045560Y-91276879D01*
X152033126Y-91317870D01*
X152012935Y-91355645D01*
X151985758Y-91388758D01*
X151952645Y-91415935D01*
X151914870Y-91436126D01*
X151873879Y-91448560D01*
X151828796Y-91453000D01*
X151296204Y-91453000D01*
X151251121Y-91448560D01*
X151210130Y-91436126D01*
X151172355Y-91415935D01*
X151139242Y-91388758D01*
X151112065Y-91355645D01*
X151091874Y-91317870D01*
X151079440Y-91276879D01*
X151075000Y-91231796D01*
X151075000Y-90624204D01*
X151079440Y-90579121D01*
X151091874Y-90538130D01*
X151112065Y-90500355D01*
X151139242Y-90467242D01*
X151172355Y-90440065D01*
X151210130Y-90419874D01*
X151251121Y-90407440D01*
X151296204Y-90403000D01*
X151828796Y-90403000D01*
X151873879Y-90407440D01*
G37*
G36*
X150048879Y-90407440D02*
G01*
X150089870Y-90419874D01*
X150127645Y-90440065D01*
X150160758Y-90467242D01*
X150187935Y-90500355D01*
X150208126Y-90538130D01*
X150220560Y-90579121D01*
X150225000Y-90624204D01*
X150225000Y-91231796D01*
X150220560Y-91276879D01*
X150208126Y-91317870D01*
X150187935Y-91355645D01*
X150160758Y-91388758D01*
X150127645Y-91415935D01*
X150089870Y-91436126D01*
X150048879Y-91448560D01*
X150003796Y-91453000D01*
X149471204Y-91453000D01*
X149426121Y-91448560D01*
X149385130Y-91436126D01*
X149347355Y-91415935D01*
X149314242Y-91388758D01*
X149287065Y-91355645D01*
X149266874Y-91317870D01*
X149254440Y-91276879D01*
X149250000Y-91231796D01*
X149250000Y-90624204D01*
X149254440Y-90579121D01*
X149266874Y-90538130D01*
X149287065Y-90500355D01*
X149314242Y-90467242D01*
X149347355Y-90440065D01*
X149385130Y-90419874D01*
X149426121Y-90407440D01*
X149471204Y-90403000D01*
X150003796Y-90403000D01*
X150048879Y-90407440D01*
G37*
G36*
X148473879Y-90407440D02*
G01*
X148514870Y-90419874D01*
X148552645Y-90440065D01*
X148585758Y-90467242D01*
X148612935Y-90500355D01*
X148633126Y-90538130D01*
X148645560Y-90579121D01*
X148650000Y-90624204D01*
X148650000Y-91231796D01*
X148645560Y-91276879D01*
X148633126Y-91317870D01*
X148612935Y-91355645D01*
X148585758Y-91388758D01*
X148552645Y-91415935D01*
X148514870Y-91436126D01*
X148473879Y-91448560D01*
X148428796Y-91453000D01*
X147896204Y-91453000D01*
X147851121Y-91448560D01*
X147810130Y-91436126D01*
X147772355Y-91415935D01*
X147739242Y-91388758D01*
X147712065Y-91355645D01*
X147691874Y-91317870D01*
X147679440Y-91276879D01*
X147675000Y-91231796D01*
X147675000Y-90624204D01*
X147679440Y-90579121D01*
X147691874Y-90538130D01*
X147712065Y-90500355D01*
X147739242Y-90467242D01*
X147772355Y-90440065D01*
X147810130Y-90419874D01*
X147851121Y-90407440D01*
X147896204Y-90403000D01*
X148428796Y-90403000D01*
X148473879Y-90407440D01*
G37*
G36*
X154913970Y-90557079D02*
G01*
X154951446Y-90568447D01*
X154985978Y-90586904D01*
X155016250Y-90611749D01*
X155041095Y-90642021D01*
X155059552Y-90676553D01*
X155070920Y-90714029D01*
X155075000Y-90755453D01*
X155075000Y-91250545D01*
X155070920Y-91291969D01*
X155059552Y-91329445D01*
X155041095Y-91363977D01*
X155016250Y-91394249D01*
X154985978Y-91419094D01*
X154951446Y-91437551D01*
X154913970Y-91448919D01*
X154872546Y-91452999D01*
X154277454Y-91452999D01*
X154236030Y-91448919D01*
X154198554Y-91437551D01*
X154164022Y-91419094D01*
X154133750Y-91394249D01*
X154108905Y-91363977D01*
X154090448Y-91329445D01*
X154079080Y-91291969D01*
X154075000Y-91250545D01*
X154075000Y-90755453D01*
X154079080Y-90714029D01*
X154090448Y-90676553D01*
X154108905Y-90642021D01*
X154133750Y-90611749D01*
X154164022Y-90586904D01*
X154198554Y-90568447D01*
X154236030Y-90557079D01*
X154277454Y-90552999D01*
X154872546Y-90552999D01*
X154913970Y-90557079D01*
G37*
G36*
X156363970Y-90557079D02*
G01*
X156401446Y-90568447D01*
X156435978Y-90586904D01*
X156466250Y-90611749D01*
X156491095Y-90642021D01*
X156509552Y-90676553D01*
X156520920Y-90714029D01*
X156525000Y-90755453D01*
X156525000Y-91250545D01*
X156520920Y-91291969D01*
X156509552Y-91329445D01*
X156491095Y-91363977D01*
X156466250Y-91394249D01*
X156435978Y-91419094D01*
X156401446Y-91437551D01*
X156363970Y-91448919D01*
X156322546Y-91452999D01*
X155727454Y-91452999D01*
X155686030Y-91448919D01*
X155648554Y-91437551D01*
X155614022Y-91419094D01*
X155583750Y-91394249D01*
X155558905Y-91363977D01*
X155540448Y-91329445D01*
X155529080Y-91291969D01*
X155525000Y-91250545D01*
X155525000Y-90755453D01*
X155529080Y-90714029D01*
X155540448Y-90676553D01*
X155558905Y-90642021D01*
X155583750Y-90611749D01*
X155614022Y-90586904D01*
X155648554Y-90568447D01*
X155686030Y-90557079D01*
X155727454Y-90552999D01*
X156322546Y-90552999D01*
X156363970Y-90557079D01*
G37*
G36*
X144623879Y-90357440D02*
G01*
X144664870Y-90369874D01*
X144702645Y-90390065D01*
X144735758Y-90417242D01*
X144762935Y-90450355D01*
X144783126Y-90488130D01*
X144795560Y-90529121D01*
X144800000Y-90574204D01*
X144800000Y-91181796D01*
X144795560Y-91226879D01*
X144783126Y-91267870D01*
X144762935Y-91305645D01*
X144735758Y-91338758D01*
X144702645Y-91365935D01*
X144664870Y-91386126D01*
X144623879Y-91398560D01*
X144578796Y-91403000D01*
X144046204Y-91403000D01*
X144001121Y-91398560D01*
X143960130Y-91386126D01*
X143922355Y-91365935D01*
X143889242Y-91338758D01*
X143862065Y-91305645D01*
X143841874Y-91267870D01*
X143829440Y-91226879D01*
X143825000Y-91181796D01*
X143825000Y-90574204D01*
X143829440Y-90529121D01*
X143841874Y-90488130D01*
X143862065Y-90450355D01*
X143889242Y-90417242D01*
X143922355Y-90390065D01*
X143960130Y-90369874D01*
X144001121Y-90357440D01*
X144046204Y-90353000D01*
X144578796Y-90353000D01*
X144623879Y-90357440D01*
G37*
G36*
X146198879Y-90357440D02*
G01*
X146239870Y-90369874D01*
X146277645Y-90390065D01*
X146310758Y-90417242D01*
X146337935Y-90450355D01*
X146358126Y-90488130D01*
X146370560Y-90529121D01*
X146375000Y-90574204D01*
X146375000Y-91181796D01*
X146370560Y-91226879D01*
X146358126Y-91267870D01*
X146337935Y-91305645D01*
X146310758Y-91338758D01*
X146277645Y-91365935D01*
X146239870Y-91386126D01*
X146198879Y-91398560D01*
X146153796Y-91403000D01*
X145621204Y-91403000D01*
X145576121Y-91398560D01*
X145535130Y-91386126D01*
X145497355Y-91365935D01*
X145464242Y-91338758D01*
X145437065Y-91305645D01*
X145416874Y-91267870D01*
X145404440Y-91226879D01*
X145400000Y-91181796D01*
X145400000Y-90574204D01*
X145404440Y-90529121D01*
X145416874Y-90488130D01*
X145437065Y-90450355D01*
X145464242Y-90417242D01*
X145497355Y-90390065D01*
X145535130Y-90369874D01*
X145576121Y-90357440D01*
X145621204Y-90353000D01*
X146153796Y-90353000D01*
X146198879Y-90357440D01*
G37*
G36*
X173698561Y-89025057D02*
G01*
X173756520Y-89036586D01*
X173825274Y-89065065D01*
X173907677Y-89099197D01*
X173920310Y-89104430D01*
X174067717Y-89202924D01*
X174193076Y-89328283D01*
X174240274Y-89398920D01*
X174291571Y-89475692D01*
X174359414Y-89639481D01*
X174392697Y-89806803D01*
X174394000Y-89813358D01*
X174394000Y-89990642D01*
X174359414Y-90164520D01*
X174291570Y-90328310D01*
X174193076Y-90475717D01*
X174067717Y-90601076D01*
X173920310Y-90699570D01*
X173756520Y-90767414D01*
X173703305Y-90777999D01*
X173582644Y-90802000D01*
X173405356Y-90802000D01*
X173284695Y-90777999D01*
X173231480Y-90767414D01*
X173067690Y-90699570D01*
X172920283Y-90601076D01*
X172794924Y-90475717D01*
X172696430Y-90328310D01*
X172628586Y-90164520D01*
X172594000Y-89990642D01*
X172594000Y-89813358D01*
X172595304Y-89806803D01*
X172628586Y-89639481D01*
X172696429Y-89475692D01*
X172747726Y-89398920D01*
X172794924Y-89328283D01*
X172920283Y-89202924D01*
X173067690Y-89104430D01*
X173080324Y-89099197D01*
X173162726Y-89065065D01*
X173231480Y-89036586D01*
X173289439Y-89025057D01*
X173405356Y-89002000D01*
X173582644Y-89002000D01*
X173698561Y-89025057D01*
G37*
G36*
X176238561Y-89025057D02*
G01*
X176296520Y-89036586D01*
X176365274Y-89065065D01*
X176447677Y-89099197D01*
X176460310Y-89104430D01*
X176607717Y-89202924D01*
X176733076Y-89328283D01*
X176780274Y-89398920D01*
X176831571Y-89475692D01*
X176899414Y-89639481D01*
X176932697Y-89806803D01*
X176934000Y-89813358D01*
X176934000Y-89990642D01*
X176899414Y-90164520D01*
X176831570Y-90328310D01*
X176733076Y-90475717D01*
X176607717Y-90601076D01*
X176460310Y-90699570D01*
X176296520Y-90767414D01*
X176243305Y-90777999D01*
X176122644Y-90802000D01*
X175945356Y-90802000D01*
X175824695Y-90777999D01*
X175771480Y-90767414D01*
X175607690Y-90699570D01*
X175460283Y-90601076D01*
X175334924Y-90475717D01*
X175236430Y-90328310D01*
X175168586Y-90164520D01*
X175134000Y-89990642D01*
X175134000Y-89813358D01*
X175135304Y-89806803D01*
X175168586Y-89639481D01*
X175236429Y-89475692D01*
X175287726Y-89398920D01*
X175334924Y-89328283D01*
X175460283Y-89202924D01*
X175607690Y-89104430D01*
X175620324Y-89099197D01*
X175702726Y-89065065D01*
X175771480Y-89036586D01*
X175829439Y-89025057D01*
X175945356Y-89002000D01*
X176122644Y-89002000D01*
X176238561Y-89025057D01*
G37*
G36*
X162848879Y-89032440D02*
G01*
X162889870Y-89044874D01*
X162927645Y-89065065D01*
X162960758Y-89092242D01*
X162987935Y-89125355D01*
X163008126Y-89163130D01*
X163020560Y-89204121D01*
X163025000Y-89249204D01*
X163025000Y-89781796D01*
X163020560Y-89826879D01*
X163008126Y-89867870D01*
X162987935Y-89905645D01*
X162960758Y-89938758D01*
X162927645Y-89965935D01*
X162889870Y-89986126D01*
X162848879Y-89998560D01*
X162803796Y-90003000D01*
X162196204Y-90003000D01*
X162151121Y-89998560D01*
X162110130Y-89986126D01*
X162072355Y-89965935D01*
X162039242Y-89938758D01*
X162012065Y-89905645D01*
X161991874Y-89867870D01*
X161979440Y-89826879D01*
X161975000Y-89781796D01*
X161975000Y-89249204D01*
X161979440Y-89204121D01*
X161991874Y-89163130D01*
X162012065Y-89125355D01*
X162039242Y-89092242D01*
X162072355Y-89065065D01*
X162110130Y-89044874D01*
X162151121Y-89032440D01*
X162196204Y-89028000D01*
X162803796Y-89028000D01*
X162848879Y-89032440D01*
G37*
G36*
X158348879Y-89032440D02*
G01*
X158389870Y-89044874D01*
X158427645Y-89065065D01*
X158460758Y-89092242D01*
X158487935Y-89125355D01*
X158508126Y-89163130D01*
X158520560Y-89204121D01*
X158525000Y-89249204D01*
X158525000Y-89781796D01*
X158520560Y-89826879D01*
X158508126Y-89867870D01*
X158487935Y-89905645D01*
X158460758Y-89938758D01*
X158427645Y-89965935D01*
X158389870Y-89986126D01*
X158348879Y-89998560D01*
X158303796Y-90003000D01*
X157696204Y-90003000D01*
X157651121Y-89998560D01*
X157610130Y-89986126D01*
X157572355Y-89965935D01*
X157539242Y-89938758D01*
X157512065Y-89905645D01*
X157491874Y-89867870D01*
X157479440Y-89826879D01*
X157475000Y-89781796D01*
X157475000Y-89249204D01*
X157479440Y-89204121D01*
X157491874Y-89163130D01*
X157512065Y-89125355D01*
X157539242Y-89092242D01*
X157572355Y-89065065D01*
X157610130Y-89044874D01*
X157651121Y-89032440D01*
X157696204Y-89028000D01*
X158303796Y-89028000D01*
X158348879Y-89032440D01*
G37*
G36*
X159848879Y-89032440D02*
G01*
X159889870Y-89044874D01*
X159927645Y-89065065D01*
X159960758Y-89092242D01*
X159987935Y-89125355D01*
X160008126Y-89163130D01*
X160020560Y-89204121D01*
X160025000Y-89249204D01*
X160025000Y-89781796D01*
X160020560Y-89826879D01*
X160008126Y-89867870D01*
X159987935Y-89905645D01*
X159960758Y-89938758D01*
X159927645Y-89965935D01*
X159889870Y-89986126D01*
X159848879Y-89998560D01*
X159803796Y-90003000D01*
X159196204Y-90003000D01*
X159151121Y-89998560D01*
X159110130Y-89986126D01*
X159072355Y-89965935D01*
X159039242Y-89938758D01*
X159012065Y-89905645D01*
X158991874Y-89867870D01*
X158979440Y-89826879D01*
X158975000Y-89781796D01*
X158975000Y-89249204D01*
X158979440Y-89204121D01*
X158991874Y-89163130D01*
X159012065Y-89125355D01*
X159039242Y-89092242D01*
X159072355Y-89065065D01*
X159110130Y-89044874D01*
X159151121Y-89032440D01*
X159196204Y-89028000D01*
X159803796Y-89028000D01*
X159848879Y-89032440D01*
G37*
G36*
X161348879Y-89032440D02*
G01*
X161389870Y-89044874D01*
X161427645Y-89065065D01*
X161460758Y-89092242D01*
X161487935Y-89125355D01*
X161508126Y-89163130D01*
X161520560Y-89204121D01*
X161525000Y-89249204D01*
X161525000Y-89781796D01*
X161520560Y-89826879D01*
X161508126Y-89867870D01*
X161487935Y-89905645D01*
X161460758Y-89938758D01*
X161427645Y-89965935D01*
X161389870Y-89986126D01*
X161348879Y-89998560D01*
X161303796Y-90003000D01*
X160696204Y-90003000D01*
X160651121Y-89998560D01*
X160610130Y-89986126D01*
X160572355Y-89965935D01*
X160539242Y-89938758D01*
X160512065Y-89905645D01*
X160491874Y-89867870D01*
X160479440Y-89826879D01*
X160475000Y-89781796D01*
X160475000Y-89249204D01*
X160479440Y-89204121D01*
X160491874Y-89163130D01*
X160512065Y-89125355D01*
X160539242Y-89092242D01*
X160572355Y-89065065D01*
X160610130Y-89044874D01*
X160651121Y-89032440D01*
X160696204Y-89028000D01*
X161303796Y-89028000D01*
X161348879Y-89032440D01*
G37*
G36*
X164348879Y-89032440D02*
G01*
X164389870Y-89044874D01*
X164427645Y-89065065D01*
X164460758Y-89092242D01*
X164487935Y-89125355D01*
X164508126Y-89163130D01*
X164520560Y-89204121D01*
X164525000Y-89249204D01*
X164525000Y-89781796D01*
X164520560Y-89826879D01*
X164508126Y-89867870D01*
X164487935Y-89905645D01*
X164460758Y-89938758D01*
X164427645Y-89965935D01*
X164389870Y-89986126D01*
X164348879Y-89998560D01*
X164303796Y-90003000D01*
X163696204Y-90003000D01*
X163651121Y-89998560D01*
X163610130Y-89986126D01*
X163572355Y-89965935D01*
X163539242Y-89938758D01*
X163512065Y-89905645D01*
X163491874Y-89867870D01*
X163479440Y-89826879D01*
X163475000Y-89781796D01*
X163475000Y-89249204D01*
X163479440Y-89204121D01*
X163491874Y-89163130D01*
X163512065Y-89125355D01*
X163539242Y-89092242D01*
X163572355Y-89065065D01*
X163610130Y-89044874D01*
X163651121Y-89032440D01*
X163696204Y-89028000D01*
X164303796Y-89028000D01*
X164348879Y-89032440D01*
G37*
G36*
X153448879Y-88907440D02*
G01*
X153489870Y-88919874D01*
X153527645Y-88940065D01*
X153560758Y-88967242D01*
X153587935Y-89000355D01*
X153608126Y-89038130D01*
X153620560Y-89079121D01*
X153625000Y-89124204D01*
X153625000Y-89731796D01*
X153620560Y-89776879D01*
X153608126Y-89817870D01*
X153587935Y-89855645D01*
X153560758Y-89888758D01*
X153527645Y-89915935D01*
X153489870Y-89936126D01*
X153448879Y-89948560D01*
X153403796Y-89953000D01*
X152871204Y-89953000D01*
X152826121Y-89948560D01*
X152785130Y-89936126D01*
X152747355Y-89915935D01*
X152714242Y-89888758D01*
X152687065Y-89855645D01*
X152666874Y-89817870D01*
X152654440Y-89776879D01*
X152650000Y-89731796D01*
X152650000Y-89124204D01*
X152654440Y-89079121D01*
X152666874Y-89038130D01*
X152687065Y-89000355D01*
X152714242Y-88967242D01*
X152747355Y-88940065D01*
X152785130Y-88919874D01*
X152826121Y-88907440D01*
X152871204Y-88903000D01*
X153403796Y-88903000D01*
X153448879Y-88907440D01*
G37*
G36*
X148473879Y-88907440D02*
G01*
X148514870Y-88919874D01*
X148552645Y-88940065D01*
X148585758Y-88967242D01*
X148612935Y-89000355D01*
X148633126Y-89038130D01*
X148645560Y-89079121D01*
X148650000Y-89124204D01*
X148650000Y-89731796D01*
X148645560Y-89776879D01*
X148633126Y-89817870D01*
X148612935Y-89855645D01*
X148585758Y-89888758D01*
X148552645Y-89915935D01*
X148514870Y-89936126D01*
X148473879Y-89948560D01*
X148428796Y-89953000D01*
X147896204Y-89953000D01*
X147851121Y-89948560D01*
X147810130Y-89936126D01*
X147772355Y-89915935D01*
X147739242Y-89888758D01*
X147712065Y-89855645D01*
X147691874Y-89817870D01*
X147679440Y-89776879D01*
X147675000Y-89731796D01*
X147675000Y-89124204D01*
X147679440Y-89079121D01*
X147691874Y-89038130D01*
X147712065Y-89000355D01*
X147739242Y-88967242D01*
X147772355Y-88940065D01*
X147810130Y-88919874D01*
X147851121Y-88907440D01*
X147896204Y-88903000D01*
X148428796Y-88903000D01*
X148473879Y-88907440D01*
G37*
G36*
X150048879Y-88907440D02*
G01*
X150089870Y-88919874D01*
X150127645Y-88940065D01*
X150160758Y-88967242D01*
X150187935Y-89000355D01*
X150208126Y-89038130D01*
X150220560Y-89079121D01*
X150225000Y-89124204D01*
X150225000Y-89731796D01*
X150220560Y-89776879D01*
X150208126Y-89817870D01*
X150187935Y-89855645D01*
X150160758Y-89888758D01*
X150127645Y-89915935D01*
X150089870Y-89936126D01*
X150048879Y-89948560D01*
X150003796Y-89953000D01*
X149471204Y-89953000D01*
X149426121Y-89948560D01*
X149385130Y-89936126D01*
X149347355Y-89915935D01*
X149314242Y-89888758D01*
X149287065Y-89855645D01*
X149266874Y-89817870D01*
X149254440Y-89776879D01*
X149250000Y-89731796D01*
X149250000Y-89124204D01*
X149254440Y-89079121D01*
X149266874Y-89038130D01*
X149287065Y-89000355D01*
X149314242Y-88967242D01*
X149347355Y-88940065D01*
X149385130Y-88919874D01*
X149426121Y-88907440D01*
X149471204Y-88903000D01*
X150003796Y-88903000D01*
X150048879Y-88907440D01*
G37*
G36*
X151873879Y-88907440D02*
G01*
X151914870Y-88919874D01*
X151952645Y-88940065D01*
X151985758Y-88967242D01*
X152012935Y-89000355D01*
X152033126Y-89038130D01*
X152045560Y-89079121D01*
X152050000Y-89124204D01*
X152050000Y-89731796D01*
X152045560Y-89776879D01*
X152033126Y-89817870D01*
X152012935Y-89855645D01*
X151985758Y-89888758D01*
X151952645Y-89915935D01*
X151914870Y-89936126D01*
X151873879Y-89948560D01*
X151828796Y-89953000D01*
X151296204Y-89953000D01*
X151251121Y-89948560D01*
X151210130Y-89936126D01*
X151172355Y-89915935D01*
X151139242Y-89888758D01*
X151112065Y-89855645D01*
X151091874Y-89817870D01*
X151079440Y-89776879D01*
X151075000Y-89731796D01*
X151075000Y-89124204D01*
X151079440Y-89079121D01*
X151091874Y-89038130D01*
X151112065Y-89000355D01*
X151139242Y-88967242D01*
X151172355Y-88940065D01*
X151210130Y-88919874D01*
X151251121Y-88907440D01*
X151296204Y-88903000D01*
X151828796Y-88903000D01*
X151873879Y-88907440D01*
G37*
G36*
X144623879Y-88857440D02*
G01*
X144664870Y-88869874D01*
X144702645Y-88890065D01*
X144735758Y-88917242D01*
X144762935Y-88950355D01*
X144783126Y-88988130D01*
X144795560Y-89029121D01*
X144800000Y-89074204D01*
X144800000Y-89681796D01*
X144795560Y-89726879D01*
X144783126Y-89767870D01*
X144762935Y-89805645D01*
X144735758Y-89838758D01*
X144702645Y-89865935D01*
X144664870Y-89886126D01*
X144623879Y-89898560D01*
X144578796Y-89903000D01*
X144046204Y-89903000D01*
X144001121Y-89898560D01*
X143960130Y-89886126D01*
X143922355Y-89865935D01*
X143889242Y-89838758D01*
X143862065Y-89805645D01*
X143841874Y-89767870D01*
X143829440Y-89726879D01*
X143825000Y-89681796D01*
X143825000Y-89074204D01*
X143829440Y-89029121D01*
X143841874Y-88988130D01*
X143862065Y-88950355D01*
X143889242Y-88917242D01*
X143922355Y-88890065D01*
X143960130Y-88869874D01*
X144001121Y-88857440D01*
X144046204Y-88853000D01*
X144578796Y-88853000D01*
X144623879Y-88857440D01*
G37*
G36*
X146198879Y-88857440D02*
G01*
X146239870Y-88869874D01*
X146277645Y-88890065D01*
X146310758Y-88917242D01*
X146337935Y-88950355D01*
X146358126Y-88988130D01*
X146370560Y-89029121D01*
X146375000Y-89074204D01*
X146375000Y-89681796D01*
X146370560Y-89726879D01*
X146358126Y-89767870D01*
X146337935Y-89805645D01*
X146310758Y-89838758D01*
X146277645Y-89865935D01*
X146239870Y-89886126D01*
X146198879Y-89898560D01*
X146153796Y-89903000D01*
X145621204Y-89903000D01*
X145576121Y-89898560D01*
X145535130Y-89886126D01*
X145497355Y-89865935D01*
X145464242Y-89838758D01*
X145437065Y-89805645D01*
X145416874Y-89767870D01*
X145404440Y-89726879D01*
X145400000Y-89681796D01*
X145400000Y-89074204D01*
X145404440Y-89029121D01*
X145416874Y-88988130D01*
X145437065Y-88950355D01*
X145464242Y-88917242D01*
X145497355Y-88890065D01*
X145535130Y-88869874D01*
X145576121Y-88857440D01*
X145621204Y-88853000D01*
X146153796Y-88853000D01*
X146198879Y-88857440D01*
G37*
G36*
X154913970Y-88507080D02*
G01*
X154951446Y-88518448D01*
X154985978Y-88536905D01*
X155016250Y-88561750D01*
X155041095Y-88592022D01*
X155059552Y-88626554D01*
X155070920Y-88664030D01*
X155075000Y-88705454D01*
X155075000Y-89200546D01*
X155070920Y-89241970D01*
X155059552Y-89279446D01*
X155041095Y-89313978D01*
X155016250Y-89344250D01*
X154985978Y-89369095D01*
X154951446Y-89387552D01*
X154913970Y-89398920D01*
X154872546Y-89403000D01*
X154277454Y-89403000D01*
X154236030Y-89398920D01*
X154198554Y-89387552D01*
X154164022Y-89369095D01*
X154133750Y-89344250D01*
X154108905Y-89313978D01*
X154090448Y-89279446D01*
X154079080Y-89241970D01*
X154075000Y-89200546D01*
X154075000Y-88705454D01*
X154079080Y-88664030D01*
X154090448Y-88626554D01*
X154108905Y-88592022D01*
X154133750Y-88561750D01*
X154164022Y-88536905D01*
X154198554Y-88518448D01*
X154236030Y-88507080D01*
X154277454Y-88503000D01*
X154872546Y-88503000D01*
X154913970Y-88507080D01*
G37*
G36*
X156363970Y-88507080D02*
G01*
X156401446Y-88518448D01*
X156435978Y-88536905D01*
X156466250Y-88561750D01*
X156491095Y-88592022D01*
X156509552Y-88626554D01*
X156520920Y-88664030D01*
X156525000Y-88705454D01*
X156525000Y-89200546D01*
X156520920Y-89241970D01*
X156509552Y-89279446D01*
X156491095Y-89313978D01*
X156466250Y-89344250D01*
X156435978Y-89369095D01*
X156401446Y-89387552D01*
X156363970Y-89398920D01*
X156322546Y-89403000D01*
X155727454Y-89403000D01*
X155686030Y-89398920D01*
X155648554Y-89387552D01*
X155614022Y-89369095D01*
X155583750Y-89344250D01*
X155558905Y-89313978D01*
X155540448Y-89279446D01*
X155529080Y-89241970D01*
X155525000Y-89200546D01*
X155525000Y-88705454D01*
X155529080Y-88664030D01*
X155540448Y-88626554D01*
X155558905Y-88592022D01*
X155583750Y-88561750D01*
X155614022Y-88536905D01*
X155648554Y-88518448D01*
X155686030Y-88507080D01*
X155727454Y-88503000D01*
X156322546Y-88503000D01*
X156363970Y-88507080D01*
G37*
G36*
X162848879Y-87457440D02*
G01*
X162889870Y-87469874D01*
X162927645Y-87490065D01*
X162960758Y-87517242D01*
X162987935Y-87550355D01*
X163008126Y-87588130D01*
X163020560Y-87629121D01*
X163025000Y-87674204D01*
X163025000Y-88206796D01*
X163020560Y-88251879D01*
X163008126Y-88292870D01*
X162987935Y-88330645D01*
X162960758Y-88363758D01*
X162927645Y-88390935D01*
X162889870Y-88411126D01*
X162848879Y-88423560D01*
X162803796Y-88428000D01*
X162196204Y-88428000D01*
X162151121Y-88423560D01*
X162110130Y-88411126D01*
X162072355Y-88390935D01*
X162039242Y-88363758D01*
X162012065Y-88330645D01*
X161991874Y-88292870D01*
X161979440Y-88251879D01*
X161975000Y-88206796D01*
X161975000Y-87674204D01*
X161979440Y-87629121D01*
X161991874Y-87588130D01*
X162012065Y-87550355D01*
X162039242Y-87517242D01*
X162072355Y-87490065D01*
X162110130Y-87469874D01*
X162151121Y-87457440D01*
X162196204Y-87453000D01*
X162803796Y-87453000D01*
X162848879Y-87457440D01*
G37*
G36*
X164348879Y-87457440D02*
G01*
X164389870Y-87469874D01*
X164427645Y-87490065D01*
X164460758Y-87517242D01*
X164487935Y-87550355D01*
X164508126Y-87588130D01*
X164520560Y-87629121D01*
X164525000Y-87674204D01*
X164525000Y-88206796D01*
X164520560Y-88251879D01*
X164508126Y-88292870D01*
X164487935Y-88330645D01*
X164460758Y-88363758D01*
X164427645Y-88390935D01*
X164389870Y-88411126D01*
X164348879Y-88423560D01*
X164303796Y-88428000D01*
X163696204Y-88428000D01*
X163651121Y-88423560D01*
X163610130Y-88411126D01*
X163572355Y-88390935D01*
X163539242Y-88363758D01*
X163512065Y-88330645D01*
X163491874Y-88292870D01*
X163479440Y-88251879D01*
X163475000Y-88206796D01*
X163475000Y-87674204D01*
X163479440Y-87629121D01*
X163491874Y-87588130D01*
X163512065Y-87550355D01*
X163539242Y-87517242D01*
X163572355Y-87490065D01*
X163610130Y-87469874D01*
X163651121Y-87457440D01*
X163696204Y-87453000D01*
X164303796Y-87453000D01*
X164348879Y-87457440D01*
G37*
G36*
X161348879Y-87457440D02*
G01*
X161389870Y-87469874D01*
X161427645Y-87490065D01*
X161460758Y-87517242D01*
X161487935Y-87550355D01*
X161508126Y-87588130D01*
X161520560Y-87629121D01*
X161525000Y-87674204D01*
X161525000Y-88206796D01*
X161520560Y-88251879D01*
X161508126Y-88292870D01*
X161487935Y-88330645D01*
X161460758Y-88363758D01*
X161427645Y-88390935D01*
X161389870Y-88411126D01*
X161348879Y-88423560D01*
X161303796Y-88428000D01*
X160696204Y-88428000D01*
X160651121Y-88423560D01*
X160610130Y-88411126D01*
X160572355Y-88390935D01*
X160539242Y-88363758D01*
X160512065Y-88330645D01*
X160491874Y-88292870D01*
X160479440Y-88251879D01*
X160475000Y-88206796D01*
X160475000Y-87674204D01*
X160479440Y-87629121D01*
X160491874Y-87588130D01*
X160512065Y-87550355D01*
X160539242Y-87517242D01*
X160572355Y-87490065D01*
X160610130Y-87469874D01*
X160651121Y-87457440D01*
X160696204Y-87453000D01*
X161303796Y-87453000D01*
X161348879Y-87457440D01*
G37*
G36*
X159848879Y-87457440D02*
G01*
X159889870Y-87469874D01*
X159927645Y-87490065D01*
X159960758Y-87517242D01*
X159987935Y-87550355D01*
X160008126Y-87588130D01*
X160020560Y-87629121D01*
X160025000Y-87674204D01*
X160025000Y-88206796D01*
X160020560Y-88251879D01*
X160008126Y-88292870D01*
X159987935Y-88330645D01*
X159960758Y-88363758D01*
X159927645Y-88390935D01*
X159889870Y-88411126D01*
X159848879Y-88423560D01*
X159803796Y-88428000D01*
X159196204Y-88428000D01*
X159151121Y-88423560D01*
X159110130Y-88411126D01*
X159072355Y-88390935D01*
X159039242Y-88363758D01*
X159012065Y-88330645D01*
X158991874Y-88292870D01*
X158979440Y-88251879D01*
X158975000Y-88206796D01*
X158975000Y-87674204D01*
X158979440Y-87629121D01*
X158991874Y-87588130D01*
X159012065Y-87550355D01*
X159039242Y-87517242D01*
X159072355Y-87490065D01*
X159110130Y-87469874D01*
X159151121Y-87457440D01*
X159196204Y-87453000D01*
X159803796Y-87453000D01*
X159848879Y-87457440D01*
G37*
G36*
X158348879Y-87457440D02*
G01*
X158389870Y-87469874D01*
X158427645Y-87490065D01*
X158460758Y-87517242D01*
X158487935Y-87550355D01*
X158508126Y-87588130D01*
X158520560Y-87629121D01*
X158525000Y-87674204D01*
X158525000Y-88206796D01*
X158520560Y-88251879D01*
X158508126Y-88292870D01*
X158487935Y-88330645D01*
X158460758Y-88363758D01*
X158427645Y-88390935D01*
X158389870Y-88411126D01*
X158348879Y-88423560D01*
X158303796Y-88428000D01*
X157696204Y-88428000D01*
X157651121Y-88423560D01*
X157610130Y-88411126D01*
X157572355Y-88390935D01*
X157539242Y-88363758D01*
X157512065Y-88330645D01*
X157491874Y-88292870D01*
X157479440Y-88251879D01*
X157475000Y-88206796D01*
X157475000Y-87674204D01*
X157479440Y-87629121D01*
X157491874Y-87588130D01*
X157512065Y-87550355D01*
X157539242Y-87517242D01*
X157572355Y-87490065D01*
X157610130Y-87469874D01*
X157651121Y-87457440D01*
X157696204Y-87453000D01*
X158303796Y-87453000D01*
X158348879Y-87457440D01*
G37*
G36*
X176238561Y-86485057D02*
G01*
X176296520Y-86496586D01*
X176460310Y-86564430D01*
X176607717Y-86662924D01*
X176733076Y-86788283D01*
X176733077Y-86788285D01*
X176831571Y-86935692D01*
X176899414Y-87099481D01*
X176934000Y-87273356D01*
X176934000Y-87450644D01*
X176925360Y-87494079D01*
X176899414Y-87624520D01*
X176831570Y-87788310D01*
X176733076Y-87935717D01*
X176607717Y-88061076D01*
X176460310Y-88159570D01*
X176296520Y-88227414D01*
X176238561Y-88238943D01*
X176122644Y-88262000D01*
X175945356Y-88262000D01*
X175829439Y-88238943D01*
X175771480Y-88227414D01*
X175607690Y-88159570D01*
X175460283Y-88061076D01*
X175334924Y-87935717D01*
X175236430Y-87788310D01*
X175168586Y-87624520D01*
X175142640Y-87494079D01*
X175134000Y-87450644D01*
X175134000Y-87273356D01*
X175168586Y-87099481D01*
X175236429Y-86935692D01*
X175334923Y-86788285D01*
X175334924Y-86788283D01*
X175460283Y-86662924D01*
X175607690Y-86564430D01*
X175771480Y-86496586D01*
X175829439Y-86485057D01*
X175945356Y-86462000D01*
X176122644Y-86462000D01*
X176238561Y-86485057D01*
G37*
G36*
X173698561Y-86485057D02*
G01*
X173756520Y-86496586D01*
X173920310Y-86564430D01*
X174067717Y-86662924D01*
X174193076Y-86788283D01*
X174193077Y-86788285D01*
X174291571Y-86935692D01*
X174359414Y-87099481D01*
X174394000Y-87273356D01*
X174394000Y-87450644D01*
X174385360Y-87494079D01*
X174359414Y-87624520D01*
X174291570Y-87788310D01*
X174193076Y-87935717D01*
X174067717Y-88061076D01*
X173920310Y-88159570D01*
X173756520Y-88227414D01*
X173698561Y-88238943D01*
X173582644Y-88262000D01*
X173405356Y-88262000D01*
X173289439Y-88238943D01*
X173231480Y-88227414D01*
X173067690Y-88159570D01*
X172920283Y-88061076D01*
X172794924Y-87935717D01*
X172696430Y-87788310D01*
X172628586Y-87624520D01*
X172602640Y-87494079D01*
X172594000Y-87450644D01*
X172594000Y-87273356D01*
X172628586Y-87099481D01*
X172696429Y-86935692D01*
X172794923Y-86788285D01*
X172794924Y-86788283D01*
X172920283Y-86662924D01*
X173067690Y-86564430D01*
X173231480Y-86496586D01*
X173289439Y-86485057D01*
X173405356Y-86462000D01*
X173582644Y-86462000D01*
X173698561Y-86485057D01*
G37*
G36*
X164208147Y-86837010D02*
G01*
X163308147Y-86837010D01*
X163308147Y-86237010D01*
X164208147Y-86237010D01*
X164208147Y-86837010D01*
G37*
G36*
X162408147Y-86837010D02*
G01*
X161508147Y-86837010D01*
X161508147Y-86237010D01*
X162408147Y-86237010D01*
X162408147Y-86837010D01*
G37*
G36*
X158838147Y-86662009D02*
G01*
X157678147Y-86662009D01*
X157678147Y-85912009D01*
X158838147Y-85912009D01*
X158838147Y-86662009D01*
G37*
G36*
X161038147Y-86662009D02*
G01*
X159878147Y-86662009D01*
X159878147Y-85912009D01*
X161038147Y-85912009D01*
X161038147Y-86662009D01*
G37*
G36*
X157048879Y-85632440D02*
G01*
X157089870Y-85644874D01*
X157127645Y-85665065D01*
X157160758Y-85692242D01*
X157187935Y-85725355D01*
X157208126Y-85763130D01*
X157220560Y-85804121D01*
X157225000Y-85849204D01*
X157225000Y-86381796D01*
X157220560Y-86426879D01*
X157208126Y-86467870D01*
X157187935Y-86505645D01*
X157160758Y-86538758D01*
X157127645Y-86565935D01*
X157089870Y-86586126D01*
X157048879Y-86598560D01*
X157003796Y-86603000D01*
X156396204Y-86603000D01*
X156351121Y-86598560D01*
X156310130Y-86586126D01*
X156272355Y-86565935D01*
X156239242Y-86538758D01*
X156212065Y-86505645D01*
X156191874Y-86467870D01*
X156179440Y-86426879D01*
X156175000Y-86381796D01*
X156175000Y-85849204D01*
X156179440Y-85804121D01*
X156191874Y-85763130D01*
X156212065Y-85725355D01*
X156239242Y-85692242D01*
X156272355Y-85665065D01*
X156310130Y-85644874D01*
X156351121Y-85632440D01*
X156396204Y-85628000D01*
X157003796Y-85628000D01*
X157048879Y-85632440D01*
G37*
G36*
X164208147Y-85987010D02*
G01*
X163308147Y-85987010D01*
X163308147Y-85487010D01*
X164208147Y-85487010D01*
X164208147Y-85987010D01*
G37*
G36*
X162408147Y-85987010D02*
G01*
X161508147Y-85987010D01*
X161508147Y-85487010D01*
X162408147Y-85487010D01*
X162408147Y-85987010D01*
G37*
G36*
X176238561Y-83945057D02*
G01*
X176296520Y-83956586D01*
X176460310Y-84024430D01*
X176607717Y-84122924D01*
X176733076Y-84248283D01*
X176831570Y-84395690D01*
X176831571Y-84395692D01*
X176899414Y-84559481D01*
X176934000Y-84733356D01*
X176934000Y-84910644D01*
X176918029Y-84990935D01*
X176899414Y-85084520D01*
X176831570Y-85248310D01*
X176733076Y-85395717D01*
X176607717Y-85521076D01*
X176460310Y-85619570D01*
X176296520Y-85687414D01*
X176238561Y-85698943D01*
X176122644Y-85722000D01*
X175945356Y-85722000D01*
X175829439Y-85698943D01*
X175771480Y-85687414D01*
X175607690Y-85619570D01*
X175460283Y-85521076D01*
X175334924Y-85395717D01*
X175236430Y-85248310D01*
X175168586Y-85084520D01*
X175149971Y-84990935D01*
X175134000Y-84910644D01*
X175134000Y-84733356D01*
X175168586Y-84559481D01*
X175236429Y-84395692D01*
X175236430Y-84395690D01*
X175334924Y-84248283D01*
X175460283Y-84122924D01*
X175607690Y-84024430D01*
X175771480Y-83956586D01*
X175829439Y-83945057D01*
X175945356Y-83922000D01*
X176122644Y-83922000D01*
X176238561Y-83945057D01*
G37*
G36*
X173698561Y-83945057D02*
G01*
X173756520Y-83956586D01*
X173920310Y-84024430D01*
X174067717Y-84122924D01*
X174193076Y-84248283D01*
X174291570Y-84395690D01*
X174291571Y-84395692D01*
X174359414Y-84559481D01*
X174394000Y-84733356D01*
X174394000Y-84910644D01*
X174378029Y-84990935D01*
X174359414Y-85084520D01*
X174291570Y-85248310D01*
X174193076Y-85395717D01*
X174067717Y-85521076D01*
X173920310Y-85619570D01*
X173756520Y-85687414D01*
X173698561Y-85698943D01*
X173582644Y-85722000D01*
X173405356Y-85722000D01*
X173289439Y-85698943D01*
X173231480Y-85687414D01*
X173067690Y-85619570D01*
X172920283Y-85521076D01*
X172794924Y-85395717D01*
X172696430Y-85248310D01*
X172628586Y-85084520D01*
X172609971Y-84990935D01*
X172594000Y-84910644D01*
X172594000Y-84733356D01*
X172628586Y-84559481D01*
X172696429Y-84395692D01*
X172696430Y-84395690D01*
X172794924Y-84248283D01*
X172920283Y-84122924D01*
X173067690Y-84024430D01*
X173231480Y-83956586D01*
X173289439Y-83945057D01*
X173405356Y-83922000D01*
X173582644Y-83922000D01*
X173698561Y-83945057D01*
G37*
G36*
X158838147Y-85712009D02*
G01*
X157678147Y-85712009D01*
X157678147Y-84962009D01*
X158838147Y-84962009D01*
X158838147Y-85712009D01*
G37*
G36*
X161038147Y-85712009D02*
G01*
X159878147Y-85712009D01*
X159878147Y-84962009D01*
X161038147Y-84962009D01*
X161038147Y-85712009D01*
G37*
G36*
X164208147Y-85187010D02*
G01*
X163308147Y-85187010D01*
X163308147Y-84687010D01*
X164208147Y-84687010D01*
X164208147Y-85187010D01*
G37*
G36*
X162408147Y-85187010D02*
G01*
X161508147Y-85187010D01*
X161508147Y-84687010D01*
X162408147Y-84687010D01*
X162408147Y-85187010D01*
G37*
G36*
X157048879Y-84057440D02*
G01*
X157089870Y-84069874D01*
X157127645Y-84090065D01*
X157160758Y-84117242D01*
X157187935Y-84150355D01*
X157208126Y-84188130D01*
X157220560Y-84229121D01*
X157225000Y-84274204D01*
X157225000Y-84806796D01*
X157220560Y-84851879D01*
X157208126Y-84892870D01*
X157187935Y-84930645D01*
X157160758Y-84963758D01*
X157127645Y-84990935D01*
X157089870Y-85011126D01*
X157048879Y-85023560D01*
X157003796Y-85028000D01*
X156396204Y-85028000D01*
X156351121Y-85023560D01*
X156310130Y-85011126D01*
X156272355Y-84990935D01*
X156239242Y-84963758D01*
X156212065Y-84930645D01*
X156191874Y-84892870D01*
X156179440Y-84851879D01*
X156175000Y-84806796D01*
X156175000Y-84274204D01*
X156179440Y-84229121D01*
X156191874Y-84188130D01*
X156212065Y-84150355D01*
X156239242Y-84117242D01*
X156272355Y-84090065D01*
X156310130Y-84069874D01*
X156351121Y-84057440D01*
X156396204Y-84053000D01*
X157003796Y-84053000D01*
X157048879Y-84057440D01*
G37*
G36*
X161038147Y-84762009D02*
G01*
X159878147Y-84762009D01*
X159878147Y-84012009D01*
X161038147Y-84012009D01*
X161038147Y-84762009D01*
G37*
G36*
X158838147Y-84762009D02*
G01*
X157678147Y-84762009D01*
X157678147Y-84012009D01*
X158838147Y-84012009D01*
X158838147Y-84762009D01*
G37*
G36*
X164208147Y-84437010D02*
G01*
X163308147Y-84437010D01*
X163308147Y-83837010D01*
X164208147Y-83837010D01*
X164208147Y-84437010D01*
G37*
G36*
X162408147Y-84437010D02*
G01*
X161508147Y-84437010D01*
X161508147Y-83837010D01*
X162408147Y-83837010D01*
X162408147Y-84437010D01*
G37*
G36*
X176238561Y-81405057D02*
G01*
X176296520Y-81416586D01*
X176460310Y-81484430D01*
X176607717Y-81582924D01*
X176733076Y-81708283D01*
X176812256Y-81826785D01*
X176831571Y-81855692D01*
X176899414Y-82019481D01*
X176925994Y-82153105D01*
X176934000Y-82193358D01*
X176934000Y-82370642D01*
X176899414Y-82544520D01*
X176831570Y-82708310D01*
X176733076Y-82855717D01*
X176607717Y-82981076D01*
X176460310Y-83079570D01*
X176296520Y-83147414D01*
X176238561Y-83158943D01*
X176122644Y-83182000D01*
X175945356Y-83182000D01*
X175829439Y-83158943D01*
X175771480Y-83147414D01*
X175607690Y-83079570D01*
X175460283Y-82981076D01*
X175334924Y-82855717D01*
X175236430Y-82708310D01*
X175168586Y-82544520D01*
X175134000Y-82370642D01*
X175134000Y-82193358D01*
X175142007Y-82153105D01*
X175168586Y-82019481D01*
X175236429Y-81855692D01*
X175255744Y-81826785D01*
X175334924Y-81708283D01*
X175460283Y-81582924D01*
X175607690Y-81484430D01*
X175771480Y-81416586D01*
X175829439Y-81405057D01*
X175945356Y-81382000D01*
X176122644Y-81382000D01*
X176238561Y-81405057D01*
G37*
G36*
X173698561Y-81405057D02*
G01*
X173756520Y-81416586D01*
X173920310Y-81484430D01*
X174067717Y-81582924D01*
X174193076Y-81708283D01*
X174272256Y-81826785D01*
X174291571Y-81855692D01*
X174359414Y-82019481D01*
X174385994Y-82153105D01*
X174394000Y-82193358D01*
X174394000Y-82370642D01*
X174359414Y-82544520D01*
X174291570Y-82708310D01*
X174193076Y-82855717D01*
X174067717Y-82981076D01*
X173920310Y-83079570D01*
X173756520Y-83147414D01*
X173698561Y-83158943D01*
X173582644Y-83182000D01*
X173405356Y-83182000D01*
X173289439Y-83158943D01*
X173231480Y-83147414D01*
X173067690Y-83079570D01*
X172920283Y-82981076D01*
X172794924Y-82855717D01*
X172696430Y-82708310D01*
X172628586Y-82544520D01*
X172594000Y-82370642D01*
X172594000Y-82193358D01*
X172602007Y-82153105D01*
X172628586Y-82019481D01*
X172696429Y-81855692D01*
X172715744Y-81826785D01*
X172794924Y-81708283D01*
X172920283Y-81582924D01*
X173067690Y-81484430D01*
X173231480Y-81416586D01*
X173289439Y-81405057D01*
X173405356Y-81382000D01*
X173582644Y-81382000D01*
X173698561Y-81405057D01*
G37*
G36*
X160597988Y-75902895D02*
G01*
X161189451Y-76147887D01*
X161311167Y-76229215D01*
X161721754Y-76503560D01*
X162174440Y-76956246D01*
X162395190Y-77286623D01*
X162530113Y-77488549D01*
X162775105Y-78080012D01*
X162900000Y-78707901D01*
X162900000Y-79348099D01*
X162775105Y-79975988D01*
X162530113Y-80567451D01*
X162480301Y-80642000D01*
X162174440Y-81099754D01*
X161721754Y-81552440D01*
X161384870Y-81777538D01*
X161189451Y-81908113D01*
X160597988Y-82153105D01*
X159970099Y-82278000D01*
X159329901Y-82278000D01*
X158702012Y-82153105D01*
X158110549Y-81908113D01*
X157915130Y-81777538D01*
X157578246Y-81552440D01*
X157125560Y-81099754D01*
X156819699Y-80642000D01*
X156769887Y-80567451D01*
X156524895Y-79975988D01*
X156400000Y-79348099D01*
X156400000Y-78707901D01*
X156524895Y-78080012D01*
X156769887Y-77488549D01*
X156904810Y-77286623D01*
X157125560Y-76956246D01*
X157578246Y-76503560D01*
X157988833Y-76229215D01*
X158110549Y-76147887D01*
X158702012Y-75902895D01*
X159329901Y-75778000D01*
X159970099Y-75778000D01*
X160597988Y-75902895D01*
G37*
G36*
X176238561Y-78865057D02*
G01*
X176296520Y-78876586D01*
X176460310Y-78944430D01*
X176607717Y-79042924D01*
X176733076Y-79168283D01*
X176831570Y-79315690D01*
X176899414Y-79479480D01*
X176934000Y-79653358D01*
X176934000Y-79830642D01*
X176899414Y-80004520D01*
X176831570Y-80168310D01*
X176733076Y-80315717D01*
X176607717Y-80441076D01*
X176460310Y-80539570D01*
X176296520Y-80607414D01*
X176238561Y-80618943D01*
X176122644Y-80642000D01*
X175945356Y-80642000D01*
X175829439Y-80618943D01*
X175771480Y-80607414D01*
X175607690Y-80539570D01*
X175460283Y-80441076D01*
X175334924Y-80315717D01*
X175236430Y-80168310D01*
X175168586Y-80004520D01*
X175134000Y-79830642D01*
X175134000Y-79653358D01*
X175168586Y-79479480D01*
X175236430Y-79315690D01*
X175334924Y-79168283D01*
X175460283Y-79042924D01*
X175607690Y-78944430D01*
X175771480Y-78876586D01*
X175829439Y-78865057D01*
X175945356Y-78842000D01*
X176122644Y-78842000D01*
X176238561Y-78865057D01*
G37*
G36*
X173698561Y-78865057D02*
G01*
X173756520Y-78876586D01*
X173920310Y-78944430D01*
X174067717Y-79042924D01*
X174193076Y-79168283D01*
X174291570Y-79315690D01*
X174359414Y-79479480D01*
X174394000Y-79653358D01*
X174394000Y-79830642D01*
X174359414Y-80004520D01*
X174291570Y-80168310D01*
X174193076Y-80315717D01*
X174067717Y-80441076D01*
X173920310Y-80539570D01*
X173756520Y-80607414D01*
X173698561Y-80618943D01*
X173582644Y-80642000D01*
X173405356Y-80642000D01*
X173289439Y-80618943D01*
X173231480Y-80607414D01*
X173067690Y-80539570D01*
X172920283Y-80441076D01*
X172794924Y-80315717D01*
X172696430Y-80168310D01*
X172628586Y-80004520D01*
X172594000Y-79830642D01*
X172594000Y-79653358D01*
X172628586Y-79479480D01*
X172696430Y-79315690D01*
X172794924Y-79168283D01*
X172920283Y-79042924D01*
X173067690Y-78944430D01*
X173231480Y-78876586D01*
X173289439Y-78865057D01*
X173405356Y-78842000D01*
X173582644Y-78842000D01*
X173698561Y-78865057D01*
G37*
G36*
X176238561Y-76325057D02*
G01*
X176296520Y-76336586D01*
X176460310Y-76404430D01*
X176607717Y-76502924D01*
X176733076Y-76628283D01*
X176831570Y-76775690D01*
X176899414Y-76939480D01*
X176934000Y-77113358D01*
X176934000Y-77290642D01*
X176899414Y-77464520D01*
X176831570Y-77628310D01*
X176733076Y-77775717D01*
X176607717Y-77901076D01*
X176460310Y-77999570D01*
X176296520Y-78067414D01*
X176238561Y-78078943D01*
X176122644Y-78102000D01*
X175945356Y-78102000D01*
X175829439Y-78078943D01*
X175771480Y-78067414D01*
X175607690Y-77999570D01*
X175460283Y-77901076D01*
X175334924Y-77775717D01*
X175236430Y-77628310D01*
X175168586Y-77464520D01*
X175134000Y-77290642D01*
X175134000Y-77113358D01*
X175168586Y-76939480D01*
X175236430Y-76775690D01*
X175334924Y-76628283D01*
X175460283Y-76502924D01*
X175607690Y-76404430D01*
X175771480Y-76336586D01*
X175829439Y-76325057D01*
X175945356Y-76302000D01*
X176122644Y-76302000D01*
X176238561Y-76325057D01*
G37*
G36*
X173698561Y-76325057D02*
G01*
X173756520Y-76336586D01*
X173920310Y-76404430D01*
X174067717Y-76502924D01*
X174193076Y-76628283D01*
X174291570Y-76775690D01*
X174359414Y-76939480D01*
X174394000Y-77113358D01*
X174394000Y-77290642D01*
X174359414Y-77464520D01*
X174291570Y-77628310D01*
X174193076Y-77775717D01*
X174067717Y-77901076D01*
X173920310Y-77999570D01*
X173756520Y-78067414D01*
X173698561Y-78078943D01*
X173582644Y-78102000D01*
X173405356Y-78102000D01*
X173289439Y-78078943D01*
X173231480Y-78067414D01*
X173067690Y-77999570D01*
X172920283Y-77901076D01*
X172794924Y-77775717D01*
X172696430Y-77628310D01*
X172628586Y-77464520D01*
X172594000Y-77290642D01*
X172594000Y-77113358D01*
X172628586Y-76939480D01*
X172696430Y-76775690D01*
X172794924Y-76628283D01*
X172920283Y-76502924D01*
X173067690Y-76404430D01*
X173231480Y-76336586D01*
X173289439Y-76325057D01*
X173405356Y-76302000D01*
X173582644Y-76302000D01*
X173698561Y-76325057D01*
G37*
G36*
X176238561Y-73785057D02*
G01*
X176296520Y-73796586D01*
X176460310Y-73864430D01*
X176607717Y-73962924D01*
X176733076Y-74088283D01*
X176831570Y-74235690D01*
X176899414Y-74399480D01*
X176934000Y-74573358D01*
X176934000Y-74750642D01*
X176899414Y-74924520D01*
X176831570Y-75088310D01*
X176733076Y-75235717D01*
X176607717Y-75361076D01*
X176460310Y-75459570D01*
X176296520Y-75527414D01*
X176238561Y-75538943D01*
X176122644Y-75562000D01*
X175945356Y-75562000D01*
X175829439Y-75538943D01*
X175771480Y-75527414D01*
X175607690Y-75459570D01*
X175460283Y-75361076D01*
X175334924Y-75235717D01*
X175236430Y-75088310D01*
X175168586Y-74924520D01*
X175134000Y-74750642D01*
X175134000Y-74573358D01*
X175168586Y-74399480D01*
X175236430Y-74235690D01*
X175334924Y-74088283D01*
X175460283Y-73962924D01*
X175607690Y-73864430D01*
X175771480Y-73796586D01*
X175829439Y-73785057D01*
X175945356Y-73762000D01*
X176122644Y-73762000D01*
X176238561Y-73785057D01*
G37*
G36*
X173698561Y-73785057D02*
G01*
X173756520Y-73796586D01*
X173920310Y-73864430D01*
X174067717Y-73962924D01*
X174193076Y-74088283D01*
X174291570Y-74235690D01*
X174359414Y-74399480D01*
X174394000Y-74573358D01*
X174394000Y-74750642D01*
X174359414Y-74924520D01*
X174291570Y-75088310D01*
X174193076Y-75235717D01*
X174067717Y-75361076D01*
X173920310Y-75459570D01*
X173756520Y-75527414D01*
X173698561Y-75538943D01*
X173582644Y-75562000D01*
X173405356Y-75562000D01*
X173289439Y-75538943D01*
X173231480Y-75527414D01*
X173067690Y-75459570D01*
X172920283Y-75361076D01*
X172794924Y-75235717D01*
X172696430Y-75088310D01*
X172628586Y-74924520D01*
X172594000Y-74750642D01*
X172594000Y-74573358D01*
X172628586Y-74399480D01*
X172696430Y-74235690D01*
X172794924Y-74088283D01*
X172920283Y-73962924D01*
X173067690Y-73864430D01*
X173231480Y-73796586D01*
X173289439Y-73785057D01*
X173405356Y-73762000D01*
X173582644Y-73762000D01*
X173698561Y-73785057D01*
G37*
G36*
X176238561Y-71245057D02*
G01*
X176296520Y-71256586D01*
X176460310Y-71324430D01*
X176607717Y-71422924D01*
X176733076Y-71548283D01*
X176831570Y-71695690D01*
X176899414Y-71859480D01*
X176934000Y-72033358D01*
X176934000Y-72210642D01*
X176899414Y-72384520D01*
X176831570Y-72548310D01*
X176733076Y-72695717D01*
X176607717Y-72821076D01*
X176460310Y-72919570D01*
X176296520Y-72987414D01*
X176238561Y-72998943D01*
X176122644Y-73022000D01*
X175945356Y-73022000D01*
X175829439Y-72998943D01*
X175771480Y-72987414D01*
X175607690Y-72919570D01*
X175460283Y-72821076D01*
X175334924Y-72695717D01*
X175236430Y-72548310D01*
X175168586Y-72384520D01*
X175134000Y-72210642D01*
X175134000Y-72033358D01*
X175168586Y-71859480D01*
X175236430Y-71695690D01*
X175334924Y-71548283D01*
X175460283Y-71422924D01*
X175607690Y-71324430D01*
X175771480Y-71256586D01*
X175829439Y-71245057D01*
X175945356Y-71222000D01*
X176122644Y-71222000D01*
X176238561Y-71245057D01*
G37*
G36*
X173698561Y-71245057D02*
G01*
X173756520Y-71256586D01*
X173920310Y-71324430D01*
X174067717Y-71422924D01*
X174193076Y-71548283D01*
X174291570Y-71695690D01*
X174359414Y-71859480D01*
X174394000Y-72033358D01*
X174394000Y-72210642D01*
X174359414Y-72384520D01*
X174291570Y-72548310D01*
X174193076Y-72695717D01*
X174067717Y-72821076D01*
X173920310Y-72919570D01*
X173756520Y-72987414D01*
X173698561Y-72998943D01*
X173582644Y-73022000D01*
X173405356Y-73022000D01*
X173289439Y-72998943D01*
X173231480Y-72987414D01*
X173067690Y-72919570D01*
X172920283Y-72821076D01*
X172794924Y-72695717D01*
X172696430Y-72548310D01*
X172628586Y-72384520D01*
X172594000Y-72210642D01*
X172594000Y-72033358D01*
X172628586Y-71859480D01*
X172696430Y-71695690D01*
X172794924Y-71548283D01*
X172920283Y-71422924D01*
X173067690Y-71324430D01*
X173231480Y-71256586D01*
X173289439Y-71245057D01*
X173405356Y-71222000D01*
X173582644Y-71222000D01*
X173698561Y-71245057D01*
G37*
G36*
X176238561Y-68705057D02*
G01*
X176296520Y-68716586D01*
X176460310Y-68784430D01*
X176607717Y-68882924D01*
X176733076Y-69008283D01*
X176831570Y-69155690D01*
X176899414Y-69319480D01*
X176934000Y-69493358D01*
X176934000Y-69670642D01*
X176899414Y-69844520D01*
X176831570Y-70008310D01*
X176733076Y-70155717D01*
X176607717Y-70281076D01*
X176460310Y-70379570D01*
X176296520Y-70447414D01*
X176238561Y-70458943D01*
X176122644Y-70482000D01*
X175945356Y-70482000D01*
X175829439Y-70458943D01*
X175771480Y-70447414D01*
X175607690Y-70379570D01*
X175460283Y-70281076D01*
X175334924Y-70155717D01*
X175236430Y-70008310D01*
X175168586Y-69844520D01*
X175134000Y-69670642D01*
X175134000Y-69493358D01*
X175168586Y-69319480D01*
X175236430Y-69155690D01*
X175334924Y-69008283D01*
X175460283Y-68882924D01*
X175607690Y-68784430D01*
X175771480Y-68716586D01*
X175829439Y-68705057D01*
X175945356Y-68682000D01*
X176122644Y-68682000D01*
X176238561Y-68705057D01*
G37*
G36*
X173698561Y-68705057D02*
G01*
X173756520Y-68716586D01*
X173920310Y-68784430D01*
X174067717Y-68882924D01*
X174193076Y-69008283D01*
X174291570Y-69155690D01*
X174359414Y-69319480D01*
X174394000Y-69493358D01*
X174394000Y-69670642D01*
X174359414Y-69844520D01*
X174291570Y-70008310D01*
X174193076Y-70155717D01*
X174067717Y-70281076D01*
X173920310Y-70379570D01*
X173756520Y-70447414D01*
X173698561Y-70458943D01*
X173582644Y-70482000D01*
X173405356Y-70482000D01*
X173289439Y-70458943D01*
X173231480Y-70447414D01*
X173067690Y-70379570D01*
X172920283Y-70281076D01*
X172794924Y-70155717D01*
X172696430Y-70008310D01*
X172628586Y-69844520D01*
X172594000Y-69670642D01*
X172594000Y-69493358D01*
X172628586Y-69319480D01*
X172696430Y-69155690D01*
X172794924Y-69008283D01*
X172920283Y-68882924D01*
X173067690Y-68784430D01*
X173231480Y-68716586D01*
X173289439Y-68705057D01*
X173405356Y-68682000D01*
X173582644Y-68682000D01*
X173698561Y-68705057D01*
G37*
M02*
