M48
; DRILL file {KiCad (5.1.6-0-10_14)} date Friday, September 25, 2020 at 04:26:39 AM
; FORMAT={-:-/ absolute / inch / decimal}
; #@! TF.CreationDate,2020-09-25T04:26:39-07:00
; #@! TF.GenerationSoftware,Kicad,Pcbnew,(5.1.6-0-10_14)
; #@! TF.FileFunction,Plated,1,4,PTH
FMAT,2
INCH
T1C0.0098
T2C0.0197
T3C0.0236
T4C0.0394
T5C0.1260
%
G90
G05
T1
X5.6417Y-3.5523
X5.6516Y-3.5779
X5.6732Y-3.7609
X5.6732Y-3.8791
X5.7559Y-3.6172
X5.7559Y-3.6645
X5.7559Y-3.9755
X5.7657Y-3.692
X5.7657Y-3.948
X5.7992Y-3.8889
X5.7992Y-3.9165
X5.7992Y-4.0936
X5.7992Y-4.1212
X5.8012Y-3.5602
X5.8012Y-3.5877
X5.8484Y-3.8279
X5.9055Y-3.7334
X5.9114Y-4.005
X5.9114Y-3.8672
X5.9193Y-3.4913
X5.9193Y-4.0779
X5.9311Y-3.9342
X5.9331Y-3.6094
X5.9331Y-4.1212
X5.9409Y-3.7275
X5.9429Y-3.5503
X5.9429Y-3.8731
X5.9429Y-3.9913
X5.9665Y-3.4814
X6.0512Y-3.4893
X6.0512Y-4.0503
X6.0669Y-3.6724
X6.0669Y-4.1861
X6.1004Y-3.6153
X6.1516Y-3.9952
X6.1634Y-3.7511
X6.1634Y-3.8594
X6.1634Y-3.9291
X6.1713Y-4.086
X6.187Y-3.4224
X6.1909Y-3.9657
X6.1949Y-3.3062
X6.2106Y-3.4263
X6.2106Y-3.6743
X6.2106Y-3.9952
X6.2303Y-3.6448
X6.2303Y-3.9657
X6.2402Y-3.7314
X6.2402Y-3.8889
X6.25Y-3.9952
X6.2697Y-3.9657
X6.2756Y-3.322
X6.2894Y-3.6743
X6.2894Y-3.9952
X6.3091Y-3.6448
X6.3091Y-3.9657
X6.3287Y-3.6743
X6.3287Y-3.9952
X6.3484Y-3.6448
X6.3484Y-3.9657
X6.3681Y-3.4381
X6.3681Y-3.6743
X6.3681Y-3.9952
X6.3878Y-3.6448
X6.3878Y-3.9657
X6.4075Y-3.3436
X6.4075Y-3.4145
X6.4075Y-3.6743
X6.4075Y-3.9952
X6.4167Y-3.3791
X6.4167Y-3.3082
X6.4252Y-3.7224
X6.4272Y-3.6448
X6.4272Y-3.9657
X6.437Y-3.8889
X6.4469Y-3.6743
X6.4469Y-3.9952
X6.4665Y-3.6448
X6.4665Y-3.9657
X6.4843Y-3.692
X6.4843Y-3.7314
X6.4843Y-3.7708
X6.4843Y-3.8102
X6.4843Y-3.8495
X6.4862Y-3.9361
X6.4862Y-3.9952
X6.5059Y-3.9657
X6.5138Y-3.6724
X6.5138Y-3.7117
X6.5138Y-3.7511
X6.5138Y-3.7905
X6.5138Y-3.8298
X6.5138Y-3.8692
X6.5138Y-3.9086
T2
X6.1909Y-3.1113
X6.2186Y-3.0445
X6.2186Y-3.1782
X6.2854Y-3.0169
X6.2854Y-3.2058
X6.3522Y-3.0445
X6.3522Y-3.1782
X6.3799Y-3.1113
X6.1909Y-4.5287
X6.2186Y-4.4618
X6.2186Y-4.5955
X6.2854Y-4.4342
X6.2854Y-4.6231
X6.3522Y-4.4618
X6.3522Y-4.5955
X6.3799Y-4.5287
T4
X6.8305Y-2.7394
X6.8305Y-2.8394
X6.8305Y-2.9394
X6.8305Y-3.0394
X6.8305Y-3.1394
X6.8305Y-3.2394
X6.8305Y-3.3394
X6.8305Y-3.4394
X6.8305Y-3.5394
X6.8305Y-3.6394
X6.9305Y-2.7394
X6.9305Y-2.8394
X6.9305Y-2.9394
X6.9305Y-3.0394
X6.9305Y-3.1394
X6.9305Y-3.2394
X6.9305Y-3.3394
X6.9305Y-3.4394
X6.9305Y-3.5394
X6.9305Y-3.6394
X6.8285Y-4.0006
X6.8285Y-4.1006
X6.8285Y-4.2006
X6.8285Y-4.3006
X6.8285Y-4.4006
X6.8285Y-4.5006
X6.8285Y-4.6006
X6.8285Y-4.7006
X6.8285Y-4.8006
X6.8285Y-4.9006
X6.9285Y-4.0006
X6.9285Y-4.1006
X6.9285Y-4.2006
X6.9285Y-4.3006
X6.9285Y-4.4006
X6.9285Y-4.5006
X6.9285Y-4.6006
X6.9285Y-4.7006
X6.9285Y-4.8006
X6.9285Y-4.9006
T5
X6.2854Y-3.1113
X6.2854Y-4.5287
T3
G00X5.5295Y-3.6499
M15
G01X5.5059Y-3.6499
M16
G05
G00X5.5295Y-3.9901
M15
G01X5.5059Y-3.9901
M16
G05
G00X5.7039Y-3.6499
M15
G01X5.6606Y-3.6499
M16
G05
G00X5.7039Y-3.9901
M15
G01X5.6606Y-3.9901
M16
G05
T0
M30
